Signika-Thin.ufo
<glyph name="numbersign" format="2">
  <advance width="1198"/>
  <unicode hex="0023"/>
  <outline>
    <contour>
      <point x="208" y="28" type="curve"/>
      <point x="484" y="1262" type="line"/>
      <point x="501" y="1267"/>
      <point x="526" y="1270"/>
      <point x="550" y="1270" type="curve" smooth="yes"/>
      <point x="575" y="1270"/>
      <point x="599" y="1267"/>
      <point x="616" y="1262" type="curve"/>
      <point x="340" y="28" type="line"/>
      <point x="325" y="21"/>
      <point x="300" y="18"/>
      <point x="274" y="18" type="curve" smooth="yes"/>
      <point x="249" y="18"/>
      <point x="223" y="21"/>
    </contour>
    <contour>
      <point x="600" y="28" type="curve"/>
      <point x="876" y="1262" type="line"/>
      <point x="893" y="1267"/>
      <point x="918" y="1270"/>
      <point x="942" y="1270" type="curve" smooth="yes"/>
      <point x="967" y="1270"/>
      <point x="991" y="1267"/>
      <point x="1008" y="1262" type="curve"/>
      <point x="732" y="28" type="line"/>
      <point x="717" y="21"/>
      <point x="692" y="18"/>
      <point x="666" y="18" type="curve" smooth="yes"/>
      <point x="641" y="18"/>
      <point x="615" y="21"/>
    </contour>
    <contour>
      <point x="1052" y="338" type="curve"/>
      <point x="62" y="338" type="line"/>
      <point x="56" y="354"/>
      <point x="53" y="377"/>
      <point x="53" y="400" type="curve" smooth="yes"/>
      <point x="53" y="423"/>
      <point x="56" y="446"/>
      <point x="62" y="462" type="curve"/>
      <point x="1052" y="462" type="line"/>
      <point x="1058" y="446"/>
      <point x="1061" y="423"/>
      <point x="1061" y="400" type="curve" smooth="yes"/>
      <point x="1061" y="377"/>
      <point x="1058" y="354"/>
    </contour>
    <contour>
      <point x="1140" y="828" type="curve"/>
      <point x="150" y="828" type="line"/>
      <point x="144" y="844"/>
      <point x="141" y="867"/>
      <point x="141" y="890" type="curve" smooth="yes"/>
      <point x="141" y="913"/>
      <point x="144" y="936"/>
      <point x="150" y="952" type="curve"/>
      <point x="1140" y="952" type="line"/>
      <point x="1146" y="936"/>
      <point x="1149" y="913"/>
      <point x="1149" y="890" type="curve" smooth="yes"/>
      <point x="1149" y="867"/>
      <point x="1146" y="844"/>
    </contour>
  </outline>
</glyph>
<glyph name="dollar" format="2">
  <advance width="1080"/>
  <unicode hex="0024"/>
  <outline>
    <contour>
      <point x="535" y="63" type="curve" smooth="yes"/>
      <point x="778" y="63"/>
      <point x="924" y="196"/>
      <point x="924" y="369" type="curve" smooth="yes"/>
      <point x="924" y="533"/>
      <point x="830" y="629"/>
      <point x="674" y="684" type="curve" smooth="yes"/>
      <point x="477" y="753" type="line" smooth="yes"/>
      <point x="385" y="785"/>
      <point x="316" y="823"/>
      <point x="316" y="919" type="curve" smooth="yes"/>
      <point x="316" y="1022"/>
      <point x="407" y="1087"/>
      <point x="542" y="1087" type="curve" smooth="yes"/>
      <point x="647" y="1087"/>
      <point x="747" y="1053"/>
      <point x="833" y="1003" type="curve"/>
      <point x="864" y="1032"/>
      <point x="886" y="1079"/>
      <point x="886" y="1119" type="curve"/>
      <point x="799" y="1166"/>
      <point x="672" y="1210"/>
      <point x="541" y="1210" type="curve" smooth="yes"/>
      <point x="311" y="1210"/>
      <point x="176" y="1071"/>
      <point x="176" y="903" type="curve" smooth="yes"/>
      <point x="176" y="773"/>
      <point x="252" y="680"/>
      <point x="398" y="630" type="curve" smooth="yes"/>
      <point x="609" y="557" type="line" smooth="yes"/>
      <point x="723" y="518"/>
      <point x="782" y="452"/>
      <point x="780" y="356" type="curve" smooth="yes"/>
      <point x="778" y="245"/>
      <point x="673" y="185"/>
      <point x="537" y="185" type="curve" smooth="yes"/>
      <point x="408" y="185"/>
      <point x="283" y="241"/>
      <point x="195" y="302" type="curve"/>
      <point x="165" y="280"/>
      <point x="134" y="230"/>
      <point x="133" y="187" type="curve"/>
      <point x="222" y="125"/>
      <point x="372" y="63"/>
    </contour>
    <contour>
      <point x="523" y="-123" type="curve" smooth="yes"/>
      <point x="545" y="-123"/>
      <point x="571" y="-121"/>
      <point x="586" y="-117" type="curve"/>
      <point x="586" y="89" type="line"/>
      <point x="458" y="89" type="line"/>
      <point x="458" y="-117" type="line"/>
      <point x="474" y="-121"/>
      <point x="500" y="-123"/>
    </contour>
    <contour>
      <point x="479" y="1173" type="line"/>
      <point x="607" y="1173" type="line"/>
      <point x="607" y="1390" type="line"/>
      <point x="589" y="1394"/>
      <point x="565" y="1396"/>
      <point x="543" y="1396" type="curve" smooth="yes"/>
      <point x="523" y="1396"/>
      <point x="497" y="1394"/>
      <point x="479" y="1390" type="curve"/>
    </contour>
  </outline>
</glyph>
<glyph name="ampersand" format="2">
  <advance width="1202"/>
  <unicode hex="0026"/>
  <outline>
    <contour>
      <point x="956" y="790" type="curve" smooth="yes"/>
      <point x="600" y="790" type="line" smooth="yes"/>
      <point x="406" y="790"/>
      <point x="322" y="894"/>
      <point x="322" y="1032" type="curve" smooth="yes"/>
      <point x="322" y="1170"/>
      <point x="416" y="1268"/>
      <point x="574" y="1268" type="curve" smooth="yes"/>
      <point x="688" y="1268"/>
      <point x="780" y="1244"/>
      <point x="868" y="1218" type="curve" smooth="yes"/>
      <point x="894" y="1246"/>
      <point x="908" y="1296"/>
      <point x="908" y="1336" type="curve"/>
      <point x="828" y="1366"/>
      <point x="700" y="1390"/>
      <point x="578" y="1390" type="curve" smooth="yes"/>
      <point x="314" y="1390"/>
      <point x="170" y="1226"/>
      <point x="170" y="1038" type="curve" smooth="yes"/>
      <point x="170" y="866"/>
      <point x="306" y="724"/>
      <point x="460" y="718" type="curve"/>
      <point x="460" y="746" type="line"/>
      <point x="290" y="742"/>
      <point x="114" y="576"/>
      <point x="114" y="360" type="curve" smooth="yes"/>
      <point x="114" y="136"/>
      <point x="244" y="-24"/>
      <point x="492" y="-24" type="curve" smooth="yes"/>
      <point x="606" y="-24"/>
      <point x="724" y="16"/>
      <point x="818" y="78" type="curve"/>
      <point x="830" y="0" type="line"/>
      <point x="848" y="-4"/>
      <point x="870" y="-6"/>
      <point x="898" y="-6" type="curve" smooth="yes"/>
      <point x="926" y="-6"/>
      <point x="948" y="-4"/>
      <point x="966" y="0" type="curve"/>
      <point x="958" y="87"/>
      <point x="954" y="197"/>
      <point x="954" y="292" type="curve" smooth="yes"/>
      <point x="954" y="540" type="line" smooth="yes"/>
      <point x="954" y="586"/>
      <point x="952" y="676"/>
      <point x="950" y="728" type="curve"/>
      <point x="818" y="728" type="line"/>
      <point x="816" y="676"/>
      <point x="814" y="588"/>
      <point x="814" y="538" type="curve" smooth="yes"/>
      <point x="814" y="202" type="line"/>
      <point x="748" y="146"/>
      <point x="632" y="98"/>
      <point x="514" y="98" type="curve" smooth="yes"/>
      <point x="358" y="98"/>
      <point x="266" y="200"/>
      <point x="266" y="360" type="curve" smooth="yes"/>
      <point x="266" y="492"/>
      <point x="346" y="666"/>
      <point x="582" y="666" type="curve" smooth="yes"/>
      <point x="1026" y="666" type="line" smooth="yes"/>
      <point x="1094" y="666"/>
      <point x="1152" y="678"/>
      <point x="1152" y="746" type="curve" smooth="yes"/>
      <point x="1152" y="768"/>
      <point x="1146" y="798"/>
      <point x="1132" y="816" type="curve"/>
      <point x="1094" y="798"/>
      <point x="1024" y="790"/>
    </contour>
  </outline>
</glyph>
<glyph name="parenleft" format="2">
  <advance width="608"/>
  <unicode hex="0028"/>
  <outline>
    <contour>
      <point x="286" y="552" type="curve" smooth="yes"/>
      <point x="286" y="876"/>
      <point x="374" y="1202"/>
      <point x="582" y="1460" type="curve"/>
      <point x="562" y="1506"/>
      <point x="530" y="1530"/>
      <point x="494" y="1540" type="curve"/>
      <point x="262" y="1308"/>
      <point x="130" y="900"/>
      <point x="130" y="552" type="curve" smooth="yes"/>
      <point x="130" y="204"/>
      <point x="262" y="-204"/>
      <point x="494" y="-436" type="curve"/>
      <point x="530" y="-426"/>
      <point x="562" y="-402"/>
      <point x="582" y="-356" type="curve"/>
      <point x="374" y="-98"/>
      <point x="286" y="228"/>
    </contour>
  </outline>
</glyph>
<glyph name="parenright" format="2">
  <advance width="608"/>
  <unicode hex="0029"/>
  <outline>
    <contour>
      <point x="322" y="552" type="curve" smooth="yes"/>
      <point x="322" y="876"/>
      <point x="234" y="1202"/>
      <point x="26" y="1460" type="curve"/>
      <point x="46" y="1506"/>
      <point x="78" y="1530"/>
      <point x="114" y="1540" type="curve"/>
      <point x="346" y="1308"/>
      <point x="478" y="900"/>
      <point x="478" y="552" type="curve" smooth="yes"/>
      <point x="478" y="204"/>
      <point x="346" y="-204"/>
      <point x="114" y="-436" type="curve"/>
      <point x="78" y="-426"/>
      <point x="46" y="-402"/>
      <point x="26" y="-356" type="curve"/>
      <point x="234" y="-98"/>
      <point x="322" y="228"/>
    </contour>
  </outline>
</glyph>
<glyph name="plus" format="2">
  <advance width="1080"/>
  <unicode hex="002B"/>
  <outline>
    <contour>
      <point x="128" y="686" type="curve"/>
      <point x="400" y="686" type="line" smooth="yes"/>
      <point x="420" y="686"/>
      <point x="460" y="684"/>
      <point x="480" y="684" type="curve" smooth="yes"/>
      <point x="600" y="684" type="line" smooth="yes"/>
      <point x="620" y="684"/>
      <point x="660" y="686"/>
      <point x="680" y="686" type="curve" smooth="yes"/>
      <point x="952" y="686" type="line"/>
      <point x="956" y="666"/>
      <point x="958" y="648"/>
      <point x="958" y="620" type="curve" smooth="yes"/>
      <point x="958" y="594"/>
      <point x="956" y="572"/>
      <point x="952" y="554" type="curve"/>
      <point x="680" y="554" type="line" smooth="yes"/>
      <point x="660" y="554"/>
      <point x="620" y="556"/>
      <point x="600" y="556" type="curve" smooth="yes"/>
      <point x="480" y="556" type="line" smooth="yes"/>
      <point x="460" y="556"/>
      <point x="420" y="554"/>
      <point x="400" y="554" type="curve" smooth="yes"/>
      <point x="128" y="554" type="line"/>
      <point x="124" y="572"/>
      <point x="122" y="594"/>
      <point x="122" y="620" type="curve" smooth="yes"/>
      <point x="122" y="648"/>
      <point x="124" y="666"/>
    </contour>
    <contour>
      <point x="470" y="756" type="curve" smooth="yes"/>
      <point x="470" y="1052" type="line"/>
      <point x="490" y="1056"/>
      <point x="512" y="1058"/>
      <point x="540" y="1058" type="curve" smooth="yes"/>
      <point x="566" y="1058"/>
      <point x="592" y="1056"/>
      <point x="610" y="1052" type="curve"/>
      <point x="610" y="756" type="line" smooth="yes"/>
      <point x="610" y="736"/>
      <point x="608" y="696"/>
      <point x="608" y="676" type="curve" smooth="yes"/>
      <point x="608" y="564" type="line" smooth="yes"/>
      <point x="608" y="544"/>
      <point x="610" y="504"/>
      <point x="610" y="484" type="curve" smooth="yes"/>
      <point x="610" y="188" type="line"/>
      <point x="592" y="184"/>
      <point x="566" y="182"/>
      <point x="540" y="182" type="curve" smooth="yes"/>
      <point x="512" y="182"/>
      <point x="490" y="184"/>
      <point x="470" y="188" type="curve"/>
      <point x="470" y="484" type="line" smooth="yes"/>
      <point x="470" y="504"/>
      <point x="472" y="544"/>
      <point x="472" y="564" type="curve" smooth="yes"/>
      <point x="472" y="676" type="line" smooth="yes"/>
      <point x="472" y="696"/>
      <point x="470" y="736"/>
    </contour>
  </outline>
</glyph>
<glyph name="hyphen" format="2">
  <advance width="666"/>
  <unicode hex="002D"/>
  <outline>
    <contour>
      <point x="106" y="464" type="curve"/>
      <point x="560" y="464" type="line"/>
      <point x="564" y="482"/>
      <point x="566" y="502"/>
      <point x="566" y="528" type="curve" smooth="yes"/>
      <point x="566" y="556"/>
      <point x="564" y="576"/>
      <point x="560" y="596" type="curve"/>
      <point x="106" y="596" type="line"/>
      <point x="102" y="576"/>
      <point x="100" y="556"/>
      <point x="100" y="528" type="curve" smooth="yes"/>
      <point x="100" y="502"/>
      <point x="102" y="482"/>
    </contour>
  </outline>
</glyph>
<glyph name="slash" format="2">
  <advance width="808"/>
  <unicode hex="002F"/>
  <outline>
    <contour>
      <point x="656" y="1414" type="curve"/>
      <point x="22" y="-264" type="line"/>
      <point x="58" y="-292"/>
      <point x="106" y="-310"/>
      <point x="146" y="-310" type="curve"/>
      <point x="780" y="1368" type="line"/>
      <point x="746" y="1394"/>
      <point x="694" y="1412"/>
    </contour>
  </outline>
</glyph>
<glyph name="zero" format="2">
  <advance width="1080"/>
  <unicode hex="0030"/>
  <outline>
    <contour>
      <point x="122" y="633" type="curve" smooth="yes"/>
      <point x="122" y="367"/>
      <point x="152" y="201"/>
      <point x="272" y="80" type="curve" smooth="yes"/>
      <point x="338" y="15"/>
      <point x="418" y="-24"/>
      <point x="540" y="-24" type="curve" smooth="yes"/>
      <point x="662" y="-24"/>
      <point x="742" y="15"/>
      <point x="808" y="80" type="curve" smooth="yes"/>
      <point x="928" y="201"/>
      <point x="958" y="367"/>
      <point x="958" y="633" type="curve" smooth="yes"/>
      <point x="958" y="897"/>
      <point x="928" y="1065"/>
      <point x="808" y="1186" type="curve" smooth="yes"/>
      <point x="742" y="1251"/>
      <point x="664" y="1290"/>
      <point x="542" y="1290" type="curve" smooth="yes"/>
      <point x="418" y="1290"/>
      <point x="336" y="1251"/>
      <point x="272" y="1186" type="curve" smooth="yes"/>
      <point x="150" y="1065"/>
      <point x="122" y="897"/>
    </contour>
    <contour>
      <point x="274" y="633" type="curve" smooth="yes"/>
      <point x="274" y="886"/>
      <point x="300" y="1025"/>
      <point x="376" y="1107" type="curve" smooth="yes"/>
      <point x="416" y="1150"/>
      <point x="468" y="1174"/>
      <point x="540" y="1174" type="curve" smooth="yes"/>
      <point x="612" y="1174"/>
      <point x="664" y="1150"/>
      <point x="704" y="1107" type="curve" smooth="yes"/>
      <point x="780" y="1025"/>
      <point x="806" y="886"/>
      <point x="806" y="633" type="curve" smooth="yes"/>
      <point x="806" y="380"/>
      <point x="780" y="241"/>
      <point x="704" y="159" type="curve" smooth="yes"/>
      <point x="664" y="116"/>
      <point x="612" y="92"/>
      <point x="540" y="92" type="curve" smooth="yes"/>
      <point x="468" y="92"/>
      <point x="416" y="116"/>
      <point x="376" y="159" type="curve" smooth="yes"/>
      <point x="300" y="241"/>
      <point x="274" y="380"/>
    </contour>
  </outline>
</glyph>
<glyph name="one" format="2">
  <advance width="1080"/>
  <unicode hex="0031"/>
  <outline>
    <contour>
      <point x="664" y="244" type="curve" smooth="yes"/>
      <point x="664" y="1266" type="line"/>
      <point x="640" y="1272"/>
      <point x="618" y="1274"/>
      <point x="598" y="1274" type="curve" smooth="yes"/>
      <point x="578" y="1274"/>
      <point x="552" y="1272"/>
      <point x="530" y="1266" type="curve"/>
      <point x="532" y="1100" type="line" smooth="yes"/>
      <point x="532" y="1038"/>
      <point x="524" y="854"/>
      <point x="524" y="794" type="curve" smooth="yes"/>
      <point x="524" y="244" type="line" smooth="yes"/>
      <point x="524" y="190"/>
      <point x="526" y="152"/>
      <point x="526" y="96" type="curve" smooth="yes"/>
      <point x="526" y="56" type="line"/>
      <point x="662" y="56" type="line"/>
      <point x="662" y="96" type="line" smooth="yes"/>
      <point x="662" y="152"/>
      <point x="664" y="190"/>
    </contour>
    <contour>
      <point x="420" y="120" type="curve" smooth="yes"/>
      <point x="224" y="120" type="line"/>
      <point x="220" y="100"/>
      <point x="218" y="80"/>
      <point x="218" y="60" type="curve" smooth="yes"/>
      <point x="218" y="40"/>
      <point x="220" y="22"/>
      <point x="224" y="0" type="curve"/>
      <point x="924" y="0" type="line"/>
      <point x="928" y="22"/>
      <point x="930" y="40"/>
      <point x="930" y="60" type="curve" smooth="yes"/>
      <point x="930" y="80"/>
      <point x="928" y="100"/>
      <point x="924" y="120" type="curve"/>
      <point x="768" y="120" type="line" smooth="yes"/>
      <point x="744" y="120"/>
      <point x="684" y="118"/>
      <point x="658" y="118" type="curve" smooth="yes"/>
      <point x="530" y="118" type="line" smooth="yes"/>
      <point x="504" y="118"/>
      <point x="446" y="120"/>
    </contour>
    <contour>
      <point x="166" y="896" type="curve"/>
      <point x="176" y="858"/>
      <point x="196" y="830"/>
      <point x="228" y="808" type="curve"/>
      <point x="376" y="874"/>
      <point x="542" y="1012"/>
      <point x="588" y="1146" type="curve"/>
      <point x="530" y="1266" type="line"/>
      <point x="488" y="1162"/>
      <point x="358" y="1012"/>
    </contour>
  </outline>
</glyph>
<glyph name="two" format="2">
  <advance width="1080"/>
  <unicode hex="0032"/>
  <outline>
    <contour>
      <point x="154" y="1028" type="curve"/>
      <point x="174" y="992"/>
      <point x="220" y="976"/>
      <point x="256" y="972" type="curve"/>
      <point x="312" y="1090"/>
      <point x="414" y="1172"/>
      <point x="534" y="1172" type="curve" smooth="yes"/>
      <point x="664" y="1172"/>
      <point x="764" y="1084"/>
      <point x="764" y="934" type="curve" smooth="yes"/>
      <point x="764" y="810"/>
      <point x="700" y="729"/>
      <point x="584" y="632" type="curve" smooth="yes"/>
      <point x="402" y="480" type="line" smooth="yes"/>
      <point x="267" y="368"/>
      <point x="138" y="221"/>
      <point x="138" y="104" type="curve" smooth="yes"/>
      <point x="138" y="61"/>
      <point x="172" y="30"/>
      <point x="206" y="0" type="curve"/>
      <point x="280" y="0" type="line"/>
      <point x="280" y="110" type="line" smooth="yes"/>
      <point x="280" y="164"/>
      <point x="354" y="262"/>
      <point x="496" y="382" type="curve" smooth="yes"/>
      <point x="656" y="518" type="line" smooth="yes"/>
      <point x="787" y="630"/>
      <point x="912" y="727"/>
      <point x="912" y="936" type="curve" smooth="yes"/>
      <point x="912" y="1140"/>
      <point x="772" y="1290"/>
      <point x="544" y="1290" type="curve" smooth="yes"/>
      <point x="352" y="1290"/>
      <point x="214" y="1164"/>
    </contour>
    <contour>
      <point x="942" y="128" type="curve"/>
      <point x="516" y="128" type="line" smooth="yes"/>
      <point x="446" y="128"/>
      <point x="268" y="126"/>
      <point x="170" y="104" type="curve"/>
      <point x="216" y="0" type="line"/>
      <point x="842" y="0" type="line" smooth="yes"/>
      <point x="916" y="0"/>
      <point x="942" y="25"/>
    </contour>
  </outline>
</glyph>
<glyph name="three" format="2">
  <advance width="1080"/>
  <unicode hex="0033"/>
  <outline>
    <contour>
      <point x="788" y="404" type="curve" smooth="yes"/>
      <point x="788" y="195"/>
      <point x="650" y="94"/>
      <point x="484" y="94" type="curve" smooth="yes"/>
      <point x="368" y="94"/>
      <point x="274" y="136"/>
      <point x="188" y="198" type="curve"/>
      <point x="158" y="176"/>
      <point x="130" y="132"/>
      <point x="122" y="98" type="curve"/>
      <point x="208" y="28"/>
      <point x="340" y="-24"/>
      <point x="502" y="-24" type="curve" smooth="yes"/>
      <point x="704" y="-24"/>
      <point x="938" y="105"/>
      <point x="938" y="398" type="curve" smooth="yes"/>
      <point x="938" y="657"/>
      <point x="758" y="766"/>
      <point x="562" y="766" type="curve" smooth="yes"/>
      <point x="484" y="766"/>
      <point x="380" y="740"/>
      <point x="314" y="700" type="curve"/>
      <point x="324" y="666"/>
      <point x="350" y="636"/>
      <point x="378" y="622" type="curve"/>
      <point x="420" y="648"/>
      <point x="484" y="662"/>
      <point x="532" y="662" type="curve" smooth="yes"/>
      <point x="694" y="662"/>
      <point x="788" y="568"/>
    </contour>
    <contour>
      <point x="616" y="840" type="curve" smooth="yes"/>
      <point x="862" y="1098" type="line" smooth="yes"/>
      <point x="886" y="1124"/>
      <point x="894" y="1146"/>
      <point x="894" y="1168" type="curve" smooth="yes"/>
      <point x="894" y="1186"/>
      <point x="882" y="1224"/>
      <point x="860" y="1266" type="curve"/>
      <point x="178" y="1266" type="line"/>
      <point x="170" y="1240"/>
      <point x="166" y="1216"/>
      <point x="166" y="1190" type="curve" smooth="yes"/>
      <point x="166" y="1174"/>
      <point x="168" y="1156"/>
      <point x="172" y="1140" type="curve"/>
      <point x="482" y="1140" type="line" smooth="yes"/>
      <point x="570" y="1140"/>
      <point x="690" y="1144"/>
      <point x="736" y="1154" type="curve"/>
      <point x="742" y="1148" type="line"/>
      <point x="706" y="1116"/>
      <point x="632" y="1040"/>
      <point x="606" y="1012" type="curve" smooth="yes"/>
      <point x="314" y="700" type="line"/>
      <point x="406" y="675" type="line"/>
      <point x="465" y="708"/>
      <point x="558" y="780"/>
    </contour>
  </outline>
</glyph>
<glyph name="five" format="2">
  <advance width="1080"/>
  <unicode hex="0035"/>
  <outline>
    <contour>
      <point x="334" y="850" type="curve" smooth="yes"/>
      <point x="342" y="1010" type="line" smooth="yes"/>
      <point x="344" y="1062"/>
      <point x="344" y="1184"/>
      <point x="340" y="1238" type="curve"/>
      <point x="214" y="1254" type="line"/>
      <point x="188" y="662" type="line"/>
      <point x="250" y="672"/>
      <point x="280" y="678"/>
      <point x="314" y="692" type="curve"/>
      <point x="325" y="738"/>
      <point x="332" y="800"/>
    </contour>
    <contour>
      <point x="146" y="96" type="curve"/>
      <point x="224" y="34"/>
      <point x="346" y="-24"/>
      <point x="506" y="-24" type="curve" smooth="yes"/>
      <point x="724" y="-24"/>
      <point x="940" y="119"/>
      <point x="940" y="438" type="curve" smooth="yes"/>
      <point x="940" y="694"/>
      <point x="776" y="838"/>
      <point x="548" y="838" type="curve" smooth="yes"/>
      <point x="402" y="838"/>
      <point x="262" y="760"/>
      <point x="188" y="662" type="curve"/>
      <point x="200" y="644"/>
      <point x="228" y="620"/>
      <point x="254" y="616" type="curve"/>
      <point x="332" y="684"/>
      <point x="428" y="720"/>
      <point x="516" y="720" type="curve" smooth="yes"/>
      <point x="636" y="720"/>
      <point x="790" y="662"/>
      <point x="790" y="428" type="curve" smooth="yes"/>
      <point x="790" y="193"/>
      <point x="648" y="94"/>
      <point x="502" y="94" type="curve" smooth="yes"/>
      <point x="382" y="94"/>
      <point x="292" y="138"/>
      <point x="210" y="194" type="curve"/>
      <point x="180" y="172"/>
      <point x="152" y="130"/>
    </contour>
    <contour>
      <point x="872" y="1266" type="curve"/>
      <point x="226" y="1266" type="line"/>
      <point x="214" y="1254" type="line"/>
      <point x="218" y="1150" type="line"/>
      <point x="266" y="1146"/>
      <point x="352" y="1140"/>
      <point x="458" y="1140" type="curve" smooth="yes"/>
      <point x="816" y="1140" type="line" smooth="yes"/>
      <point x="860" y="1140"/>
      <point x="882" y="1162"/>
      <point x="882" y="1208" type="curve" smooth="yes"/>
      <point x="882" y="1224"/>
      <point x="878" y="1248"/>
    </contour>
  </outline>
</glyph>
<glyph name="six" format="2">
  <advance width="1080"/>
  <unicode hex="0036"/>
  <outline>
    <contour>
      <point x="554" y="-24" type="curve" smooth="yes"/>
      <point x="804" y="-24"/>
      <point x="964" y="168"/>
      <point x="964" y="420" type="curve" smooth="yes"/>
      <point x="964" y="703"/>
      <point x="816" y="842"/>
      <point x="598" y="842" type="curve" smooth="yes"/>
      <point x="432" y="842"/>
      <point x="266" y="732"/>
      <point x="208" y="598" type="curve"/>
      <point x="244" y="512" type="line"/>
      <point x="310" y="634"/>
      <point x="452" y="716"/>
      <point x="564" y="716" type="curve" smooth="yes"/>
      <point x="702" y="716"/>
      <point x="814" y="644"/>
      <point x="814" y="410" type="curve" smooth="yes"/>
      <point x="814" y="216"/>
      <point x="720" y="92"/>
      <point x="556" y="92" type="curve" smooth="yes"/>
      <point x="478" y="92"/>
      <point x="420" y="128"/>
      <point x="380" y="178" type="curve" smooth="yes"/>
      <point x="305" y="275"/>
      <point x="282" y="447"/>
      <point x="282" y="534" type="curve" smooth="yes"/>
      <point x="282" y="684" type="line" smooth="yes"/>
      <point x="282" y="951"/>
      <point x="380" y="1172"/>
      <point x="632" y="1172" type="curve" smooth="yes"/>
      <point x="722" y="1172"/>
      <point x="788" y="1148"/>
      <point x="836" y="1126" type="curve"/>
      <point x="868" y="1146"/>
      <point x="890" y="1194"/>
      <point x="894" y="1230" type="curve"/>
      <point x="832" y="1268"/>
      <point x="730" y="1290"/>
      <point x="628" y="1290" type="curve" smooth="yes"/>
      <point x="298" y="1290"/>
      <point x="134" y="1032"/>
      <point x="134" y="646" type="curve" smooth="yes"/>
      <point x="134" y="239"/>
      <point x="245" y="131"/>
      <point x="280" y="90" type="curve" smooth="yes"/>
      <point x="316" y="50"/>
      <point x="400" y="-24"/>
    </contour>
  </outline>
</glyph>
<glyph name="seven" format="2">
  <advance width="1080"/>
  <unicode hex="0037"/>
  <outline>
    <contour>
      <point x="934" y="1266" type="curve"/>
      <point x="162" y="1266" type="line"/>
      <point x="154" y="1240"/>
      <point x="150" y="1216"/>
      <point x="150" y="1190" type="curve" smooth="yes"/>
      <point x="150" y="1174"/>
      <point x="152" y="1156"/>
      <point x="156" y="1140" type="curve"/>
      <point x="492" y="1140" type="line" smooth="yes"/>
      <point x="540" y="1140"/>
      <point x="770" y="1142"/>
      <point x="816" y="1152" type="curve"/>
      <point x="822" y="1146" type="line"/>
      <point x="574" y="859"/>
      <point x="386" y="451"/>
      <point x="346" y="74" type="curve" smooth="yes"/>
      <point x="338" y="0" type="line"/>
      <point x="356" y="-6"/>
      <point x="386" y="-8"/>
      <point x="412" y="-8" type="curve" smooth="yes"/>
      <point x="440" y="-8"/>
      <point x="468" y="-6"/>
      <point x="488" y="0" type="curve"/>
      <point x="494" y="58" type="line" smooth="yes"/>
      <point x="534" y="441"/>
      <point x="657" y="732"/>
      <point x="928" y="1096" type="curve" smooth="yes"/>
      <point x="955" y="1133"/>
      <point x="962" y="1152"/>
      <point x="962" y="1174" type="curve" smooth="yes"/>
      <point x="962" y="1200"/>
      <point x="950" y="1236"/>
    </contour>
  </outline>
</glyph>
<glyph name="equal" format="2">
  <advance width="1080"/>
  <unicode hex="003D"/>
  <outline>
    <contour>
      <point x="128" y="388" type="curve"/>
      <point x="952" y="388" type="line"/>
      <point x="956" y="406"/>
      <point x="958" y="426"/>
      <point x="958" y="452" type="curve" smooth="yes"/>
      <point x="958" y="480"/>
      <point x="956" y="500"/>
      <point x="952" y="520" type="curve"/>
      <point x="128" y="520" type="line"/>
      <point x="124" y="500"/>
      <point x="122" y="480"/>
      <point x="122" y="452" type="curve" smooth="yes"/>
      <point x="122" y="426"/>
      <point x="124" y="406"/>
    </contour>
    <contour>
      <point x="128" y="726" type="curve"/>
      <point x="952" y="726" type="line"/>
      <point x="956" y="744"/>
      <point x="958" y="764"/>
      <point x="958" y="790" type="curve" smooth="yes"/>
      <point x="958" y="818"/>
      <point x="956" y="838"/>
      <point x="952" y="858" type="curve"/>
      <point x="128" y="858" type="line"/>
      <point x="124" y="838"/>
      <point x="122" y="818"/>
      <point x="122" y="790" type="curve" smooth="yes"/>
      <point x="122" y="764"/>
      <point x="124" y="744"/>
    </contour>
  </outline>
</glyph>
<glyph name="greater" format="2">
  <advance width="1060"/>
  <unicode hex="003E"/>
  <outline>
    <contour>
      <point x="192" y="148" type="curve"/>
      <point x="950" y="560" type="line"/>
      <point x="964" y="598"/>
      <point x="960" y="642"/>
      <point x="950" y="680" type="curve"/>
      <point x="192" y="1092" type="line"/>
      <point x="162" y="1070"/>
      <point x="132" y="1030"/>
      <point x="126" y="980" type="curve"/>
      <point x="670" y="692" type="line" smooth="yes"/>
      <point x="704" y="674"/>
      <point x="776" y="640"/>
      <point x="802" y="626" type="curve"/>
      <point x="802" y="614" type="line"/>
      <point x="776" y="600"/>
      <point x="704" y="566"/>
      <point x="670" y="548" type="curve" smooth="yes"/>
      <point x="126" y="260" type="line"/>
      <point x="132" y="210"/>
      <point x="162" y="170"/>
    </contour>
  </outline>
</glyph>
<glyph name="question" format="2">
  <advance width="760"/>
  <unicode hex="003F"/>
  <outline>
    <contour>
      <point x="34" y="1296" type="curve"/>
      <point x="38" y="1254"/>
      <point x="64" y="1206"/>
      <point x="86" y="1184" type="curve"/>
      <point x="172" y="1226"/>
      <point x="270" y="1260"/>
      <point x="366" y="1260" type="curve" smooth="yes"/>
      <point x="502" y="1260"/>
      <point x="588" y="1176"/>
      <point x="588" y="1050" type="curve" smooth="yes"/>
      <point x="588" y="916"/>
      <point x="484" y="820"/>
      <point x="322" y="734" type="curve" smooth="yes"/>
      <point x="232" y="686" type="line"/>
      <point x="220" y="668" type="line"/>
      <point x="228" y="370" type="line"/>
      <point x="244" y="364"/>
      <point x="266" y="362"/>
      <point x="286" y="362" type="curve" smooth="yes"/>
      <point x="304" y="362"/>
      <point x="322" y="364"/>
      <point x="338" y="370" type="curve"/>
      <point x="352" y="606" type="line"/>
      <point x="480" y="680" type="line" smooth="yes"/>
      <point x="624" y="764"/>
      <point x="740" y="886"/>
      <point x="740" y="1062" type="curve" smooth="yes"/>
      <point x="740" y="1264"/>
      <point x="596" y="1388"/>
      <point x="396" y="1388" type="curve" smooth="yes"/>
      <point x="268" y="1388"/>
      <point x="140" y="1350"/>
    </contour>
    <contour>
      <point x="284" y="182" type="curve" smooth="yes"/>
      <point x="250" y="182"/>
      <point x="214" y="174"/>
      <point x="194" y="162" type="curve"/>
      <point x="186" y="148"/>
      <point x="180" y="106"/>
      <point x="180" y="84" type="curve" smooth="yes"/>
      <point x="180" y="62"/>
      <point x="186" y="20"/>
      <point x="194" y="6" type="curve"/>
      <point x="214" y="-6"/>
      <point x="250" y="-14"/>
      <point x="284" y="-14" type="curve" smooth="yes"/>
      <point x="316" y="-14"/>
      <point x="356" y="-6"/>
      <point x="376" y="6" type="curve"/>
      <point x="384" y="20"/>
      <point x="390" y="62"/>
      <point x="390" y="84" type="curve" smooth="yes"/>
      <point x="390" y="106"/>
      <point x="384" y="148"/>
      <point x="376" y="162" type="curve"/>
      <point x="356" y="174"/>
      <point x="316" y="182"/>
    </contour>
  </outline>
</glyph>
<glyph name="A" format="2">
  <advance width="1189"/>
  <unicode hex="0041"/>
  <anchor x="595" y="0" name="bottom"/>
  <anchor x="1134" y="8" name="ogonek"/>
  <anchor x="594" y="1464" name="top"/>
  <outline>
    <contour>
      <point x="512" y="1366" type="curve"/>
      <point x="54" y="8" type="line"/>
      <point x="58" y="2" type="line"/>
      <point x="80" y="-4"/>
      <point x="98" y="-8"/>
      <point x="128" y="-8" type="curve" smooth="yes"/>
      <point x="150" y="-8"/>
      <point x="174" y="-6"/>
      <point x="192" y="-2" type="curve"/>
      <point x="514" y="978" type="line" smooth="yes"/>
      <point x="530" y="1028"/>
      <point x="560" y="1132"/>
      <point x="580" y="1208" type="curve"/>
      <point x="590" y="1208" type="line"/>
      <point x="614" y="1120"/>
      <point x="652" y="996"/>
      <point x="692" y="878" type="curve" smooth="yes"/>
      <point x="962" y="62" type="line" smooth="yes"/>
      <point x="982" y="4"/>
      <point x="1002" y="-12"/>
      <point x="1048" y="-12" type="curve" smooth="yes"/>
      <point x="1084" y="-12"/>
      <point x="1112" y="-6"/>
      <point x="1134" y="8" type="curve"/>
      <point x="674" y="1366" type="line"/>
      <point x="658" y="1370"/>
      <point x="618" y="1372"/>
      <point x="596" y="1372" type="curve" smooth="yes"/>
      <point x="572" y="1372"/>
      <point x="534" y="1370"/>
    </contour>
    <contour>
      <point x="452" y="358" type="curve" smooth="yes"/>
      <point x="720" y="358" type="line" smooth="yes"/>
      <point x="732" y="358"/>
      <point x="862" y="360"/>
      <point x="876" y="360" type="curve" smooth="yes"/>
      <point x="930" y="360" type="line"/>
      <point x="888" y="484" type="line"/>
      <point x="840" y="484" type="line" smooth="yes"/>
      <point x="826" y="484"/>
      <point x="716" y="486"/>
      <point x="704" y="486" type="curve" smooth="yes"/>
      <point x="470" y="486" type="line" smooth="yes"/>
      <point x="458" y="486"/>
      <point x="352" y="484"/>
      <point x="338" y="484" type="curve" smooth="yes"/>
      <point x="290" y="484" type="line"/>
      <point x="244" y="360" type="line"/>
      <point x="298" y="360" type="line" smooth="yes"/>
      <point x="312" y="360"/>
      <point x="440" y="358"/>
    </contour>
  </outline>
</glyph>
<glyph name="B" format="2">
  <advance width="1198"/>
  <unicode hex="0042"/>
  <anchor x="590" y="0" name="bottom"/>
  <anchor x="556" y="1464" name="top"/>
  <outline>
    <contour>
      <point x="212" y="1366" type="curve"/>
      <point x="200" y="1354" type="line"/>
      <point x="200" y="12" type="line"/>
      <point x="212" y="0" type="line"/>
      <point x="350" y="-2"/>
      <point x="454" y="-6"/>
      <point x="620" y="-6" type="curve" smooth="yes"/>
      <point x="970" y="-6"/>
      <point x="1082" y="190"/>
      <point x="1082" y="376" type="curve" smooth="yes"/>
      <point x="1082" y="590"/>
      <point x="910" y="738"/>
      <point x="742" y="738" type="curve"/>
      <point x="742" y="710" type="line"/>
      <point x="910" y="728"/>
      <point x="1016" y="856"/>
      <point x="1016" y="1012" type="curve" smooth="yes"/>
      <point x="1016" y="1220"/>
      <point x="904" y="1372"/>
      <point x="598" y="1372" type="curve" smooth="yes"/>
      <point x="472" y="1372"/>
      <point x="350" y="1368"/>
    </contour>
    <contour>
      <point x="344" y="114" type="curve"/>
      <point x="344" y="1252" type="line"/>
      <point x="418" y="1250"/>
      <point x="534" y="1250"/>
      <point x="602" y="1250" type="curve" smooth="yes"/>
      <point x="826" y="1250"/>
      <point x="864" y="1126"/>
      <point x="864" y="1016" type="curve" smooth="yes"/>
      <point x="864" y="910"/>
      <point x="818" y="780"/>
      <point x="596" y="780" type="curve" smooth="yes"/>
      <point x="284" y="780" type="line"/>
      <point x="284" y="656" type="line"/>
      <point x="614" y="656" type="line" smooth="yes"/>
      <point x="864" y="656"/>
      <point x="930" y="494"/>
      <point x="930" y="386" type="curve" smooth="yes"/>
      <point x="930" y="274"/>
      <point x="884" y="116"/>
      <point x="634" y="116" type="curve" smooth="yes"/>
      <point x="538" y="116"/>
      <point x="440" y="114"/>
    </contour>
  </outline>
</glyph>
<glyph name="C" format="2">
  <advance width="1200"/>
  <unicode hex="0043"/>
  <anchor x="632" y="0" name="bottom"/>
  <anchor x="636" y="1466" name="top"/>
  <outline>
    <contour>
      <point x="956" y="940" type="curve"/>
      <point x="984" y="932"/>
      <point x="998" y="930"/>
      <point x="1022" y="930" type="curve" smooth="yes"/>
      <point x="1090" y="930"/>
      <point x="1102" y="976"/>
      <point x="1102" y="1016" type="curve" smooth="yes"/>
      <point x="1102" y="1196"/>
      <point x="928" y="1390"/>
      <point x="640" y="1390" type="curve" smooth="yes"/>
      <point x="360" y="1390"/>
      <point x="116" y="1170"/>
      <point x="116" y="676" type="curve" smooth="yes"/>
      <point x="116" y="314"/>
      <point x="256" y="-24"/>
      <point x="616" y="-24" type="curve" smooth="yes"/>
      <point x="810" y="-24"/>
      <point x="978" y="60"/>
      <point x="1084" y="168" type="curve"/>
      <point x="1072" y="202"/>
      <point x="1040" y="240"/>
      <point x="1004" y="262" type="curve"/>
      <point x="874" y="148"/>
      <point x="752" y="102"/>
      <point x="636" y="102" type="curve" smooth="yes"/>
      <point x="408" y="102"/>
      <point x="268" y="316"/>
      <point x="268" y="676" type="curve" smooth="yes"/>
      <point x="268" y="1064"/>
      <point x="404" y="1268"/>
      <point x="640" y="1268" type="curve" smooth="yes"/>
      <point x="880" y="1268"/>
      <point x="956" y="1082"/>
    </contour>
  </outline>
</glyph>
<glyph name="E" format="2">
  <advance width="1124"/>
  <unicode hex="0045"/>
  <anchor x="614" y="0" name="bottom"/>
  <anchor x="916" y="0" name="ogonek"/>
  <anchor x="598" y="1464" name="top"/>
  <outline>
    <contour>
      <point x="200" y="1354" type="line"/>
      <point x="200" y="96" type="line" smooth="yes"/>
      <point x="200" y="36"/>
      <point x="232" y="0"/>
      <point x="282" y="0" type="curve" smooth="yes"/>
      <point x="338" y="0" type="line"/>
      <point x="338" y="120" type="line" smooth="yes"/>
      <point x="338" y="148"/>
      <point x="340" y="168"/>
      <point x="340" y="194" type="curve" smooth="yes"/>
      <point x="340" y="1120" type="line" smooth="yes"/>
      <point x="340" y="1174"/>
      <point x="338" y="1192"/>
      <point x="338" y="1248" type="curve" smooth="yes"/>
      <point x="338" y="1366" type="line"/>
      <point x="212" y="1366" type="line"/>
    </contour>
    <contour>
      <point x="878" y="754" type="curve"/>
      <point x="458" y="754" type="line" smooth="yes"/>
      <point x="414" y="754"/>
      <point x="348" y="752"/>
      <point x="290" y="752" type="curve"/>
      <point x="290" y="632" type="line"/>
      <point x="348" y="632"/>
      <point x="414" y="630"/>
      <point x="458" y="630" type="curve" smooth="yes"/>
      <point x="878" y="630" type="line"/>
      <point x="882" y="652"/>
      <point x="884" y="676"/>
      <point x="884" y="692" type="curve" smooth="yes"/>
      <point x="884" y="708"/>
      <point x="882" y="732"/>
    </contour>
    <contour>
      <point x="980" y="1366" type="curve"/>
      <point x="290" y="1366" type="line"/>
      <point x="290" y="1244" type="line"/>
      <point x="348" y="1242"/>
      <point x="414" y="1242"/>
      <point x="458" y="1242" type="curve" smooth="yes"/>
      <point x="974" y="1242" type="line"/>
      <point x="982" y="1264"/>
      <point x="984" y="1292"/>
      <point x="984" y="1308" type="curve" smooth="yes"/>
      <point x="984" y="1324"/>
      <point x="984" y="1344"/>
    </contour>
    <contour>
      <point x="1012" y="126" type="curve"/>
      <point x="460" y="126" type="line" smooth="yes"/>
      <point x="388" y="126"/>
      <point x="340" y="122"/>
      <point x="290" y="118" type="curve"/>
      <point x="290" y="0" type="line"/>
      <point x="916" y="0" type="line" smooth="yes"/>
      <point x="984" y="0"/>
      <point x="1012" y="26"/>
    </contour>
  </outline>
</glyph>
<glyph name="F" format="2">
  <advance width="1026"/>
  <unicode hex="0046"/>
  <anchor x="598" y="1464" name="top"/>
  <outline>
    <contour>
      <point x="344" y="0" type="curve"/>
      <point x="344" y="958" type="line" smooth="yes"/>
      <point x="344" y="1056"/>
      <point x="342" y="1156"/>
      <point x="342" y="1254" type="curve" smooth="yes"/>
      <point x="342" y="1366" type="line"/>
      <point x="212" y="1366" type="line"/>
      <point x="200" y="1354" type="line"/>
      <point x="200" y="0" type="line"/>
      <point x="218" y="-4"/>
      <point x="244" y="-6"/>
      <point x="270" y="-6" type="curve" smooth="yes"/>
      <point x="298" y="-6"/>
      <point x="324" y="-4"/>
    </contour>
    <contour>
      <point x="964" y="1366" type="curve"/>
      <point x="290" y="1366" type="line"/>
      <point x="290" y="1248" type="line"/>
      <point x="358" y="1242"/>
      <point x="448" y="1240"/>
      <point x="564" y="1240" type="curve" smooth="yes"/>
      <point x="886" y="1240" type="line" smooth="yes"/>
      <point x="946" y="1240"/>
      <point x="974" y="1260"/>
      <point x="974" y="1306" type="curve" smooth="yes"/>
      <point x="974" y="1326"/>
      <point x="970" y="1348"/>
    </contour>
    <contour>
      <point x="868" y="754" type="curve"/>
      <point x="458" y="754" type="line" smooth="yes"/>
      <point x="414" y="754"/>
      <point x="348" y="752"/>
      <point x="290" y="752" type="curve"/>
      <point x="290" y="632" type="line"/>
      <point x="348" y="632"/>
      <point x="414" y="630"/>
      <point x="458" y="630" type="curve" smooth="yes"/>
      <point x="868" y="630" type="line"/>
      <point x="872" y="652"/>
      <point x="874" y="676"/>
      <point x="874" y="692" type="curve" smooth="yes"/>
      <point x="874" y="708"/>
      <point x="872" y="732"/>
    </contour>
  </outline>
</glyph>
<glyph name="H" format="2">
  <advance width="1334"/>
  <unicode hex="0048"/>
  <anchor x="667" y="0" name="bottom"/>
  <anchor x="666" y="1464" name="top"/>
  <outline>
    <contour>
      <point x="464" y="642" type="curve" smooth="yes"/>
      <point x="870" y="642" type="line"/>
      <point x="882" y="642"/>
      <point x="978" y="644"/>
      <point x="992" y="644" type="curve" smooth="yes"/>
      <point x="1020" y="644"/>
      <point x="1048" y="642"/>
      <point x="1076" y="642" type="curve"/>
      <point x="1076" y="770" type="line"/>
      <point x="1048" y="770"/>
      <point x="1020" y="768"/>
      <point x="992" y="768" type="curve" smooth="yes"/>
      <point x="978" y="768"/>
      <point x="882" y="770"/>
      <point x="870" y="770" type="curve" smooth="yes"/>
      <point x="464" y="770" type="line" smooth="yes"/>
      <point x="452" y="770"/>
      <point x="356" y="768"/>
      <point x="342" y="768" type="curve" smooth="yes"/>
      <point x="314" y="768"/>
      <point x="286" y="770"/>
      <point x="258" y="770" type="curve"/>
      <point x="258" y="642" type="line"/>
      <point x="286" y="642"/>
      <point x="314" y="644"/>
      <point x="342" y="644" type="curve" smooth="yes"/>
      <point x="356" y="644"/>
      <point x="452" y="642"/>
    </contour>
    <contour>
      <point x="344" y="0" type="curve"/>
      <point x="344" y="496" type="line" smooth="yes"/>
      <point x="344" y="552"/>
      <point x="342" y="590"/>
      <point x="342" y="644" type="curve" smooth="yes"/>
      <point x="342" y="768" type="line" smooth="yes"/>
      <point x="342" y="822"/>
      <point x="344" y="860"/>
      <point x="344" y="916" type="curve" smooth="yes"/>
      <point x="344" y="1366" type="line"/>
      <point x="324" y="1370"/>
      <point x="298" y="1372"/>
      <point x="270" y="1372" type="curve" smooth="yes"/>
      <point x="244" y="1372"/>
      <point x="218" y="1370"/>
      <point x="200" y="1366" type="curve"/>
      <point x="200" y="0" type="line"/>
      <point x="218" y="-4"/>
      <point x="244" y="-6"/>
      <point x="270" y="-6" type="curve" smooth="yes"/>
      <point x="298" y="-6"/>
      <point x="324" y="-4"/>
    </contour>
    <contour>
      <point x="990" y="496" type="curve" smooth="yes"/>
      <point x="990" y="0" type="line"/>
      <point x="1008" y="-4"/>
      <point x="1034" y="-6"/>
      <point x="1060" y="-6" type="curve" smooth="yes"/>
      <point x="1088" y="-6"/>
      <point x="1114" y="-4"/>
      <point x="1134" y="0" type="curve"/>
      <point x="1134" y="1366" type="line"/>
      <point x="1114" y="1370"/>
      <point x="1088" y="1372"/>
      <point x="1060" y="1372" type="curve" smooth="yes"/>
      <point x="1034" y="1372"/>
      <point x="1008" y="1370"/>
      <point x="990" y="1366" type="curve"/>
      <point x="990" y="916" type="line" smooth="yes"/>
      <point x="990" y="860"/>
      <point x="992" y="822"/>
      <point x="992" y="768" type="curve" smooth="yes"/>
      <point x="992" y="644" type="line" smooth="yes"/>
      <point x="992" y="590"/>
      <point x="990" y="552"/>
    </contour>
  </outline>
</glyph>
<glyph name="I" format="2">
  <advance width="560"/>
  <unicode hex="0049"/>
  <anchor x="278" y="0" name="bottom"/>
  <anchor x="352" y="0" name="ogonek"/>
  <anchor x="280" y="1464" name="top"/>
  <outline>
    <contour>
      <point x="208" y="1366" type="curve"/>
      <point x="208" y="0" type="line"/>
      <point x="226" y="-4"/>
      <point x="252" y="-6"/>
      <point x="278" y="-6" type="curve" smooth="yes"/>
      <point x="306" y="-6"/>
      <point x="332" y="-4"/>
      <point x="352" y="0" type="curve"/>
      <point x="352" y="1366" type="line"/>
      <point x="332" y="1370"/>
      <point x="306" y="1372"/>
      <point x="278" y="1372" type="curve" smooth="yes"/>
      <point x="252" y="1372"/>
      <point x="226" y="1370"/>
    </contour>
  </outline>
</glyph>
<glyph name="L" format="2">
  <advance width="1010"/>
  <unicode hex="004C"/>
  <anchor x="578" y="0" name="bottom"/>
  <anchor x="1009" y="786" name="periodcentered"/>
  <anchor x="270" y="1464" name="top"/>
  <anchor x="458" y="870" name="topright"/>
  <outline>
    <contour>
      <point x="344" y="0" type="line"/>
      <point x="344" y="1278" type="line" smooth="yes"/>
      <point x="344" y="1340"/>
      <point x="334" y="1372"/>
      <point x="270" y="1372" type="curve" smooth="yes"/>
      <point x="212" y="1372" type="line"/>
      <point x="200" y="1360" type="line"/>
      <point x="200" y="98" type="line" smooth="yes"/>
      <point x="200" y="32"/>
      <point x="238" y="0"/>
      <point x="284" y="0" type="curve" smooth="yes"/>
    </contour>
    <contour>
      <point x="946" y="128" type="curve"/>
      <point x="516" y="128" type="line" smooth="yes"/>
      <point x="426" y="128"/>
      <point x="304" y="122"/>
      <point x="214" y="108" type="curve"/>
      <point x="284" y="0" type="line"/>
      <point x="850" y="0" type="line" smooth="yes"/>
      <point x="917" y="0"/>
      <point x="946" y="23"/>
    </contour>
  </outline>
</glyph>
<glyph name="M" format="2">
  <advance width="1582"/>
  <unicode hex="004D"/>
  <anchor x="791" y="0" name="bottom"/>
  <anchor x="790" y="1464" name="top"/>
  <outline>
    <contour>
      <point x="278" y="1366" type="curve"/>
      <point x="172" y="2" type="line"/>
      <point x="190" y="-4"/>
      <point x="218" y="-8"/>
      <point x="242" y="-8" type="curve" smooth="yes"/>
      <point x="266" y="-8"/>
      <point x="290" y="-6"/>
      <point x="312" y="-2" type="curve"/>
      <point x="370" y="842" type="line" smooth="yes"/>
      <point x="376" y="930"/>
      <point x="380" y="1102"/>
      <point x="386" y="1214" type="curve"/>
      <point x="396" y="1214" type="line"/>
      <point x="720" y="214" type="line"/>
      <point x="740" y="210"/>
      <point x="764" y="208"/>
      <point x="790" y="208" type="curve" smooth="yes"/>
      <point x="814" y="208"/>
      <point x="840" y="210"/>
      <point x="862" y="214" type="curve"/>
      <point x="1186" y="1214" type="line"/>
      <point x="1196" y="1214" type="line"/>
      <point x="1200" y="1102"/>
      <point x="1206" y="930"/>
      <point x="1212" y="842" type="curve" smooth="yes"/>
      <point x="1270" y="-2" type="line"/>
      <point x="1292" y="-6"/>
      <point x="1312" y="-8"/>
      <point x="1336" y="-8" type="curve" smooth="yes"/>
      <point x="1360" y="-8"/>
      <point x="1390" y="-4"/>
      <point x="1410" y="2" type="curve"/>
      <point x="1304" y="1366" type="line"/>
      <point x="1264" y="1372"/>
      <point x="1224" y="1372"/>
      <point x="1206" y="1372" type="curve" smooth="yes"/>
      <point x="1186" y="1372"/>
      <point x="1154" y="1372"/>
      <point x="1114" y="1366" type="curve"/>
      <point x="878" y="652" type="line" smooth="yes"/>
      <point x="854" y="582"/>
      <point x="800" y="390"/>
      <point x="796" y="364" type="curve"/>
      <point x="786" y="364" type="line"/>
      <point x="782" y="390"/>
      <point x="728" y="582"/>
      <point x="704" y="652" type="curve" smooth="yes"/>
      <point x="468" y="1366" type="line"/>
      <point x="434" y="1372"/>
      <point x="396" y="1372"/>
      <point x="376" y="1372" type="curve" smooth="yes"/>
      <point x="358" y="1372"/>
      <point x="314" y="1372"/>
    </contour>
  </outline>
</glyph>
<glyph name="O" format="2">
  <advance width="1304"/>
  <unicode hex="004F"/>
  <anchor x="652" y="0" name="bottom"/>
  <anchor x="836" y="8" name="ogonek"/>
  <anchor x="652" y="1464" name="top"/>
  <anchor x="996" y="1346" name="topright"/>
  <outline>
    <contour>
      <point x="268" y="684" type="curve" smooth="yes"/>
      <point x="268" y="946"/>
      <point x="342" y="1268"/>
      <point x="652" y="1268" type="curve" smooth="yes"/>
      <point x="962" y="1268"/>
      <point x="1034" y="946"/>
      <point x="1034" y="684" type="curve" smooth="yes"/>
      <point x="1034" y="422"/>
      <point x="962" y="98"/>
      <point x="652" y="98" type="curve" smooth="yes"/>
      <point x="342" y="98"/>
      <point x="268" y="422"/>
    </contour>
    <contour>
      <point x="116" y="684" type="curve" smooth="yes"/>
      <point x="116" y="297"/>
      <point x="285" y="-24"/>
      <point x="652" y="-24" type="curve" smooth="yes"/>
      <point x="1017" y="-24"/>
      <point x="1188" y="294"/>
      <point x="1188" y="684" type="curve" smooth="yes"/>
      <point x="1188" y="1070"/>
      <point x="1018" y="1390"/>
      <point x="652" y="1390" type="curve" smooth="yes"/>
      <point x="288" y="1390"/>
      <point x="116" y="1072"/>
    </contour>
  </outline>
</glyph>
<glyph name="P" format="2">
  <advance width="1108"/>
  <unicode hex="0050"/>
  <anchor x="576" y="1464" name="top"/>
  <outline>
    <contour>
      <point x="1028" y="946" type="curve" smooth="yes"/>
      <point x="1028" y="1228"/>
      <point x="844" y="1372"/>
      <point x="590" y="1372" type="curve" smooth="yes"/>
      <point x="464" y="1372"/>
      <point x="350" y="1368"/>
      <point x="212" y="1366" type="curve"/>
      <point x="200" y="1354" type="line"/>
      <point x="200" y="0" type="line"/>
      <point x="218" y="-4"/>
      <point x="244" y="-6"/>
      <point x="270" y="-6" type="curve" smooth="yes"/>
      <point x="298" y="-6"/>
      <point x="324" y="-4"/>
      <point x="344" y="0" type="curve"/>
      <point x="344" y="1252" type="line"/>
      <point x="418" y="1250"/>
      <point x="528" y="1250"/>
      <point x="596" y="1250" type="curve" smooth="yes"/>
      <point x="820" y="1250"/>
      <point x="874" y="1086"/>
      <point x="874" y="946" type="curve" smooth="yes"/>
      <point x="874" y="810"/>
      <point x="820" y="640"/>
      <point x="596" y="640" type="curve" smooth="yes"/>
      <point x="528" y="640"/>
      <point x="358" y="640"/>
      <point x="284" y="638" type="curve"/>
      <point x="284" y="518" type="line"/>
      <point x="590" y="518" type="line" smooth="yes"/>
      <point x="848" y="518"/>
      <point x="1028" y="666"/>
    </contour>
  </outline>
</glyph>
<glyph name="Q" format="2">
  <advance width="1280"/>
  <unicode hex="0051"/>
  <outline>
    <contour>
      <point x="268" y="684" type="curve" smooth="yes"/>
      <point x="268" y="950"/>
      <point x="330" y="1268"/>
      <point x="640" y="1268" type="curve" smooth="yes"/>
      <point x="950" y="1268"/>
      <point x="1010" y="950"/>
      <point x="1010" y="684" type="curve" smooth="yes"/>
      <point x="1010" y="418"/>
      <point x="950" y="104"/>
      <point x="640" y="104" type="curve" smooth="yes"/>
      <point x="330" y="104"/>
      <point x="268" y="418"/>
    </contour>
    <contour>
      <point x="116" y="684" type="curve" smooth="yes"/>
      <point x="116" y="282"/>
      <point x="265" y="-24"/>
      <point x="652" y="-24" type="curve" smooth="yes"/>
      <point x="716" y="-24"/>
      <point x="732" y="-8"/>
      <point x="766" y="8" type="curve" smooth="yes"/>
      <point x="1037" y="16"/>
      <point x="1164" y="373"/>
      <point x="1164" y="684" type="curve" smooth="yes"/>
      <point x="1164" y="1077"/>
      <point x="1014" y="1390"/>
      <point x="640" y="1390" type="curve" smooth="yes"/>
      <point x="268" y="1390"/>
      <point x="116" y="1080"/>
    </contour>
    <contour>
      <point x="612" y="26" type="line"/>
      <point x="928" y="-196" type="line" smooth="yes"/>
      <point x="964" y="-220"/>
      <point x="998" y="-234"/>
      <point x="1044" y="-234" type="curve" smooth="yes"/>
      <point x="1090" y="-234"/>
      <point x="1144" y="-206"/>
      <point x="1150" y="-126" type="curve"/>
      <point x="1088" y="-124"/>
      <point x="1036" y="-104"/>
      <point x="896" y="-4" type="curve" smooth="yes"/>
      <point x="782" y="78" type="line"/>
    </contour>
  </outline>
</glyph>
<glyph name="R" format="2">
  <advance width="1182"/>
  <unicode hex="0052"/>
  <anchor x="606" y="0" name="bottom"/>
  <anchor x="590" y="1464" name="top"/>
  <outline>
    <contour>
      <point x="1044" y="978" type="curve" smooth="yes"/>
      <point x="1044" y="1220"/>
      <point x="890" y="1372"/>
      <point x="612" y="1372" type="curve" smooth="yes"/>
      <point x="486" y="1372"/>
      <point x="350" y="1368"/>
      <point x="212" y="1366" type="curve"/>
      <point x="200" y="1354" type="line"/>
      <point x="200" y="0" type="line"/>
      <point x="218" y="-4"/>
      <point x="244" y="-6"/>
      <point x="270" y="-6" type="curve" smooth="yes"/>
      <point x="298" y="-6"/>
      <point x="324" y="-4"/>
      <point x="344" y="0" type="curve"/>
      <point x="344" y="1252" type="line"/>
      <point x="418" y="1250"/>
      <point x="544" y="1250"/>
      <point x="612" y="1250" type="curve" smooth="yes"/>
      <point x="836" y="1250"/>
      <point x="892" y="1110"/>
      <point x="892" y="978" type="curve" smooth="yes"/>
      <point x="892" y="850"/>
      <point x="836" y="706"/>
      <point x="612" y="706" type="curve" smooth="yes"/>
      <point x="512" y="706"/>
      <point x="378" y="704"/>
      <point x="284" y="700" type="curve"/>
      <point x="284" y="580" type="line"/>
      <point x="558" y="580" type="line" smooth="yes"/>
      <point x="694" y="580"/>
      <point x="742" y="500"/>
      <point x="782" y="394" type="curve" smooth="yes"/>
      <point x="900" y="84" type="line" smooth="yes"/>
      <point x="924" y="22"/>
      <point x="946" y="-12"/>
      <point x="1004" y="-12" type="curve" smooth="yes"/>
      <point x="1036" y="-12"/>
      <point x="1084" y="2"/>
      <point x="1104" y="36" type="curve"/>
      <point x="1072" y="61"/>
      <point x="1054" y="89"/>
      <point x="1020" y="178" type="curve" smooth="yes"/>
      <point x="914" y="454" type="line" smooth="yes"/>
      <point x="886" y="526"/>
      <point x="840" y="594"/>
      <point x="780" y="614" type="curve"/>
      <point x="944" y="662"/>
      <point x="1044" y="798"/>
    </contour>
  </outline>
</glyph>
<glyph name="S" format="2">
  <advance width="1110"/>
  <unicode hex="0053"/>
  <anchor x="556" y="0" name="bottom"/>
  <anchor x="565" y="1464" name="top"/>
  <outline>
    <contour>
      <point x="80" y="126" type="curve"/>
      <point x="204" y="36"/>
      <point x="374" y="-24"/>
      <point x="542" y="-24" type="curve" smooth="yes"/>
      <point x="860" y="-24"/>
      <point x="1010" y="138"/>
      <point x="1010" y="360" type="curve" smooth="yes"/>
      <point x="1010" y="544"/>
      <point x="868" y="655"/>
      <point x="712" y="720" type="curve" smooth="yes"/>
      <point x="478" y="818" type="line" smooth="yes"/>
      <point x="372" y="862"/>
      <point x="280" y="922"/>
      <point x="280" y="1034" type="curve" smooth="yes"/>
      <point x="280" y="1172"/>
      <point x="400" y="1266"/>
      <point x="570" y="1266" type="curve" smooth="yes"/>
      <point x="670" y="1266"/>
      <point x="794" y="1228"/>
      <point x="900" y="1174" type="curve"/>
      <point x="934" y="1202"/>
      <point x="958" y="1252"/>
      <point x="958" y="1294" type="curve"/>
      <point x="854" y="1344"/>
      <point x="716" y="1390"/>
      <point x="564" y="1390" type="curve" smooth="yes"/>
      <point x="298" y="1390"/>
      <point x="134" y="1220"/>
      <point x="134" y="1022" type="curve" smooth="yes"/>
      <point x="134" y="864"/>
      <point x="232" y="760"/>
      <point x="402" y="688" type="curve" smooth="yes"/>
      <point x="644" y="586" type="line" smooth="yes"/>
      <point x="764" y="535"/>
      <point x="862" y="454"/>
      <point x="862" y="328" type="curve" smooth="yes"/>
      <point x="862" y="188"/>
      <point x="738" y="104"/>
      <point x="548" y="104" type="curve" smooth="yes"/>
      <point x="414" y="104"/>
      <point x="266" y="160"/>
      <point x="148" y="242" type="curve"/>
      <point x="116" y="218"/>
      <point x="84" y="170"/>
    </contour>
  </outline>
</glyph>
<glyph name="T" format="2">
  <advance width="962"/>
  <unicode hex="0054"/>
  <anchor x="483" y="0" name="bottom"/>
  <anchor x="481" y="1464" name="top"/>
  <outline>
    <contour>
      <point x="45" y="1242" type="curve"/>
      <point x="303" y="1242" type="line" smooth="yes"/>
      <point x="329" y="1242"/>
      <point x="385" y="1244"/>
      <point x="411" y="1244" type="curve" smooth="yes"/>
      <point x="555" y="1244" type="line" smooth="yes"/>
      <point x="581" y="1244"/>
      <point x="639" y="1242"/>
      <point x="663" y="1242" type="curve" smooth="yes"/>
      <point x="841" y="1242" type="line" smooth="yes"/>
      <point x="901" y="1242"/>
      <point x="929" y="1260"/>
      <point x="929" y="1306" type="curve" smooth="yes"/>
      <point x="929" y="1326"/>
      <point x="925" y="1348"/>
      <point x="919" y="1366" type="curve"/>
      <point x="45" y="1366" type="line"/>
      <point x="41" y="1344"/>
      <point x="39" y="1324"/>
      <point x="39" y="1304" type="curve" smooth="yes"/>
      <point x="39" y="1284"/>
      <point x="41" y="1262"/>
    </contour>
    <contour>
      <point x="411" y="1096" type="curve" smooth="yes"/>
      <point x="411" y="0" type="line"/>
      <point x="431" y="-4"/>
      <point x="459" y="-6"/>
      <point x="483" y="-6" type="curve" smooth="yes"/>
      <point x="507" y="-6"/>
      <point x="535" y="-4"/>
      <point x="555" y="0" type="curve"/>
      <point x="555" y="1096" type="line" smooth="yes"/>
      <point x="555" y="1150"/>
      <point x="555" y="1188"/>
      <point x="555" y="1244" type="curve" smooth="yes"/>
      <point x="555" y="1304" type="line"/>
      <point x="411" y="1304" type="line"/>
      <point x="411" y="1244" type="line" smooth="yes"/>
      <point x="411" y="1188"/>
      <point x="411" y="1150"/>
    </contour>
  </outline>
</glyph>
<glyph name="V" format="2">
  <advance width="1108"/>
  <unicode hex="0056"/>
  <anchor x="558" y="0" name="bottom"/>
  <anchor x="568" y="1464" name="top"/>
  <outline>
    <contour>
      <point x="930" y="1366" type="curve"/>
      <point x="578" y="142" type="line"/>
      <point x="570" y="142"/>
      <point x="566" y="144"/>
      <point x="562" y="158" type="curve" smooth="yes"/>
      <point x="534" y="256"/>
      <point x="494" y="404"/>
      <point x="468" y="490" type="curve" smooth="yes"/>
      <point x="226" y="1308" type="line" smooth="yes"/>
      <point x="210" y="1364"/>
      <point x="182" y="1378"/>
      <point x="146" y="1378" type="curve" smooth="yes"/>
      <point x="116" y="1378"/>
      <point x="84" y="1368"/>
      <point x="56" y="1354" type="curve"/>
      <point x="446" y="68" type="line" smooth="yes"/>
      <point x="463" y="10"/>
      <point x="490" y="-8"/>
      <point x="548" y="-8" type="curve" smooth="yes"/>
      <point x="586" y="-8"/>
      <point x="616" y="-6"/>
      <point x="654" y="-2" type="curve"/>
      <point x="1064" y="1352" type="line"/>
      <point x="1058" y="1364" type="line"/>
      <point x="1042" y="1368"/>
      <point x="1018" y="1372"/>
      <point x="992" y="1372" type="curve" smooth="yes"/>
      <point x="966" y="1372"/>
      <point x="946" y="1370"/>
    </contour>
  </outline>
</glyph>
<glyph name="X" format="2">
  <advance width="1138"/>
  <unicode hex="0058"/>
  <anchor x="576" y="1464" name="top"/>
  <outline>
    <contour>
      <point x="106" y="1344" type="curve"/>
      <point x="902" y="48" type="line"/>
      <point x="930" y="4"/>
      <point x="962" y="-12"/>
      <point x="992" y="-12" type="curve" smooth="yes"/>
      <point x="1022" y="-12"/>
      <point x="1058" y="-2"/>
      <point x="1090" y="22" type="curve"/>
      <point x="294" y="1318" type="line" smooth="yes"/>
      <point x="266" y="1362"/>
      <point x="234" y="1378"/>
      <point x="204" y="1378" type="curve" smooth="yes"/>
      <point x="174" y="1378"/>
      <point x="138" y="1368"/>
    </contour>
    <contour>
      <point x="906" y="1366" type="curve"/>
      <point x="566" y="812" type="line"/>
      <point x="506" y="750" type="line"/>
      <point x="48" y="18" type="line"/>
      <point x="54" y="6" type="line"/>
      <point x="68" y="-2"/>
      <point x="98" y="-8"/>
      <point x="128" y="-8" type="curve" smooth="yes"/>
      <point x="148" y="-8"/>
      <point x="182" y="-4"/>
      <point x="192" y="0" type="curve"/>
      <point x="580" y="636" type="line"/>
      <point x="640" y="696" type="line"/>
      <point x="1046" y="1348" type="line"/>
      <point x="1040" y="1360" type="line"/>
      <point x="1026" y="1368"/>
      <point x="996" y="1374"/>
      <point x="966" y="1374" type="curve" smooth="yes"/>
      <point x="946" y="1374"/>
      <point x="916" y="1370"/>
    </contour>
  </outline>
</glyph>
<glyph name="Y" format="2">
  <advance width="956"/>
  <unicode hex="0059"/>
  <anchor x="478" y="0" name="bottom"/>
  <anchor x="486" y="1464" name="top"/>
  <outline>
    <contour>
      <point x="408" y="538" type="line"/>
      <point x="408" y="0" type="line"/>
      <point x="426" y="-4"/>
      <point x="452" y="-6"/>
      <point x="478" y="-6" type="curve" smooth="yes"/>
      <point x="506" y="-6"/>
      <point x="532" y="-4"/>
      <point x="552" y="0" type="curve"/>
      <point x="552" y="538" type="line"/>
    </contour>
    <contour>
      <point x="788" y="1366" type="curve"/>
      <point x="576" y="832" type="line" smooth="yes"/>
      <point x="562" y="796"/>
      <point x="514" y="672"/>
      <point x="494" y="606" type="curve"/>
      <point x="484" y="606" type="line"/>
      <point x="464" y="670"/>
      <point x="430" y="770"/>
      <point x="404" y="832" type="curve" smooth="yes"/>
      <point x="206" y="1310" type="line" smooth="yes"/>
      <point x="188" y="1356"/>
      <point x="166" y="1380"/>
      <point x="126" y="1380" type="curve" smooth="yes"/>
      <point x="102" y="1380"/>
      <point x="74" y="1374"/>
      <point x="32" y="1350" type="curve"/>
      <point x="428" y="404" type="line"/>
      <point x="534" y="404" type="line"/>
      <point x="928" y="1352" type="line"/>
      <point x="922" y="1364" type="line"/>
      <point x="900" y="1370"/>
      <point x="878" y="1374"/>
      <point x="852" y="1374" type="curve" smooth="yes"/>
      <point x="832" y="1374"/>
      <point x="808" y="1372"/>
    </contour>
  </outline>
</glyph>
<glyph name="Z" format="2">
  <advance width="1102"/>
  <unicode hex="005A"/>
  <anchor x="556" y="0" name="bottom"/>
  <anchor x="562" y="1464" name="top"/>
  <outline>
    <contour>
      <point x="674" y="1024" type="curve" smooth="yes"/>
      <point x="130" y="172" type="line" smooth="yes"/>
      <point x="114" y="146"/>
      <point x="108" y="120"/>
      <point x="108" y="98" type="curve" smooth="yes"/>
      <point x="108" y="80"/>
      <point x="110" y="62"/>
      <point x="130" y="0" type="curve"/>
      <point x="886" y="0" type="line" smooth="yes"/>
      <point x="968" y="0"/>
      <point x="994" y="34"/>
      <point x="994" y="86" type="curve" smooth="yes"/>
      <point x="994" y="112"/>
      <point x="988" y="138"/>
      <point x="980" y="162" type="curve"/>
      <point x="928" y="138"/>
      <point x="848" y="130"/>
      <point x="738" y="130" type="curve" smooth="yes"/>
      <point x="468" y="130" type="line" smooth="yes"/>
      <point x="420" y="130"/>
      <point x="348" y="128"/>
      <point x="264" y="120" type="curve"/>
      <point x="258" y="126" type="line"/>
      <point x="310" y="202"/>
      <point x="370" y="286"/>
      <point x="416" y="358" type="curve" smooth="yes"/>
      <point x="954" y="1198" type="line" smooth="yes"/>
      <point x="970" y="1224"/>
      <point x="978" y="1246"/>
      <point x="978" y="1266" type="curve" smooth="yes"/>
      <point x="978" y="1284"/>
      <point x="974" y="1306"/>
      <point x="956" y="1366" type="curve"/>
      <point x="170" y="1366" type="line"/>
      <point x="162" y="1340"/>
      <point x="158" y="1314"/>
      <point x="158" y="1288" type="curve" smooth="yes"/>
      <point x="158" y="1272"/>
      <point x="160" y="1254"/>
      <point x="164" y="1238" type="curve"/>
      <point x="508" y="1238" type="line" smooth="yes"/>
      <point x="556" y="1238"/>
      <point x="776" y="1242"/>
      <point x="822" y="1252" type="curve"/>
      <point x="828" y="1246" type="line"/>
      <point x="768" y="1160"/>
      <point x="718" y="1092"/>
    </contour>
  </outline>
</glyph>
<glyph name="bracketright" format="2">
  <advance width="622"/>
  <unicode hex="005D"/>
  <outline>
    <contour>
      <point x="422" y="1502" type="line"/>
      <point x="422" y="-368" type="line"/>
      <point x="278" y="-320" type="line"/>
      <point x="278" y="1450" type="line"/>
    </contour>
    <contour>
      <point x="410" y="-380" type="line"/>
      <point x="64" y="-366" type="line"/>
      <point x="60" y="-350"/>
      <point x="60" y="-336"/>
      <point x="60" y="-322" type="curve" smooth="yes"/>
      <point x="60" y="-302"/>
      <point x="66" y="-276"/>
      <point x="72" y="-258" type="curve"/>
      <point x="410" y="-250" type="line"/>
      <point x="422" y="-368" type="line"/>
    </contour>
    <contour>
      <point x="64" y="1500" type="curve"/>
      <point x="410" y="1514" type="line"/>
      <point x="422" y="1502" type="line"/>
      <point x="410" y="1384" type="line"/>
      <point x="72" y="1392" type="line"/>
      <point x="66" y="1410"/>
      <point x="60" y="1436"/>
      <point x="60" y="1456" type="curve" smooth="yes"/>
      <point x="60" y="1470"/>
      <point x="60" y="1484"/>
    </contour>
  </outline>
</glyph>
<glyph name="asciicircum" format="2">
  <advance width="1060"/>
  <unicode hex="005E"/>
  <outline>
    <contour>
      <point x="952" y="612" type="curve"/>
      <point x="606" y="1296" type="line"/>
      <point x="586" y="1301"/>
      <point x="558" y="1304"/>
      <point x="530" y="1304" type="curve" smooth="yes"/>
      <point x="502" y="1304"/>
      <point x="474" y="1301"/>
      <point x="454" y="1296" type="curve"/>
      <point x="108" y="612" type="line"/>
      <point x="122" y="607"/>
      <point x="150" y="604"/>
      <point x="179" y="604" type="curve" smooth="yes"/>
      <point x="206" y="604"/>
      <point x="234" y="606"/>
      <point x="252" y="612" type="curve"/>
      <point x="460" y="1036" type="line" smooth="yes"/>
      <point x="484" y="1086"/>
      <point x="504" y="1130"/>
      <point x="524" y="1176" type="curve"/>
      <point x="536" y="1176" type="line"/>
      <point x="556" y="1130"/>
      <point x="576" y="1086"/>
      <point x="600" y="1036" type="curve" smooth="yes"/>
      <point x="808" y="612" type="line"/>
      <point x="826" y="606"/>
      <point x="854" y="604"/>
      <point x="881" y="604" type="curve" smooth="yes"/>
      <point x="910" y="604"/>
      <point x="938" y="607"/>
    </contour>
  </outline>
</glyph>
<glyph name="underscore" format="2">
  <advance width="1014"/>
  <unicode hex="005F"/>
  <outline>
    <contour>
      <point x="0" y="-282" type="curve"/>
      <point x="1014" y="-282" type="line"/>
      <point x="1018" y="-268"/>
      <point x="1020" y="-252"/>
      <point x="1020" y="-226" type="curve"/>
      <point x="1020" y="-198"/>
      <point x="1018" y="-182"/>
      <point x="1014" y="-166" type="curve"/>
      <point x="0" y="-166" type="line"/>
      <point x="-4" y="-182"/>
      <point x="-6" y="-198"/>
      <point x="-6" y="-226" type="curve" smooth="yes"/>
      <point x="-6" y="-252"/>
      <point x="-4" y="-268"/>
    </contour>
  </outline>
</glyph>
<glyph name="f" format="2">
  <advance width="636"/>
  <unicode hex="0066"/>
  <anchor x="441" y="1530" name="top"/>
  <outline>
    <contour>
      <point x="282" y="978" type="line"/>
      <point x="46" y="982" type="line"/>
      <point x="42" y="962"/>
      <point x="40" y="948"/>
      <point x="40" y="928" type="curve" smooth="yes"/>
      <point x="40" y="908"/>
      <point x="42" y="892"/>
      <point x="46" y="874" type="curve"/>
      <point x="284" y="878" type="line"/>
      <point x="640" y="874" type="line"/>
      <point x="644" y="892"/>
      <point x="646" y="908"/>
      <point x="646" y="928" type="curve" smooth="yes"/>
      <point x="646" y="948"/>
      <point x="644" y="962"/>
      <point x="640" y="982" type="curve"/>
    </contour>
    <contour>
      <point x="218" y="918" type="curve"/>
      <point x="218" y="0" type="line"/>
      <point x="238" y="-4"/>
      <point x="264" y="-6"/>
      <point x="286" y="-6" type="curve" smooth="yes"/>
      <point x="308" y="-6"/>
      <point x="334" y="-4"/>
      <point x="354" y="0" type="curve"/>
      <point x="354" y="914" type="line"/>
      <point x="340" y="1014"/>
      <point x="328" y="1102"/>
      <point x="328" y="1184" type="curve" smooth="yes"/>
      <point x="328" y="1304"/>
      <point x="388" y="1372"/>
      <point x="486" y="1372" type="curve" smooth="yes"/>
      <point x="544" y="1372"/>
      <point x="610" y="1358"/>
      <point x="670" y="1340" type="curve"/>
      <point x="692" y="1364"/>
      <point x="704" y="1402"/>
      <point x="704" y="1436" type="curve"/>
      <point x="648" y="1458"/>
      <point x="550" y="1478"/>
      <point x="482" y="1478" type="curve" smooth="yes"/>
      <point x="294" y="1478"/>
      <point x="198" y="1352"/>
      <point x="198" y="1190" type="curve" smooth="yes"/>
      <point x="198" y="1114"/>
      <point x="210" y="1018"/>
    </contour>
  </outline>
</glyph>
<glyph name="g" format="2">
  <advance width="1046"/>
  <unicode hex="0067"/>
  <anchor x="510" y="-418" name="bottom"/>
  <anchor x="524" y="1084" name="top"/>
  <outline>
    <contour>
      <point x="924" y="922" type="curve"/>
      <point x="914" y="948"/>
      <point x="888" y="980"/>
      <point x="858" y="994" type="curve"/>
      <point x="756" y="954"/>
      <point x="736" y="858"/>
      <point x="736" y="754" type="curve"/>
      <point x="736" y="0" type="line" smooth="yes"/>
      <point x="736" y="-172"/>
      <point x="702" y="-326"/>
      <point x="462" y="-326" type="curve" smooth="yes"/>
      <point x="390" y="-326"/>
      <point x="270" y="-302"/>
      <point x="188" y="-262" type="curve"/>
      <point x="166" y="-288"/>
      <point x="150" y="-334"/>
      <point x="148" y="-372" type="curve"/>
      <point x="232" y="-408"/>
      <point x="354" y="-440"/>
      <point x="476" y="-440" type="curve" smooth="yes"/>
      <point x="620" y="-440"/>
      <point x="724" y="-382"/>
      <point x="778" y="-316" type="curve" smooth="yes"/>
      <point x="842" y="-238"/>
      <point x="868" y="-128"/>
      <point x="868" y="70" type="curve" smooth="yes"/>
      <point x="868" y="704" type="line" smooth="yes"/>
      <point x="868" y="790"/>
      <point x="874" y="874"/>
    </contour>
    <contour>
      <point x="104" y="488" type="curve" smooth="yes"/>
      <point x="104" y="184"/>
      <point x="220" y="-16"/>
      <point x="444" y="-16" type="curve" smooth="yes"/>
      <point x="614" y="-16"/>
      <point x="740" y="108"/>
      <point x="788" y="184" type="curve"/>
      <point x="766" y="306" type="line"/>
      <point x="708" y="198"/>
      <point x="586" y="106"/>
      <point x="462" y="106" type="curve" smooth="yes"/>
      <point x="344" y="106"/>
      <point x="244" y="216"/>
      <point x="244" y="488" type="curve" smooth="yes"/>
      <point x="244" y="768"/>
      <point x="362" y="882"/>
      <point x="492" y="882" type="curve" smooth="yes"/>
      <point x="610" y="882"/>
      <point x="730" y="806"/>
      <point x="796" y="720" type="curve"/>
      <point x="810" y="846" type="line"/>
      <point x="732" y="928"/>
      <point x="636" y="1004"/>
      <point x="474" y="1004" type="curve" smooth="yes"/>
      <point x="304" y="1004"/>
      <point x="104" y="850"/>
    </contour>
  </outline>
</glyph>
<glyph name="h" format="2">
  <advance width="1088"/>
  <unicode hex="0068"/>
  <anchor x="552" y="0" name="bottom"/>
  <anchor x="550" y="1520" name="top"/>
  <outline>
    <contour>
      <point x="316" y="0" type="curve"/>
      <point x="316" y="1374" type="line" smooth="yes"/>
      <point x="316" y="1436"/>
      <point x="306" y="1470"/>
      <point x="242" y="1470" type="curve" smooth="yes"/>
      <point x="192" y="1470" type="line"/>
      <point x="180" y="1458" type="line"/>
      <point x="180" y="0" type="line"/>
      <point x="198" y="-4"/>
      <point x="220" y="-6"/>
      <point x="248" y="-6" type="curve" smooth="yes"/>
      <point x="274" y="-6"/>
      <point x="298" y="-4"/>
    </contour>
    <contour>
      <point x="920" y="186" type="curve" smooth="yes"/>
      <point x="920" y="686" type="line" smooth="yes"/>
      <point x="920" y="854"/>
      <point x="854" y="996"/>
      <point x="664" y="996" type="curve" smooth="yes"/>
      <point x="518" y="996"/>
      <point x="364" y="918"/>
      <point x="278" y="808" type="curve"/>
      <point x="278" y="658" type="line"/>
      <point x="344" y="774"/>
      <point x="506" y="870"/>
      <point x="632" y="870" type="curve" smooth="yes"/>
      <point x="750" y="870"/>
      <point x="782" y="802"/>
      <point x="782" y="640" type="curve" smooth="yes"/>
      <point x="782" y="80" type="line" smooth="yes"/>
      <point x="782" y="18"/>
      <point x="802" y="-12"/>
      <point x="854" y="-12" type="curve" smooth="yes"/>
      <point x="886" y="-12"/>
      <point x="922" y="0"/>
      <point x="942" y="18" type="curve"/>
      <point x="924" y="62"/>
      <point x="920" y="122"/>
    </contour>
  </outline>
</glyph>
<glyph name="l" format="2">
  <advance width="562"/>
  <unicode hex="006C"/>
  <anchor x="328" y="0" name="bottom"/>
  <anchor x="562" y="786" name="periodcentered"/>
  <anchor x="238" y="1564" name="top"/>
  <anchor x="312" y="980" name="topright"/>
  <outline>
    <contour>
      <point x="472" y="108" type="curve"/>
      <point x="386" y="108" type="line"/>
      <point x="338" y="108"/>
      <point x="312" y="136"/>
      <point x="312" y="192" type="curve" smooth="yes"/>
      <point x="312" y="1374" type="line" smooth="yes"/>
      <point x="312" y="1436"/>
      <point x="302" y="1470"/>
      <point x="238" y="1470" type="curve" smooth="yes"/>
      <point x="188" y="1470" type="line"/>
      <point x="176" y="1458" type="line"/>
      <point x="176" y="152" type="line" smooth="yes"/>
      <point x="176" y="48"/>
      <point x="244" y="-8"/>
      <point x="340" y="-8" type="curve" smooth="yes"/>
      <point x="380" y="-8"/>
      <point x="444" y="-2"/>
      <point x="482" y="4" type="curve"/>
      <point x="484" y="12"/>
      <point x="484" y="22"/>
      <point x="484" y="32" type="curve" smooth="yes"/>
      <point x="484" y="60"/>
      <point x="480" y="88"/>
    </contour>
  </outline>
</glyph>
<glyph name="m" format="2">
  <advance width="1580"/>
  <unicode hex="006D"/>
  <anchor x="796" y="0" name="bottom"/>
  <anchor x="790" y="1084" name="top"/>
  <outline>
    <contour>
      <point x="244" y="986" type="curve" smooth="yes"/>
      <point x="192" y="986" type="line"/>
      <point x="180" y="972" type="line"/>
      <point x="180" y="0" type="line"/>
      <point x="198" y="-4"/>
      <point x="222" y="-6"/>
      <point x="250" y="-6" type="curve" smooth="yes"/>
      <point x="276" y="-6"/>
      <point x="300" y="-4"/>
      <point x="318" y="0" type="curve"/>
      <point x="318" y="890" type="line" smooth="yes"/>
      <point x="318" y="952"/>
      <point x="308" y="986"/>
    </contour>
    <contour>
      <point x="726" y="642" type="curve" smooth="yes"/>
      <point x="726" y="0" type="line"/>
      <point x="744" y="-4"/>
      <point x="768" y="-6"/>
      <point x="796" y="-6" type="curve" smooth="yes"/>
      <point x="822" y="-6"/>
      <point x="846" y="-4"/>
      <point x="864" y="0" type="curve"/>
      <point x="864" y="690" type="line" smooth="yes"/>
      <point x="864" y="858"/>
      <point x="788" y="998"/>
      <point x="614" y="998" type="curve" smooth="yes"/>
      <point x="486" y="998"/>
      <point x="350" y="918"/>
      <point x="268" y="784" type="curve"/>
      <point x="268" y="626" type="line"/>
      <point x="334" y="776"/>
      <point x="480" y="872"/>
      <point x="588" y="872" type="curve" smooth="yes"/>
      <point x="690" y="872"/>
      <point x="726" y="804"/>
    </contour>
    <contour>
      <point x="1274" y="644" type="curve"/>
      <point x="1274" y="80" type="line" smooth="yes"/>
      <point x="1274" y="18"/>
      <point x="1294" y="-12"/>
      <point x="1346" y="-12" type="curve" smooth="yes"/>
      <point x="1378" y="-12"/>
      <point x="1414" y="0"/>
      <point x="1434" y="18" type="curve"/>
      <point x="1416" y="62"/>
      <point x="1412" y="122"/>
      <point x="1412" y="186" type="curve" smooth="yes"/>
      <point x="1412" y="690" type="line" smooth="yes"/>
      <point x="1412" y="858"/>
      <point x="1336" y="998"/>
      <point x="1162" y="998" type="curve" smooth="yes"/>
      <point x="1034" y="998"/>
      <point x="914" y="926"/>
      <point x="810" y="818" type="curve"/>
      <point x="810" y="626" type="line"/>
      <point x="888" y="786"/>
      <point x="1030" y="872"/>
      <point x="1136" y="872" type="curve" smooth="yes"/>
      <point x="1238" y="872"/>
      <point x="1274" y="806"/>
    </contour>
  </outline>
</glyph>
<glyph name="p" format="2">
  <advance width="1050"/>
  <unicode hex="0070"/>
  <anchor x="524" y="1084" name="top"/>
  <outline>
    <contour>
      <point x="242" y="986" type="curve" smooth="yes"/>
      <point x="192" y="986" type="line"/>
      <point x="180" y="974" type="line"/>
      <point x="180" y="-418" type="line"/>
      <point x="192" y="-430" type="line"/>
      <point x="242" y="-430" type="line" smooth="yes"/>
      <point x="306" y="-430"/>
      <point x="316" y="-396"/>
      <point x="316" y="-334" type="curve" smooth="yes"/>
      <point x="316" y="890" type="line" smooth="yes"/>
      <point x="316" y="952"/>
      <point x="306" y="986"/>
    </contour>
    <contour>
      <point x="946" y="502" type="curve" smooth="yes"/>
      <point x="946" y="800"/>
      <point x="830" y="1004"/>
      <point x="612" y="1004" type="curve" smooth="yes"/>
      <point x="430" y="1004"/>
      <point x="296" y="876"/>
      <point x="246" y="758" type="curve"/>
      <point x="270" y="620" type="line"/>
      <point x="320" y="780"/>
      <point x="462" y="882"/>
      <point x="586" y="882" type="curve" smooth="yes"/>
      <point x="700" y="882"/>
      <point x="806" y="774"/>
      <point x="806" y="502" type="curve" smooth="yes"/>
      <point x="806" y="220"/>
      <point x="684" y="106"/>
      <point x="562" y="106" type="curve" smooth="yes"/>
      <point x="440" y="106"/>
      <point x="334" y="184"/>
      <point x="258" y="242" type="curve"/>
      <point x="252" y="116" type="line"/>
      <point x="348" y="40"/>
      <point x="454" y="-16"/>
      <point x="574" y="-16" type="curve" smooth="yes"/>
      <point x="746" y="-16"/>
      <point x="946" y="136"/>
    </contour>
  </outline>
</glyph>
<glyph name="s" format="2">
  <advance width="868"/>
  <unicode hex="0073"/>
  <anchor x="426" y="0" name="bottom"/>
  <anchor x="431" y="1084" name="top"/>
  <outline>
    <contour>
      <point x="76" y="76" type="curve"/>
      <point x="158" y="24"/>
      <point x="272" y="-24"/>
      <point x="412" y="-24" type="curve" smooth="yes"/>
      <point x="624" y="-24"/>
      <point x="778" y="80"/>
      <point x="778" y="256" type="curve" smooth="yes"/>
      <point x="778" y="400"/>
      <point x="680" y="489"/>
      <point x="532" y="544" type="curve" smooth="yes"/>
      <point x="409" y="590" type="line" smooth="yes"/>
      <point x="307" y="628"/>
      <point x="255" y="670"/>
      <point x="255" y="740" type="curve" smooth="yes"/>
      <point x="255" y="832"/>
      <point x="331" y="890"/>
      <point x="439" y="890" type="curve" smooth="yes"/>
      <point x="541" y="890"/>
      <point x="637" y="858"/>
      <point x="699" y="830" type="curve"/>
      <point x="727" y="858"/>
      <point x="743" y="902"/>
      <point x="743" y="940" type="curve"/>
      <point x="663" y="976"/>
      <point x="541" y="1004"/>
      <point x="443" y="1004" type="curve" smooth="yes"/>
      <point x="263" y="1004"/>
      <point x="111" y="902"/>
      <point x="111" y="732" type="curve" smooth="yes"/>
      <point x="111" y="586"/>
      <point x="231" y="506"/>
      <point x="367" y="456" type="curve" smooth="yes"/>
      <point x="486" y="412" type="line" smooth="yes"/>
      <point x="580" y="377"/>
      <point x="634" y="314"/>
      <point x="634" y="246" type="curve" smooth="yes"/>
      <point x="632" y="152"/>
      <point x="546" y="86"/>
      <point x="416" y="86" type="curve" smooth="yes"/>
      <point x="314" y="86"/>
      <point x="214" y="132"/>
      <point x="132" y="178" type="curve"/>
      <point x="104" y="156"/>
      <point x="78" y="110"/>
    </contour>
  </outline>
</glyph>
<glyph name="v" format="2">
  <advance width="880"/>
  <unicode hex="0076"/>
  <anchor x="444" y="0" name="bottom"/>
  <anchor x="440" y="1084" name="top"/>
  <outline>
    <contour>
      <point x="730" y="982" type="curve"/>
      <point x="456" y="122" type="line"/>
      <point x="444" y="122"/>
      <point x="442" y="124"/>
      <point x="438" y="138" type="curve" smooth="yes"/>
      <point x="422" y="200"/>
      <point x="378" y="346"/>
      <point x="340" y="460" type="curve" smooth="yes"/>
      <point x="178" y="942" type="line" smooth="yes"/>
      <point x="166" y="980"/>
      <point x="142" y="994"/>
      <point x="110" y="994" type="curve" smooth="yes"/>
      <point x="86" y="994"/>
      <point x="64" y="990"/>
      <point x="24" y="970" type="curve"/>
      <point x="326" y="84" type="line" smooth="yes"/>
      <point x="354" y="0"/>
      <point x="374" y="-10"/>
      <point x="432" y="-10" type="curve" smooth="yes"/>
      <point x="462" y="-10"/>
      <point x="498" y="-8"/>
      <point x="528" y="0" type="curve"/>
      <point x="604" y="212"/>
      <point x="756" y="654"/>
      <point x="858" y="972" type="curve"/>
      <point x="854" y="978" type="line"/>
      <point x="832" y="984"/>
      <point x="812" y="988"/>
      <point x="786" y="988" type="curve" smooth="yes"/>
      <point x="770" y="988"/>
      <point x="752" y="988"/>
    </contour>
  </outline>
</glyph>
<glyph name="x" format="2">
  <advance width="894"/>
  <unicode hex="0078"/>
  <anchor x="439" y="1084" name="top"/>
  <outline>
    <contour>
      <point x="74" y="962" type="curve"/>
      <point x="680" y="28" type="line"/>
      <point x="698" y="2"/>
      <point x="716" y="-14"/>
      <point x="750" y="-14" type="curve" smooth="yes"/>
      <point x="782" y="-14"/>
      <point x="822" y="4"/>
      <point x="848" y="20" type="curve"/>
      <point x="240" y="954" type="line" smooth="yes"/>
      <point x="222" y="980"/>
      <point x="204" y="996"/>
      <point x="170" y="996" type="curve" smooth="yes"/>
      <point x="138" y="996"/>
      <point x="98" y="978"/>
    </contour>
    <contour>
      <point x="670" y="980" type="curve"/>
      <point x="434" y="598" type="line"/>
      <point x="384" y="542" type="line"/>
      <point x="46" y="16" type="line"/>
      <point x="52" y="4" type="line"/>
      <point x="66" y="-4"/>
      <point x="92" y="-10"/>
      <point x="118" y="-10" type="curve" smooth="yes"/>
      <point x="138" y="-10"/>
      <point x="172" y="-6"/>
      <point x="182" y="-2" type="curve"/>
      <point x="462" y="446" type="line"/>
      <point x="506" y="494" type="line"/>
      <point x="804" y="964" type="line"/>
      <point x="798" y="976" type="line"/>
      <point x="786" y="982"/>
      <point x="760" y="988"/>
      <point x="730" y="988" type="curve" smooth="yes"/>
      <point x="710" y="988"/>
      <point x="680" y="984"/>
    </contour>
  </outline>
</glyph>
<glyph name="y" format="2">
  <advance width="898"/>
  <unicode hex="0079"/>
  <anchor x="686" y="-130" name="bottom"/>
  <anchor x="448" y="1084" name="top"/>
  <outline>
    <contour>
      <point x="590" y="34" type="curve" smooth="yes"/>
      <point x="866" y="972" type="line"/>
      <point x="862" y="978" type="line"/>
      <point x="844" y="984"/>
      <point x="820" y="988"/>
      <point x="794" y="988" type="curve" smooth="yes"/>
      <point x="772" y="988"/>
      <point x="748" y="986"/>
      <point x="728" y="982" type="curve"/>
      <point x="480" y="92" type="line"/>
      <point x="470" y="92"/>
      <point x="464" y="94"/>
      <point x="460" y="106" type="curve" smooth="yes"/>
      <point x="436" y="188"/>
      <point x="400" y="312"/>
      <point x="366" y="420" type="curve" smooth="yes"/>
      <point x="204" y="928" type="line" smooth="yes"/>
      <point x="188" y="980"/>
      <point x="162" y="994"/>
      <point x="130" y="994" type="curve" smooth="yes"/>
      <point x="108" y="994"/>
      <point x="84" y="986"/>
      <point x="48" y="970" type="curve"/>
      <point x="330" y="88" type="line" smooth="yes"/>
      <point x="354" y="16"/>
      <point x="384" y="-4"/>
      <point x="450" y="-8" type="curve"/>
      <point x="444" y="-28" type="line" smooth="yes"/>
      <point x="388" y="-212"/>
      <point x="332" y="-330"/>
      <point x="176" y="-330" type="curve" smooth="yes"/>
      <point x="132" y="-330"/>
      <point x="74" y="-320"/>
      <point x="48" y="-310" type="curve"/>
      <point x="30" y="-332"/>
      <point x="14" y="-376"/>
      <point x="16" y="-410" type="curve"/>
      <point x="50" y="-422"/>
      <point x="122" y="-436"/>
      <point x="174" y="-436" type="curve" smooth="yes"/>
      <point x="410" y="-436"/>
      <point x="494" y="-290"/>
    </contour>
  </outline>
</glyph>
<glyph name="z" format="2">
  <advance width="888"/>
  <unicode hex="007A"/>
  <guideline x="448" y="1081" angle="90"/>
  <anchor x="448" y="0" name="bottom"/>
  <anchor x="448" y="1084" name="top"/>
  <outline>
    <contour>
      <point x="492" y="674" type="curve" smooth="yes"/>
      <point x="108" y="148" type="line" smooth="yes"/>
      <point x="90" y="122"/>
      <point x="84" y="104"/>
      <point x="84" y="88" type="curve" smooth="yes"/>
      <point x="84" y="66"/>
      <point x="90" y="50"/>
      <point x="108" y="0" type="curve"/>
      <point x="700" y="0" type="line" smooth="yes"/>
      <point x="782" y="0"/>
      <point x="806" y="26"/>
      <point x="806" y="72" type="curve" smooth="yes"/>
      <point x="806" y="94"/>
      <point x="802" y="120"/>
      <point x="794" y="140" type="curve"/>
      <point x="748" y="122"/>
      <point x="670" y="116"/>
      <point x="560" y="116" type="curve" smooth="yes"/>
      <point x="448" y="116" type="line" smooth="yes"/>
      <point x="400" y="116"/>
      <point x="316" y="114"/>
      <point x="246" y="110" type="curve"/>
      <point x="240" y="116" type="line"/>
      <point x="286" y="176"/>
      <point x="352" y="256"/>
      <point x="398" y="320" type="curve" smooth="yes"/>
      <point x="774" y="834" type="line" smooth="yes"/>
      <point x="790" y="856"/>
      <point x="798" y="874"/>
      <point x="798" y="890" type="curve" smooth="yes"/>
      <point x="798" y="910"/>
      <point x="792" y="932"/>
      <point x="774" y="980" type="curve"/>
      <point x="124" y="980" type="line"/>
      <point x="118" y="956"/>
      <point x="116" y="926"/>
      <point x="116" y="914" type="curve" smooth="yes"/>
      <point x="116" y="904"/>
      <point x="116" y="882"/>
      <point x="120" y="866" type="curve"/>
      <point x="366" y="866" type="line" smooth="yes"/>
      <point x="454" y="866"/>
      <point x="596" y="870"/>
      <point x="642" y="876" type="curve"/>
      <point x="648" y="870" type="line"/>
      <point x="596" y="804"/>
      <point x="536" y="734"/>
    </contour>
  </outline>
</glyph>
<glyph name="braceright" format="2">
  <advance width="626"/>
  <unicode hex="007D"/>
  <outline>
    <contour>
      <point x="544" y="596" type="curve"/>
      <point x="554" y="574"/>
      <point x="554" y="522"/>
      <point x="544" y="500" type="curve"/>
      <point x="456" y="464"/>
      <point x="384" y="380"/>
      <point x="384" y="254" type="curve" smooth="yes"/>
      <point x="384" y="-100" type="line" smooth="yes"/>
      <point x="384" y="-280"/>
      <point x="274" y="-382"/>
      <point x="124" y="-408" type="curve" smooth="yes"/>
      <point x="42" y="-422" type="line"/>
      <point x="22" y="-400"/>
      <point x="10" y="-354"/>
      <point x="18" y="-318" type="curve"/>
      <point x="104" y="-292" type="line" smooth="yes"/>
      <point x="196" y="-264"/>
      <point x="240" y="-198"/>
      <point x="240" y="-98" type="curve" smooth="yes"/>
      <point x="240" y="250" type="line" smooth="yes"/>
      <point x="240" y="370"/>
      <point x="302" y="492"/>
      <point x="400" y="540" type="curve"/>
      <point x="400" y="556" type="line"/>
      <point x="302" y="604"/>
      <point x="240" y="726"/>
      <point x="240" y="846" type="curve" smooth="yes"/>
      <point x="240" y="1192" type="line" smooth="yes"/>
      <point x="240" y="1292"/>
      <point x="196" y="1358"/>
      <point x="104" y="1386" type="curve" smooth="yes"/>
      <point x="18" y="1412" type="line"/>
      <point x="10" y="1448"/>
      <point x="22" y="1494"/>
      <point x="42" y="1516" type="curve"/>
      <point x="124" y="1502" type="line" smooth="yes"/>
      <point x="274" y="1476"/>
      <point x="384" y="1374"/>
      <point x="384" y="1194" type="curve" smooth="yes"/>
      <point x="384" y="842" type="line" smooth="yes"/>
      <point x="384" y="714"/>
      <point x="456" y="632"/>
    </contour>
  </outline>
</glyph>
<glyph name="asciitilde" format="2">
  <advance width="1112"/>
  <unicode hex="007E"/>
  <outline>
    <contour>
      <point x="670" y="606" type="curve" smooth="yes"/>
      <point x="518" y="674" type="line" smooth="yes"/>
      <point x="466" y="698"/>
      <point x="408" y="714"/>
      <point x="354" y="714" type="curve" smooth="yes"/>
      <point x="244" y="714"/>
      <point x="162" y="662"/>
      <point x="108" y="558" type="curve" smooth="yes"/>
      <point x="90" y="524" type="line"/>
      <point x="102" y="494"/>
      <point x="140" y="472"/>
      <point x="172" y="470" type="curve"/>
      <point x="202" y="508" type="line" smooth="yes"/>
      <point x="236" y="552"/>
      <point x="278" y="580"/>
      <point x="330" y="580" type="curve" smooth="yes"/>
      <point x="366" y="580"/>
      <point x="404" y="570"/>
      <point x="442" y="554" type="curve" smooth="yes"/>
      <point x="594" y="486" type="line" smooth="yes"/>
      <point x="646" y="462"/>
      <point x="704" y="446"/>
      <point x="758" y="446" type="curve" smooth="yes"/>
      <point x="868" y="446"/>
      <point x="950" y="498"/>
      <point x="1004" y="602" type="curve" smooth="yes"/>
      <point x="1022" y="636" type="line"/>
      <point x="1010" y="666"/>
      <point x="972" y="688"/>
      <point x="940" y="690" type="curve"/>
      <point x="910" y="652" type="line" smooth="yes"/>
      <point x="876" y="608"/>
      <point x="834" y="580"/>
      <point x="782" y="580" type="curve" smooth="yes"/>
      <point x="746" y="580"/>
      <point x="708" y="590"/>
    </contour>
  </outline>
</glyph>
<glyph name="yen" format="2">
  <advance width="1080"/>
  <unicode hex="00A5"/>
  <guideline x="870" y="1367" angle="246.6832"/>
  <outline>
    <contour>
      <point x="471" y="444" type="line"/>
      <point x="609" y="444" type="line"/>
      <point x="972" y="1258" type="line"/>
      <point x="966" y="1269" type="line"/>
      <point x="944" y="1275"/>
      <point x="922" y="1279"/>
      <point x="896" y="1279" type="curve" smooth="yes"/>
      <point x="878" y="1279"/>
      <point x="852" y="1277"/>
      <point x="832" y="1271" type="curve"/>
      <point x="638" y="811" type="line" smooth="yes"/>
      <point x="608" y="740"/>
      <point x="575" y="656"/>
      <point x="550" y="586" type="curve"/>
      <point x="540" y="586" type="line"/>
      <point x="514" y="661"/>
      <point x="489" y="731"/>
      <point x="454" y="812" type="curve" smooth="yes"/>
      <point x="278" y="1219" type="line" smooth="yes"/>
      <point x="259" y="1264"/>
      <point x="238" y="1284"/>
      <point x="199" y="1284" type="curve" smooth="yes"/>
      <point x="172" y="1284"/>
      <point x="146" y="1277"/>
      <point x="108" y="1256" type="curve"/>
    </contour>
    <contour>
      <point x="538" y="-6" type="curve" smooth="yes"/>
      <point x="562" y="-6"/>
      <point x="591" y="-4"/>
      <point x="610" y="0" type="curve"/>
      <point x="610" y="491" type="line"/>
      <point x="470" y="491" type="line"/>
      <point x="470" y="0" type="line"/>
      <point x="488" y="-4"/>
      <point x="516" y="-6"/>
    </contour>
    <contour>
      <point x="167" y="353" type="curve"/>
      <point x="913" y="353" type="line"/>
      <point x="917" y="371"/>
      <point x="919" y="392"/>
      <point x="919" y="409" type="curve" smooth="yes"/>
      <point x="919" y="426"/>
      <point x="917" y="446"/>
      <point x="913" y="462" type="curve"/>
      <point x="167" y="462" type="line"/>
      <point x="163" y="446"/>
      <point x="161" y="427"/>
      <point x="161" y="408" type="curve" smooth="yes"/>
      <point x="161" y="387"/>
      <point x="163" y="370"/>
    </contour>
    <contour>
      <point x="167" y="639" type="curve"/>
      <point x="435" y="639" type="line"/>
      <point x="435" y="747" type="line"/>
      <point x="167" y="748" type="line"/>
      <point x="163" y="731"/>
      <point x="161" y="712"/>
      <point x="161" y="693" type="curve" smooth="yes"/>
      <point x="161" y="674"/>
      <point x="163" y="654"/>
    </contour>
    <contour>
      <point x="644" y="639" type="line"/>
      <point x="913" y="639" type="line"/>
      <point x="917" y="657"/>
      <point x="919" y="676"/>
      <point x="919" y="694" type="curve" smooth="yes"/>
      <point x="919" y="712"/>
      <point x="917" y="731"/>
      <point x="913" y="748" type="curve"/>
      <point x="644" y="747" type="line"/>
    </contour>
  </outline>
</glyph>
<glyph name="copyright" format="2">
  <advance width="1622"/>
  <unicode hex="00A9"/>
  <outline>
    <contour>
      <point x="92" y="682" type="curve" smooth="yes"/>
      <point x="92" y="276"/>
      <point x="404" y="-36"/>
      <point x="810" y="-36" type="curve" smooth="yes"/>
      <point x="1216" y="-36"/>
      <point x="1530" y="276"/>
      <point x="1530" y="682" type="curve" smooth="yes"/>
      <point x="1530" y="1088"/>
      <point x="1216" y="1402"/>
      <point x="810" y="1402" type="curve" smooth="yes"/>
      <point x="404" y="1402"/>
      <point x="92" y="1088"/>
    </contour>
    <contour>
      <point x="226" y="682" type="curve" smooth="yes"/>
      <point x="226" y="1016"/>
      <point x="474" y="1292"/>
      <point x="810" y="1292" type="curve" smooth="yes"/>
      <point x="1146" y="1292"/>
      <point x="1396" y="1016"/>
      <point x="1396" y="682" type="curve" smooth="yes"/>
      <point x="1396" y="348"/>
      <point x="1146" y="74"/>
      <point x="810" y="74" type="curve" smooth="yes"/>
      <point x="474" y="74"/>
      <point x="226" y="348"/>
    </contour>
    <contour>
      <point x="988" y="780" type="curve"/>
      <point x="1004" y="774"/>
      <point x="1022" y="770"/>
      <point x="1046" y="770" type="curve" smooth="yes"/>
      <point x="1098" y="770"/>
      <point x="1114" y="808"/>
      <point x="1114" y="846" type="curve" smooth="yes"/>
      <point x="1114" y="938"/>
      <point x="1028" y="1088"/>
      <point x="816" y="1088" type="curve" smooth="yes"/>
      <point x="640" y="1088"/>
      <point x="462" y="956"/>
      <point x="462" y="682" type="curve" smooth="yes"/>
      <point x="462" y="438"/>
      <point x="598" y="280"/>
      <point x="804" y="280" type="curve" smooth="yes"/>
      <point x="920" y="280"/>
      <point x="1036" y="334"/>
      <point x="1106" y="406" type="curve"/>
      <point x="1094" y="434"/>
      <point x="1068" y="468"/>
      <point x="1040" y="480" type="curve"/>
      <point x="982" y="428"/>
      <point x="898" y="388"/>
      <point x="820" y="388" type="curve" smooth="yes"/>
      <point x="686" y="388"/>
      <point x="602" y="494"/>
      <point x="602" y="682" type="curve" smooth="yes"/>
      <point x="602" y="876"/>
      <point x="686" y="980"/>
      <point x="812" y="980" type="curve" smooth="yes"/>
      <point x="948" y="980"/>
      <point x="996" y="872"/>
    </contour>
  </outline>
</glyph>
<glyph name="ordfeminine" format="2">
  <advance width="806"/>
  <unicode hex="00AA"/>
  <outline>
    <contour>
      <point x="80" y="734" type="curve" smooth="yes"/>
      <point x="80" y="626"/>
      <point x="152" y="512"/>
      <point x="308" y="512" type="curve" smooth="yes"/>
      <point x="446" y="512"/>
      <point x="554" y="612"/>
      <point x="608" y="680" type="curve"/>
      <point x="586" y="790" type="line"/>
      <point x="520" y="676"/>
      <point x="406" y="614"/>
      <point x="324" y="614" type="curve" smooth="yes"/>
      <point x="250" y="614"/>
      <point x="208" y="674"/>
      <point x="208" y="744" type="curve" smooth="yes"/>
      <point x="208" y="830"/>
      <point x="272" y="884"/>
      <point x="370" y="884" type="curve" smooth="yes"/>
      <point x="446" y="884"/>
      <point x="528" y="876"/>
      <point x="594" y="864" type="curve"/>
      <point x="594" y="960" type="line"/>
      <point x="526" y="972"/>
      <point x="444" y="978"/>
      <point x="372" y="978" type="curve" smooth="yes"/>
      <point x="196" y="978"/>
      <point x="80" y="904"/>
    </contour>
    <contour>
      <point x="704" y="580" type="curve"/>
      <point x="664" y="618"/>
      <point x="660" y="668"/>
      <point x="660" y="732" type="curve" smooth="yes"/>
      <point x="660" y="1036" type="line" smooth="yes"/>
      <point x="660" y="1200"/>
      <point x="584" y="1290"/>
      <point x="416" y="1290" type="curve" smooth="yes"/>
      <point x="304" y="1290"/>
      <point x="184" y="1252"/>
      <point x="106" y="1218" type="curve"/>
      <point x="106" y="1178"/>
      <point x="130" y="1138"/>
      <point x="150" y="1120" type="curve"/>
      <point x="236" y="1158"/>
      <point x="322" y="1180"/>
      <point x="412" y="1180" type="curve" smooth="yes"/>
      <point x="494" y="1180"/>
      <point x="544" y="1136"/>
      <point x="544" y="1030" type="curve" smooth="yes"/>
      <point x="544" y="688" type="line" smooth="yes"/>
      <point x="544" y="606"/>
      <point x="572" y="546"/>
      <point x="644" y="518" type="curve"/>
      <point x="672" y="530"/>
      <point x="698" y="560"/>
    </contour>
  </outline>
</glyph>
<glyph name="logicalnot" format="2">
  <advance width="1080"/>
  <unicode hex="00AC"/>
  <outline>
    <contour>
      <point x="118" y="698" type="curve"/>
      <point x="936" y="698" type="line"/>
      <point x="948" y="686" type="line"/>
      <point x="948" y="566" type="line"/>
      <point x="818" y="568" type="line" smooth="yes"/>
      <point x="798" y="568"/>
      <point x="758" y="566"/>
      <point x="738" y="566" type="curve" smooth="yes"/>
      <point x="118" y="566" type="line"/>
      <point x="114" y="584"/>
      <point x="112" y="606"/>
      <point x="112" y="632" type="curve" smooth="yes"/>
      <point x="112" y="660"/>
      <point x="114" y="678"/>
    </contour>
    <contour>
      <point x="810" y="576" type="curve" smooth="yes"/>
      <point x="808" y="612" type="line"/>
      <point x="948" y="612" type="line"/>
      <point x="948" y="258" type="line"/>
      <point x="930" y="254"/>
      <point x="904" y="252"/>
      <point x="878" y="252" type="curve" smooth="yes"/>
      <point x="850" y="252"/>
      <point x="828" y="254"/>
      <point x="808" y="258" type="curve"/>
      <point x="808" y="496" type="line" smooth="yes"/>
      <point x="808" y="516"/>
      <point x="811" y="556"/>
    </contour>
  </outline>
</glyph>
<glyph name="registered" format="2">
  <advance width="1174"/>
  <unicode hex="00AE"/>
  <outline>
    <contour>
      <point x="78" y="976" type="curve" smooth="yes"/>
      <point x="78" y="692"/>
      <point x="302" y="468"/>
      <point x="586" y="468" type="curve" smooth="yes"/>
      <point x="870" y="468"/>
      <point x="1096" y="692"/>
      <point x="1096" y="976" type="curve" smooth="yes"/>
      <point x="1096" y="1260"/>
      <point x="870" y="1486"/>
      <point x="586" y="1486" type="curve" smooth="yes"/>
      <point x="302" y="1486"/>
      <point x="78" y="1260"/>
    </contour>
    <contour>
      <point x="188" y="976" type="curve" smooth="yes"/>
      <point x="188" y="1202"/>
      <point x="360" y="1386"/>
      <point x="586" y="1386" type="curve" smooth="yes"/>
      <point x="814" y="1386"/>
      <point x="986" y="1202"/>
      <point x="986" y="976" type="curve" smooth="yes"/>
      <point x="986" y="750"/>
      <point x="814" y="568"/>
      <point x="586" y="568" type="curve" smooth="yes"/>
      <point x="360" y="568"/>
      <point x="188" y="750"/>
    </contour>
    <contour>
      <point x="782" y="1082" type="curve" smooth="yes"/>
      <point x="782" y="1178"/>
      <point x="718" y="1234"/>
      <point x="598" y="1234" type="curve" smooth="yes"/>
      <point x="542" y="1234"/>
      <point x="466" y="1232"/>
      <point x="406" y="1230" type="curve"/>
      <point x="400" y="1224" type="line"/>
      <point x="400" y="730" type="line"/>
      <point x="417" y="725"/>
      <point x="434" y="723"/>
      <point x="451" y="723" type="curve" smooth="yes"/>
      <point x="468" y="723"/>
      <point x="485" y="725"/>
      <point x="502" y="730" type="curve"/>
      <point x="502" y="1154" type="line"/>
      <point x="520" y="1154"/>
      <point x="570" y="1154"/>
      <point x="596" y="1154" type="curve" smooth="yes"/>
      <point x="654" y="1154"/>
      <point x="680" y="1118"/>
      <point x="680" y="1078" type="curve" smooth="yes"/>
      <point x="680" y="1036"/>
      <point x="652" y="1002"/>
      <point x="588" y="1002" type="curve" smooth="yes"/>
      <point x="554" y="1002"/>
      <point x="492" y="1002"/>
      <point x="456" y="1000" type="curve"/>
      <point x="456" y="920" type="line"/>
      <point x="566" y="920" type="line" smooth="yes"/>
      <point x="598" y="920"/>
      <point x="618" y="902"/>
      <point x="632" y="878" type="curve" smooth="yes"/>
      <point x="684" y="780" type="line" smooth="yes"/>
      <point x="702" y="744"/>
      <point x="720" y="720"/>
      <point x="752" y="720" type="curve" smooth="yes"/>
      <point x="784" y="720"/>
      <point x="808" y="738"/>
      <point x="820" y="758" type="curve"/>
      <point x="804" y="770"/>
      <point x="790" y="790"/>
      <point x="778" y="812" type="curve" smooth="yes"/>
      <point x="746" y="870" type="line" smooth="yes"/>
      <point x="713" y="929"/>
      <point x="705" y="940"/>
      <point x="680" y="952" type="curve"/>
      <point x="730" y="968"/>
      <point x="782" y="1010"/>
    </contour>
  </outline>
</glyph>
<glyph name="threesuperior" format="2">
  <advance width="840"/>
  <unicode hex="00B3"/>
  <outline>
    <contour>
      <point x="556" y="912" type="curve" smooth="yes"/>
      <point x="556" y="802"/>
      <point x="482" y="744"/>
      <point x="382" y="744" type="curve" smooth="yes"/>
      <point x="300" y="744"/>
      <point x="228" y="772"/>
      <point x="168" y="810" type="curve"/>
      <point x="148" y="792"/>
      <point x="126" y="758"/>
      <point x="120" y="718" type="curve"/>
      <point x="178" y="674"/>
      <point x="270" y="638"/>
      <point x="382" y="638" type="curve" smooth="yes"/>
      <point x="524" y="638"/>
      <point x="684" y="720"/>
      <point x="684" y="910" type="curve" smooth="yes"/>
      <point x="684" y="1070"/>
      <point x="578" y="1164"/>
      <point x="450" y="1164" type="curve" smooth="yes"/>
      <point x="390" y="1164"/>
      <point x="302" y="1144"/>
      <point x="254" y="1120" type="curve"/>
      <point x="258" y="1086"/>
      <point x="278" y="1060"/>
      <point x="300" y="1050" type="curve"/>
      <point x="328" y="1068"/>
      <point x="366" y="1076"/>
      <point x="398" y="1076" type="curve" smooth="yes"/>
      <point x="480" y="1076"/>
      <point x="556" y="1022"/>
    </contour>
    <contour>
      <point x="494" y="1216" type="curve" smooth="yes"/>
      <point x="628" y="1358" type="line"/>
      <point x="644" y="1374"/>
      <point x="648" y="1390"/>
      <point x="648" y="1404" type="curve" smooth="yes"/>
      <point x="648" y="1422"/>
      <point x="638" y="1450"/>
      <point x="628" y="1470" type="curve"/>
      <point x="158" y="1470" type="line"/>
      <point x="152" y="1454"/>
      <point x="150" y="1432"/>
      <point x="150" y="1416" type="curve" smooth="yes"/>
      <point x="150" y="1402"/>
      <point x="152" y="1382"/>
      <point x="156" y="1364" type="curve"/>
      <point x="336" y="1364" type="line" smooth="yes"/>
      <point x="390" y="1364"/>
      <point x="460" y="1366"/>
      <point x="492" y="1372" type="curve"/>
      <point x="496" y="1368" type="line"/>
      <point x="472" y="1352"/>
      <point x="443" y="1322"/>
      <point x="428" y="1306" type="curve" smooth="yes"/>
      <point x="254" y="1120" type="line"/>
      <point x="326" y="1100" type="line"/>
      <point x="378" y="1126"/>
      <point x="449" y="1169"/>
    </contour>
  </outline>
</glyph>
<glyph name="micro" format="2">
  <advance width="1110"/>
  <unicode hex="00B5"/>
  <outline>
    <contour>
      <point x="230" y="440" type="line"/>
      <point x="316" y="440" type="line"/>
      <point x="316" y="340" type="line" smooth="yes"/>
      <point x="316" y="188"/>
      <point x="410" y="106"/>
      <point x="534" y="106" type="curve" smooth="yes"/>
      <point x="660" y="106"/>
      <point x="766" y="198"/>
      <point x="828" y="326" type="curve"/>
      <point x="828" y="166" type="line"/>
      <point x="762" y="60"/>
      <point x="656" y="-20"/>
      <point x="518" y="-20" type="curve" smooth="yes"/>
      <point x="336" y="-20"/>
      <point x="230" y="108"/>
      <point x="230" y="298" type="curve" smooth="yes"/>
    </contour>
    <contour>
      <point x="928" y="980" type="curve"/>
      <point x="928" y="276" type="line" smooth="yes"/>
      <point x="928" y="190"/>
      <point x="934" y="106"/>
      <point x="984" y="58" type="curve"/>
      <point x="974" y="32"/>
      <point x="948" y="0"/>
      <point x="918" y="-14" type="curve"/>
      <point x="816" y="26"/>
      <point x="790" y="122"/>
      <point x="790" y="226" type="curve" smooth="yes"/>
      <point x="790" y="980" type="line"/>
      <point x="808" y="984"/>
      <point x="832" y="986"/>
      <point x="858" y="986" type="curve" smooth="yes"/>
      <point x="886" y="986"/>
      <point x="910" y="984"/>
    </contour>
    <contour>
      <point x="316" y="980" type="curve"/>
      <point x="316" y="154" type="line"/>
      <point x="312" y="154" type="line"/>
      <point x="312" y="-344" type="line" smooth="yes"/>
      <point x="312" y="-406"/>
      <point x="296" y="-436"/>
      <point x="244" y="-436" type="curve" smooth="yes"/>
      <point x="212" y="-436"/>
      <point x="178" y="-426"/>
      <point x="158" y="-408" type="curve"/>
      <point x="176" y="-364"/>
      <point x="180" y="-304"/>
      <point x="180" y="-240" type="curve" smooth="yes"/>
      <point x="180" y="980" type="line"/>
      <point x="198" y="984"/>
      <point x="220" y="986"/>
      <point x="246" y="986" type="curve" smooth="yes"/>
      <point x="274" y="986"/>
      <point x="298" y="984"/>
    </contour>
  </outline>
</glyph>
<glyph name="paragraph" format="2">
  <advance width="1240"/>
  <unicode hex="00B6"/>
  <outline>
    <contour>
      <point x="588" y="116" type="curve" smooth="yes"/>
      <point x="588" y="522" type="line"/>
      <point x="542" y="522" type="line" smooth="yes"/>
      <point x="284" y="522"/>
      <point x="104" y="670"/>
      <point x="104" y="950" type="curve" smooth="yes"/>
      <point x="104" y="1232"/>
      <point x="288" y="1374"/>
      <point x="542" y="1374" type="curve" smooth="yes"/>
      <point x="614" y="1374"/>
      <point x="650" y="1372"/>
      <point x="720" y="1368" type="curve"/>
      <point x="732" y="1356" type="line"/>
      <point x="732" y="132" type="line" smooth="yes"/>
      <point x="732" y="-140"/>
      <point x="667" y="-306"/>
      <point x="400" y="-306" type="curve" smooth="yes"/>
      <point x="316" y="-306"/>
      <point x="212" y="-282"/>
      <point x="160" y="-260" type="curve"/>
      <point x="160" y="-222"/>
      <point x="180" y="-170"/>
      <point x="202" y="-144" type="curve"/>
      <point x="250" y="-166"/>
      <point x="328" y="-188"/>
      <point x="388" y="-188" type="curve" smooth="yes"/>
      <point x="561" y="-188"/>
      <point x="588" y="-81"/>
    </contour>
    <contour>
      <point x="868" y="1354" type="line"/>
      <point x="868" y="-268" type="line"/>
      <point x="886" y="-272"/>
      <point x="912" y="-274"/>
      <point x="938" y="-274" type="curve" smooth="yes"/>
      <point x="966" y="-274"/>
      <point x="992" y="-272"/>
      <point x="1012" y="-268" type="curve"/>
      <point x="1012" y="1366" type="line"/>
      <point x="880" y="1366" type="line"/>
    </contour>
    <contour>
      <point x="942" y="1366" type="line"/>
      <point x="942" y="1240" type="line"/>
      <point x="994" y="1240" type="line" smooth="yes"/>
      <point x="1014" y="1240"/>
      <point x="1046" y="1238"/>
      <point x="1076" y="1238" type="curve" smooth="yes"/>
      <point x="1172" y="1238" type="line"/>
      <point x="1182" y="1268"/>
      <point x="1182" y="1336"/>
      <point x="1172" y="1366" type="curve"/>
    </contour>
  </outline>
</glyph>
<glyph name="onesuperior" format="2">
  <advance width="840"/>
  <unicode hex="00B9"/>
  <outline>
    <contour>
      <point x="522" y="698" type="line"/>
      <point x="522" y="1470" type="line"/>
      <point x="498" y="1476"/>
      <point x="484" y="1478"/>
      <point x="466" y="1478" type="curve" smooth="yes"/>
      <point x="448" y="1478"/>
      <point x="426" y="1476"/>
      <point x="406" y="1470" type="curve"/>
      <point x="406" y="1324" type="line" smooth="yes"/>
      <point x="406" y="1274"/>
      <point x="400" y="1216"/>
      <point x="400" y="1170" type="curve" smooth="yes"/>
      <point x="400" y="698" type="line"/>
    </contour>
    <contour>
      <point x="306" y="758" type="curve" smooth="yes"/>
      <point x="194" y="758" type="line"/>
      <point x="190" y="742"/>
      <point x="188" y="724"/>
      <point x="188" y="706" type="curve" smooth="yes"/>
      <point x="188" y="690"/>
      <point x="190" y="674"/>
      <point x="194" y="652" type="curve"/>
      <point x="688" y="652" type="line"/>
      <point x="692" y="672"/>
      <point x="694" y="690"/>
      <point x="694" y="706" type="curve" smooth="yes"/>
      <point x="694" y="724"/>
      <point x="692" y="742"/>
      <point x="688" y="758" type="curve"/>
      <point x="616" y="758" type="line" smooth="yes"/>
      <point x="594" y="758"/>
      <point x="542" y="756"/>
      <point x="522" y="756" type="curve" smooth="yes"/>
      <point x="400" y="756" type="line" smooth="yes"/>
      <point x="376" y="756"/>
      <point x="328" y="758"/>
    </contour>
    <contour>
      <point x="152" y="1208" type="curve"/>
      <point x="156" y="1174"/>
      <point x="176" y="1140"/>
      <point x="204" y="1126" type="curve"/>
      <point x="318" y="1176"/>
      <point x="422" y="1259"/>
      <point x="456" y="1364" type="curve"/>
      <point x="406" y="1470" type="line"/>
      <point x="358" y="1366"/>
      <point x="284" y="1282"/>
    </contour>
  </outline>
</glyph>
<glyph name="AE" format="2">
  <advance width="1740"/>
  <unicode hex="00C6"/>
  <anchor x="916" y="1464" name="top"/>
  <outline>
    <contour>
      <point x="742" y="1350" type="curve"/>
      <point x="44" y="8" type="line"/>
      <point x="48" y="2" type="line"/>
      <point x="70" y="-4"/>
      <point x="86" y="-8"/>
      <point x="116" y="-8" type="curve" smooth="yes"/>
      <point x="138" y="-8"/>
      <point x="172" y="-6"/>
      <point x="192" y="-2" type="curve"/>
      <point x="696" y="978" type="line" smooth="yes"/>
      <point x="728" y="1042"/>
      <point x="772" y="1132"/>
      <point x="804" y="1208" type="curve"/>
      <point x="814" y="1208" type="line"/>
      <point x="952" y="1366" type="line"/>
      <point x="828" y="1366" type="line"/>
      <point x="804" y="1366"/>
      <point x="766" y="1362"/>
    </contour>
    <contour>
      <point x="502" y="358" type="curve" smooth="yes"/>
      <point x="682" y="358" type="line" smooth="yes"/>
      <point x="714" y="358"/>
      <point x="804" y="360"/>
      <point x="828" y="360" type="curve" smooth="yes"/>
      <point x="878" y="360" type="line"/>
      <point x="878" y="484" type="line"/>
      <point x="830" y="484" type="line" smooth="yes"/>
      <point x="806" y="484"/>
      <point x="716" y="486"/>
      <point x="684" y="486" type="curve" smooth="yes"/>
      <point x="538" y="486" type="line" smooth="yes"/>
      <point x="506" y="486"/>
      <point x="446" y="484"/>
      <point x="422" y="484" type="curve" smooth="yes"/>
      <point x="374" y="484" type="line"/>
      <point x="310" y="360" type="line"/>
      <point x="364" y="360" type="line" smooth="yes"/>
      <point x="388" y="360"/>
      <point x="470" y="358"/>
    </contour>
    <contour>
      <point x="816" y="1354" type="line"/>
      <point x="816" y="96" type="line" smooth="yes"/>
      <point x="816" y="36"/>
      <point x="848" y="0"/>
      <point x="898" y="0" type="curve" smooth="yes"/>
      <point x="954" y="0" type="line"/>
      <point x="954" y="120" type="line" smooth="yes"/>
      <point x="954" y="148"/>
      <point x="956" y="168"/>
      <point x="956" y="194" type="curve" smooth="yes"/>
      <point x="956" y="1120" type="line" smooth="yes"/>
      <point x="956" y="1174"/>
      <point x="954" y="1192"/>
      <point x="954" y="1248" type="curve" smooth="yes"/>
      <point x="954" y="1366" type="line"/>
      <point x="828" y="1366" type="line"/>
    </contour>
    <contour>
      <point x="1494" y="754" type="curve"/>
      <point x="1074" y="754" type="line" smooth="yes"/>
      <point x="1030" y="754"/>
      <point x="964" y="752"/>
      <point x="906" y="752" type="curve"/>
      <point x="906" y="632" type="line"/>
      <point x="964" y="632"/>
      <point x="1030" y="630"/>
      <point x="1074" y="630" type="curve" smooth="yes"/>
      <point x="1494" y="630" type="line"/>
      <point x="1498" y="652"/>
      <point x="1500" y="676"/>
      <point x="1500" y="692" type="curve" smooth="yes"/>
      <point x="1500" y="708"/>
      <point x="1498" y="732"/>
    </contour>
    <contour>
      <point x="1596" y="1366" type="curve"/>
      <point x="906" y="1366" type="line"/>
      <point x="906" y="1244" type="line"/>
      <point x="964" y="1242"/>
      <point x="1030" y="1242"/>
      <point x="1074" y="1242" type="curve" smooth="yes"/>
      <point x="1590" y="1242" type="line"/>
      <point x="1598" y="1264"/>
      <point x="1600" y="1292"/>
      <point x="1600" y="1308" type="curve" smooth="yes"/>
      <point x="1600" y="1324"/>
      <point x="1600" y="1344"/>
    </contour>
    <contour>
      <point x="1628" y="126" type="curve"/>
      <point x="1076" y="126" type="line" smooth="yes"/>
      <point x="1004" y="126"/>
      <point x="956" y="122"/>
      <point x="906" y="118" type="curve"/>
      <point x="906" y="0" type="line"/>
      <point x="1532" y="0" type="line" smooth="yes"/>
      <point x="1602" y="0"/>
      <point x="1628" y="27"/>
    </contour>
  </outline>
</glyph>
<glyph name="Thorn" format="2">
  <advance width="1116"/>
  <unicode hex="00DE"/>
  <outline>
    <contour>
      <point x="274" y="1150" type="curve"/>
      <point x="274" y="1038" type="line"/>
      <point x="368" y="1036"/>
      <point x="514" y="1034"/>
      <point x="592" y="1034" type="curve" smooth="yes"/>
      <point x="816" y="1034"/>
      <point x="870" y="870"/>
      <point x="870" y="730" type="curve" smooth="yes"/>
      <point x="870" y="594"/>
      <point x="816" y="424"/>
      <point x="592" y="424" type="curve" smooth="yes"/>
      <point x="524" y="424"/>
      <point x="348" y="424"/>
      <point x="274" y="422" type="curve"/>
      <point x="274" y="302" type="line"/>
      <point x="586" y="302" type="line" smooth="yes"/>
      <point x="844" y="302"/>
      <point x="1024" y="450"/>
      <point x="1024" y="730" type="curve" smooth="yes"/>
      <point x="1024" y="1012"/>
      <point x="840" y="1156"/>
      <point x="586" y="1156" type="curve" smooth="yes"/>
      <point x="480" y="1156"/>
      <point x="372" y="1152"/>
    </contour>
    <contour>
      <point x="200" y="1366" type="curve"/>
      <point x="200" y="0" type="line"/>
      <point x="218" y="-4"/>
      <point x="244" y="-6"/>
      <point x="270" y="-6" type="curve" smooth="yes"/>
      <point x="298" y="-6"/>
      <point x="324" y="-4"/>
      <point x="344" y="0" type="curve"/>
      <point x="344" y="1366" type="line"/>
      <point x="324" y="1370"/>
      <point x="298" y="1372"/>
      <point x="270" y="1372" type="curve" smooth="yes"/>
      <point x="244" y="1372"/>
      <point x="218" y="1370"/>
    </contour>
  </outline>
</glyph>
<glyph name="germandbls" format="2">
  <advance width="1216"/>
  <unicode hex="00DF"/>
  <outline>
    <contour>
      <point x="286" y="936" type="line"/>
      <point x="50" y="940" type="line"/>
      <point x="46" y="920"/>
      <point x="44" y="900"/>
      <point x="44" y="880" type="curve" smooth="yes"/>
      <point x="44" y="860"/>
      <point x="46" y="836"/>
      <point x="50" y="818" type="curve"/>
      <point x="288" y="822" type="line"/>
    </contour>
    <contour>
      <point x="222" y="1022" type="curve" smooth="yes"/>
      <point x="222" y="0" type="line"/>
      <point x="242" y="-4"/>
      <point x="270" y="-6"/>
      <point x="292" y="-6" type="curve" smooth="yes"/>
      <point x="314" y="-6"/>
      <point x="342" y="-4"/>
      <point x="362" y="0" type="curve"/>
      <point x="362" y="1006" type="line" smooth="yes"/>
      <point x="362" y="1176"/>
      <point x="446" y="1288"/>
      <point x="622" y="1288" type="curve" smooth="yes"/>
      <point x="813" y="1288"/>
      <point x="896" y="1156"/>
      <point x="896" y="1002" type="curve" smooth="yes"/>
      <point x="896" y="949"/>
      <point x="886" y="896"/>
      <point x="856" y="842" type="curve"/>
      <point x="1006" y="854" type="line"/>
      <point x="1024" y="910"/>
      <point x="1034" y="963"/>
      <point x="1034" y="1019" type="curve" smooth="yes"/>
      <point x="1034" y="1240"/>
      <point x="881" y="1396"/>
      <point x="628" y="1396" type="curve" smooth="yes"/>
      <point x="394" y="1396"/>
      <point x="222" y="1262"/>
    </contour>
    <contour>
      <point x="550" y="48" type="curve"/>
      <point x="622" y="0"/>
      <point x="725" y="-24"/>
      <point x="814" y="-24" type="curve" smooth="yes"/>
      <point x="1017" y="-24"/>
      <point x="1138" y="94"/>
      <point x="1138" y="235" type="curve" smooth="yes"/>
      <point x="1138" y="334"/>
      <point x="1078" y="425"/>
      <point x="986" y="493" type="curve" smooth="yes"/>
      <point x="912" y="548" type="line" smooth="yes"/>
      <point x="885" y="568"/>
      <point x="820" y="618"/>
      <point x="820" y="685" type="curve" smooth="yes"/>
      <point x="820" y="742"/>
      <point x="868" y="816"/>
      <point x="1006" y="852" type="curve"/>
      <point x="901" y="932" type="line"/>
      <point x="775" y="890"/>
      <point x="676" y="801"/>
      <point x="676" y="681" type="curve" smooth="yes"/>
      <point x="676" y="568"/>
      <point x="764" y="495"/>
      <point x="814" y="456" type="curve" smooth="yes"/>
      <point x="894" y="393" type="line" smooth="yes"/>
      <point x="945" y="353"/>
      <point x="988" y="296"/>
      <point x="988" y="232" type="curve" smooth="yes"/>
      <point x="988" y="151"/>
      <point x="919" y="90"/>
      <point x="809" y="90" type="curve" smooth="yes"/>
      <point x="742" y="90"/>
      <point x="664" y="113"/>
      <point x="606" y="154" type="curve"/>
      <point x="575" y="130"/>
      <point x="552" y="80"/>
    </contour>
  </outline>
</glyph>
<glyph name="Aogonek" format="2">
  <advance width="1188"/>
  <unicode hex="0104"/>
  <anchor x="595" y="-40" name="bottom"/>
  <anchor x="594" y="1464" name="top"/>
  <outline>
    <contour>
      <point x="1188" y="-294" type="curve"/>
      <point x="1156" y="-312"/>
      <point x="1108" y="-330"/>
      <point x="1060" y="-330" type="curve" smooth="yes"/>
      <point x="998" y="-330"/>
      <point x="954" y="-294"/>
      <point x="954" y="-228" type="curve" smooth="yes"/>
      <point x="954" y="-134"/>
      <point x="1036" y="-58"/>
      <point x="1134" y="8" type="curve"/>
      <point x="1036" y="48" type="line"/>
      <point x="920" y="-24"/>
      <point x="828" y="-138"/>
      <point x="828" y="-254" type="curve" smooth="yes"/>
      <point x="828" y="-370"/>
      <point x="914" y="-434"/>
      <point x="1028" y="-434" type="curve" smooth="yes"/>
      <point x="1102" y="-434"/>
      <point x="1180" y="-406"/>
      <point x="1224" y="-370" type="curve"/>
      <point x="1224" y="-336"/>
      <point x="1208" y="-310"/>
    </contour>
    <contour>
      <point x="512" y="1366" type="curve"/>
      <point x="54" y="8" type="line"/>
      <point x="58" y="2" type="line"/>
      <point x="80" y="-4"/>
      <point x="98" y="-8"/>
      <point x="128" y="-8" type="curve" smooth="yes"/>
      <point x="150" y="-8"/>
      <point x="174" y="-6"/>
      <point x="192" y="-2" type="curve"/>
      <point x="514" y="978" type="line" smooth="yes"/>
      <point x="530" y="1028"/>
      <point x="560" y="1132"/>
      <point x="580" y="1208" type="curve"/>
      <point x="590" y="1208" type="line"/>
      <point x="614" y="1120"/>
      <point x="652" y="996"/>
      <point x="692" y="878" type="curve" smooth="yes"/>
      <point x="962" y="62" type="line" smooth="yes"/>
      <point x="982" y="4"/>
      <point x="1002" y="-12"/>
      <point x="1048" y="-12" type="curve" smooth="yes"/>
      <point x="1084" y="-12"/>
      <point x="1112" y="-6"/>
      <point x="1134" y="8" type="curve"/>
      <point x="674" y="1366" type="line"/>
      <point x="658" y="1370"/>
      <point x="618" y="1372"/>
      <point x="596" y="1372" type="curve" smooth="yes"/>
      <point x="572" y="1372"/>
      <point x="534" y="1370"/>
    </contour>
    <contour>
      <point x="452" y="358" type="curve" smooth="yes"/>
      <point x="720" y="358" type="line" smooth="yes"/>
      <point x="732" y="358"/>
      <point x="862" y="360"/>
      <point x="876" y="360" type="curve" smooth="yes"/>
      <point x="930" y="360" type="line"/>
      <point x="888" y="484" type="line"/>
      <point x="840" y="484" type="line" smooth="yes"/>
      <point x="826" y="484"/>
      <point x="716" y="486"/>
      <point x="704" y="486" type="curve" smooth="yes"/>
      <point x="470" y="486" type="line" smooth="yes"/>
      <point x="458" y="486"/>
      <point x="352" y="484"/>
      <point x="338" y="484" type="curve" smooth="yes"/>
      <point x="290" y="484" type="line"/>
      <point x="244" y="360" type="line"/>
      <point x="298" y="360" type="line" smooth="yes"/>
      <point x="312" y="360"/>
      <point x="440" y="358"/>
    </contour>
  </outline>
</glyph>
<glyph name="dcaron" format="2">
  <advance width="1106"/>
  <unicode hex="010F"/>
  <outline>
    <contour>
      <point x="1018" y="1534" type="curve"/>
      <point x="992" y="1132" type="line"/>
      <point x="1004" y="1125"/>
      <point x="1024" y="1119"/>
      <point x="1044" y="1119" type="curve" smooth="yes"/>
      <point x="1056" y="1119"/>
      <point x="1069" y="1121"/>
      <point x="1080" y="1126" type="curve"/>
      <point x="1166" y="1512" type="line"/>
      <point x="1137" y="1530"/>
      <point x="1093" y="1536"/>
      <point x="1056" y="1536" type="curve" smooth="yes"/>
      <point x="1042" y="1536"/>
      <point x="1029" y="1536"/>
    </contour>
    <component base="d"/>
  </outline>
</glyph>
<glyph name="dcroat" format="2">
  <advance width="1054"/>
  <unicode hex="0111"/>
  <anchor x="536" y="0" name="bottom"/>
  <anchor x="485" y="1520" name="top"/>
  <outline>
    <contour>
      <point x="392" y="1150" type="curve"/>
      <point x="772" y="1154" type="line"/>
      <point x="1002" y="1150" type="line"/>
      <point x="1006" y="1170"/>
      <point x="1008" y="1184"/>
      <point x="1008" y="1204" type="curve" smooth="yes"/>
      <point x="1008" y="1224"/>
      <point x="1006" y="1240"/>
      <point x="1002" y="1258" type="curve"/>
      <point x="770" y="1254" type="line"/>
      <point x="392" y="1258" type="line"/>
      <point x="388" y="1240"/>
      <point x="386" y="1224"/>
      <point x="386" y="1204" type="curve" smooth="yes"/>
      <point x="386" y="1184"/>
      <point x="388" y="1170"/>
    </contour>
    <contour>
      <point x="866" y="276" type="curve" smooth="yes"/>
      <point x="866" y="1374" type="line" smooth="yes"/>
      <point x="866" y="1436"/>
      <point x="856" y="1470"/>
      <point x="792" y="1470" type="curve" smooth="yes"/>
      <point x="742" y="1470" type="line"/>
      <point x="730" y="1458" type="line"/>
      <point x="730" y="226" type="line" smooth="yes"/>
      <point x="730" y="122"/>
      <point x="754" y="26"/>
      <point x="856" y="-14" type="curve"/>
      <point x="886" y="0"/>
      <point x="912" y="32"/>
      <point x="922" y="58" type="curve"/>
      <point x="872" y="106"/>
      <point x="866" y="190"/>
    </contour>
    <contour>
      <point x="104" y="478" type="curve" smooth="yes"/>
      <point x="104" y="180"/>
      <point x="220" y="-24"/>
      <point x="438" y="-24" type="curve" smooth="yes"/>
      <point x="620" y="-24"/>
      <point x="754" y="104"/>
      <point x="804" y="222" type="curve"/>
      <point x="780" y="360" type="line"/>
      <point x="730" y="200"/>
      <point x="588" y="98"/>
      <point x="464" y="98" type="curve" smooth="yes"/>
      <point x="350" y="98"/>
      <point x="244" y="206"/>
      <point x="244" y="478" type="curve" smooth="yes"/>
      <point x="244" y="760"/>
      <point x="366" y="874"/>
      <point x="488" y="874" type="curve" smooth="yes"/>
      <point x="610" y="874"/>
      <point x="716" y="796"/>
      <point x="792" y="738" type="curve"/>
      <point x="798" y="864" type="line"/>
      <point x="702" y="940"/>
      <point x="596" y="996"/>
      <point x="476" y="996" type="curve" smooth="yes"/>
      <point x="304" y="996"/>
      <point x="104" y="844"/>
    </contour>
  </outline>
</glyph>
<glyph name="Hbar" format="2">
  <advance width="1354"/>
  <unicode hex="0126"/>
  <outline>
    <contour>
      <point x="60" y="996" type="curve"/>
      <point x="1294" y="996" type="line"/>
      <point x="1298" y="1014"/>
      <point x="1300" y="1030"/>
      <point x="1300" y="1056" type="curve" smooth="yes"/>
      <point x="1300" y="1084"/>
      <point x="1298" y="1100"/>
      <point x="1294" y="1120" type="curve"/>
      <point x="60" y="1120" type="line"/>
      <point x="56" y="1100"/>
      <point x="54" y="1084"/>
      <point x="54" y="1056" type="curve" smooth="yes"/>
      <point x="54" y="1030"/>
      <point x="56" y="1014"/>
    </contour>
    <contour>
      <point x="474" y="642" type="curve" smooth="yes"/>
      <point x="880" y="642" type="line" smooth="yes"/>
      <point x="892" y="642"/>
      <point x="988" y="644"/>
      <point x="1002" y="644" type="curve" smooth="yes"/>
      <point x="1030" y="644"/>
      <point x="1058" y="642"/>
      <point x="1086" y="642" type="curve"/>
      <point x="1086" y="770" type="line"/>
      <point x="1058" y="770"/>
      <point x="1030" y="768"/>
      <point x="1002" y="768" type="curve" smooth="yes"/>
      <point x="988" y="768"/>
      <point x="892" y="770"/>
      <point x="880" y="770" type="curve" smooth="yes"/>
      <point x="474" y="770" type="line" smooth="yes"/>
      <point x="462" y="770"/>
      <point x="366" y="768"/>
      <point x="352" y="768" type="curve" smooth="yes"/>
      <point x="324" y="768"/>
      <point x="296" y="770"/>
      <point x="268" y="770" type="curve"/>
      <point x="268" y="642" type="line"/>
      <point x="296" y="642"/>
      <point x="324" y="644"/>
      <point x="352" y="644" type="curve" smooth="yes"/>
      <point x="366" y="644"/>
      <point x="462" y="642"/>
    </contour>
    <contour>
      <point x="354" y="0" type="curve"/>
      <point x="354" y="496" type="line" smooth="yes"/>
      <point x="354" y="552"/>
      <point x="352" y="590"/>
      <point x="352" y="644" type="curve" smooth="yes"/>
      <point x="352" y="768" type="line" smooth="yes"/>
      <point x="352" y="822"/>
      <point x="354" y="860"/>
      <point x="354" y="916" type="curve" smooth="yes"/>
      <point x="354" y="1366" type="line"/>
      <point x="334" y="1370"/>
      <point x="308" y="1372"/>
      <point x="280" y="1372" type="curve" smooth="yes"/>
      <point x="254" y="1372"/>
      <point x="228" y="1370"/>
      <point x="210" y="1366" type="curve"/>
      <point x="210" y="0" type="line"/>
      <point x="228" y="-4"/>
      <point x="254" y="-6"/>
      <point x="280" y="-6" type="curve" smooth="yes"/>
      <point x="308" y="-6"/>
      <point x="334" y="-4"/>
    </contour>
    <contour>
      <point x="1000" y="496" type="curve" smooth="yes"/>
      <point x="1000" y="0" type="line"/>
      <point x="1018" y="-4"/>
      <point x="1044" y="-6"/>
      <point x="1070" y="-6" type="curve" smooth="yes"/>
      <point x="1098" y="-6"/>
      <point x="1124" y="-4"/>
      <point x="1144" y="0" type="curve"/>
      <point x="1144" y="1366" type="line"/>
      <point x="1124" y="1370"/>
      <point x="1098" y="1372"/>
      <point x="1070" y="1372" type="curve" smooth="yes"/>
      <point x="1044" y="1372"/>
      <point x="1018" y="1370"/>
      <point x="1000" y="1366" type="curve"/>
      <point x="1000" y="916" type="line" smooth="yes"/>
      <point x="1000" y="860"/>
      <point x="1002" y="822"/>
      <point x="1002" y="768" type="curve" smooth="yes"/>
      <point x="1002" y="644" type="line" smooth="yes"/>
      <point x="1002" y="590"/>
      <point x="1000" y="552"/>
    </contour>
  </outline>
</glyph>
<glyph name="iogonek" format="2">
  <advance width="508"/>
  <unicode hex="012F"/>
  <anchor x="232" y="1084" name="_top"/>
  <anchor x="264" y="-452" name="bottom"/>
  <anchor x="228" y="1084" name="top"/>
  <outline>
    <contour>
      <point x="264" y="-6" type="curve" smooth="yes"/>
      <point x="290" y="-6"/>
      <point x="314" y="-4"/>
      <point x="332" y="0" type="curve"/>
      <point x="332" y="848" type="line" smooth="yes"/>
      <point x="332" y="934"/>
      <point x="286" y="986"/>
      <point x="206" y="986" type="curve" smooth="yes"/>
      <point x="190" y="986" type="line" smooth="yes"/>
      <point x="170" y="986"/>
      <point x="138" y="984"/>
      <point x="94" y="978" type="curve"/>
      <point x="90" y="958"/>
      <point x="88" y="944"/>
      <point x="88" y="926" type="curve" smooth="yes"/>
      <point x="88" y="908"/>
      <point x="90" y="892"/>
      <point x="94" y="874" type="curve"/>
      <point x="112" y="874" type="line" smooth="yes"/>
      <point x="174" y="874"/>
      <point x="194" y="852"/>
      <point x="194" y="778" type="curve" smooth="yes"/>
      <point x="194" y="0" type="line"/>
      <point x="212" y="-4"/>
      <point x="236" y="-6"/>
    </contour>
    <contour>
      <point x="250" y="-434" type="curve" smooth="yes"/>
      <point x="324" y="-434"/>
      <point x="398" y="-406"/>
      <point x="442" y="-370" type="curve"/>
      <point x="442" y="-336"/>
      <point x="426" y="-310"/>
      <point x="406" y="-294" type="curve"/>
      <point x="372" y="-312"/>
      <point x="330" y="-330"/>
      <point x="282" y="-330" type="curve" smooth="yes"/>
      <point x="220" y="-330"/>
      <point x="176" y="-294"/>
      <point x="176" y="-228" type="curve" smooth="yes"/>
      <point x="176" y="-146"/>
      <point x="234" y="-72"/>
      <point x="332" y="0" type="curve"/>
      <point x="314" y="22"/>
      <point x="284" y="42"/>
      <point x="254" y="42" type="curve"/>
      <point x="138" y="-30"/>
      <point x="50" y="-138"/>
      <point x="50" y="-254" type="curve" smooth="yes"/>
      <point x="50" y="-370"/>
      <point x="136" y="-434"/>
    </contour>
    <contour>
      <point x="232" y="1156" type="curve" smooth="yes"/>
      <point x="258" y="1156"/>
      <point x="304" y="1164"/>
      <point x="318" y="1176" type="curve"/>
      <point x="326" y="1192"/>
      <point x="332" y="1224"/>
      <point x="332" y="1248" type="curve" smooth="yes"/>
      <point x="332" y="1272"/>
      <point x="326" y="1304"/>
      <point x="318" y="1320" type="curve"/>
      <point x="302" y="1332"/>
      <point x="258" y="1340"/>
      <point x="232" y="1340" type="curve" smooth="yes"/>
      <point x="202" y="1340"/>
      <point x="164" y="1332"/>
      <point x="146" y="1320" type="curve"/>
      <point x="138" y="1304"/>
      <point x="132" y="1272"/>
      <point x="132" y="1248" type="curve" smooth="yes"/>
      <point x="132" y="1224"/>
      <point x="138" y="1192"/>
      <point x="146" y="1176" type="curve"/>
      <point x="164" y="1164"/>
      <point x="202" y="1156"/>
    </contour>
  </outline>
</glyph>
<glyph name="idotless" format="2">
  <advance width="508"/>
  <unicode hex="0131"/>
  <anchor x="264" y="0" name="bottom"/>
  <anchor x="332" y="0" name="ogonek"/>
  <anchor x="232" y="1084" name="top"/>
  <outline>
    <contour>
      <point x="332" y="0" type="curve"/>
      <point x="332" y="848" type="line" smooth="yes"/>
      <point x="332" y="934"/>
      <point x="286" y="986"/>
      <point x="206" y="986" type="curve" smooth="yes"/>
      <point x="190" y="986" type="line" smooth="yes"/>
      <point x="170" y="986"/>
      <point x="138" y="984"/>
      <point x="94" y="978" type="curve"/>
      <point x="90" y="958"/>
      <point x="88" y="944"/>
      <point x="88" y="926" type="curve" smooth="yes"/>
      <point x="88" y="908"/>
      <point x="90" y="892"/>
      <point x="94" y="874" type="curve"/>
      <point x="112" y="874" type="line" smooth="yes"/>
      <point x="174" y="874"/>
      <point x="194" y="852"/>
      <point x="194" y="778" type="curve" smooth="yes"/>
      <point x="194" y="0" type="line"/>
      <point x="212" y="-4"/>
      <point x="236" y="-6"/>
      <point x="264" y="-6" type="curve" smooth="yes"/>
      <point x="290" y="-6"/>
      <point x="314" y="-4"/>
    </contour>
  </outline>
</glyph>
<glyph name="lcaron" format="2">
  <advance width="562"/>
  <unicode hex="013E"/>
  <outline>
    <contour>
      <point x="464" y="1534" type="curve"/>
      <point x="438" y="1132" type="line"/>
      <point x="450" y="1125"/>
      <point x="470" y="1119"/>
      <point x="490" y="1119" type="curve" smooth="yes"/>
      <point x="502" y="1119"/>
      <point x="515" y="1121"/>
      <point x="526" y="1126" type="curve"/>
      <point x="612" y="1512" type="line"/>
      <point x="583" y="1530"/>
      <point x="539" y="1536"/>
      <point x="502" y="1536" type="curve" smooth="yes"/>
      <point x="488" y="1536"/>
      <point x="475" y="1536"/>
    </contour>
    <component base="l"/>
  </outline>
</glyph>
<glyph name="Lslash" format="2">
  <advance width="1018"/>
  <unicode hex="0141"/>
  <outline>
    <contour>
      <point x="332" y="634" type="line"/>
      <point x="744" y="766" type="line"/>
      <point x="752" y="800"/>
      <point x="752" y="846"/>
      <point x="742" y="882" type="curve"/>
      <point x="732" y="888" type="line"/>
      <point x="332" y="758" type="line"/>
      <point x="248" y="736" type="line"/>
      <point x="60" y="674" type="line"/>
      <point x="52" y="640"/>
      <point x="52" y="594"/>
      <point x="62" y="558" type="curve"/>
      <point x="72" y="552" type="line"/>
      <point x="248" y="612" type="line"/>
    </contour>
    <contour>
      <point x="352" y="0" type="line"/>
      <point x="352" y="1278" type="line" smooth="yes"/>
      <point x="352" y="1340"/>
      <point x="342" y="1372"/>
      <point x="278" y="1372" type="curve" smooth="yes"/>
      <point x="220" y="1372" type="line"/>
      <point x="208" y="1360" type="line"/>
      <point x="208" y="98" type="line" smooth="yes"/>
      <point x="208" y="32"/>
      <point x="246" y="0"/>
      <point x="292" y="0" type="curve" smooth="yes"/>
    </contour>
    <contour>
      <point x="954" y="128" type="curve"/>
      <point x="524" y="128" type="line" smooth="yes"/>
      <point x="434" y="128"/>
      <point x="312" y="122"/>
      <point x="222" y="108" type="curve"/>
      <point x="292" y="0" type="line"/>
      <point x="858" y="0" type="line" smooth="yes"/>
      <point x="925" y="0"/>
      <point x="954" y="23"/>
    </contour>
  </outline>
</glyph>
<glyph name="lslash" format="2">
  <advance width="628"/>
  <unicode hex="0142"/>
  <outline>
    <contour>
      <point x="90" y="588" type="line"/>
      <point x="544" y="838" type="line"/>
      <point x="552" y="872"/>
      <point x="552" y="914"/>
      <point x="542" y="950" type="curve"/>
      <point x="532" y="956" type="line"/>
      <point x="78" y="706" type="line"/>
      <point x="70" y="672"/>
      <point x="70" y="630"/>
      <point x="80" y="594" type="curve"/>
    </contour>
    <contour>
      <point x="528" y="108" type="curve"/>
      <point x="442" y="108" type="line" smooth="yes"/>
      <point x="394" y="108"/>
      <point x="368" y="136"/>
      <point x="368" y="192" type="curve" smooth="yes"/>
      <point x="368" y="1374" type="line" smooth="yes"/>
      <point x="368" y="1436"/>
      <point x="358" y="1470"/>
      <point x="294" y="1470" type="curve" smooth="yes"/>
      <point x="244" y="1470" type="line"/>
      <point x="232" y="1458" type="line"/>
      <point x="232" y="152" type="line" smooth="yes"/>
      <point x="232" y="48"/>
      <point x="300" y="-8"/>
      <point x="396" y="-8" type="curve" smooth="yes"/>
      <point x="436" y="-8"/>
      <point x="500" y="-2"/>
      <point x="538" y="4" type="curve"/>
      <point x="540" y="12"/>
      <point x="540" y="22"/>
      <point x="540" y="32" type="curve" smooth="yes"/>
      <point x="540" y="60"/>
      <point x="536" y="88"/>
    </contour>
  </outline>
</glyph>
<glyph name="napostrophe" format="2">
  <advance width="1090"/>
  <unicode hex="0149"/>
  <anchor x="552" y="0" name="bottom"/>
  <anchor x="554" y="1084" name="top"/>
  <outline>
    <contour>
      <point x="244" y="986" type="curve" smooth="yes"/>
      <point x="192" y="986" type="line"/>
      <point x="180" y="974" type="line"/>
      <point x="180" y="0" type="line"/>
      <point x="198" y="-4"/>
      <point x="222" y="-6"/>
      <point x="250" y="-6" type="curve" smooth="yes"/>
      <point x="276" y="-6"/>
      <point x="300" y="-4"/>
      <point x="318" y="0" type="curve"/>
      <point x="318" y="890" type="line" smooth="yes"/>
      <point x="318" y="952"/>
      <point x="308" y="986"/>
    </contour>
    <contour>
      <point x="922" y="186" type="curve" smooth="yes"/>
      <point x="922" y="688" type="line" smooth="yes"/>
      <point x="922" y="856"/>
      <point x="856" y="998"/>
      <point x="666" y="998" type="curve" smooth="yes"/>
      <point x="520" y="998"/>
      <point x="366" y="920"/>
      <point x="280" y="810" type="curve"/>
      <point x="280" y="660" type="line"/>
      <point x="346" y="776"/>
      <point x="508" y="872"/>
      <point x="634" y="872" type="curve" smooth="yes"/>
      <point x="752" y="872"/>
      <point x="784" y="804"/>
      <point x="784" y="642" type="curve" smooth="yes"/>
      <point x="784" y="80" type="line" smooth="yes"/>
      <point x="784" y="18"/>
      <point x="804" y="-12"/>
      <point x="856" y="-12" type="curve" smooth="yes"/>
      <point x="888" y="-12"/>
      <point x="924" y="0"/>
      <point x="944" y="18" type="curve"/>
      <point x="926" y="62"/>
      <point x="922" y="122"/>
    </contour>
    <contour>
      <point x="276" y="1460" type="curve"/>
      <point x="260" y="1472"/>
      <point x="215" y="1480"/>
      <point x="186" y="1480" type="curve" smooth="yes"/>
      <point x="154" y="1480"/>
      <point x="108" y="1470"/>
      <point x="92" y="1460" type="curve"/>
      <point x="82" y="1449"/>
      <point x="76" y="1408"/>
      <point x="76" y="1380" type="curve" smooth="yes"/>
      <point x="76" y="1355"/>
      <point x="84" y="1320"/>
      <point x="92" y="1306" type="curve"/>
      <point x="106" y="1296"/>
      <point x="143" y="1291"/>
      <point x="162" y="1289" type="curve"/>
      <point x="160" y="1226"/>
      <point x="113" y="1171"/>
      <point x="53" y="1138" type="curve"/>
      <point x="51" y="1113"/>
      <point x="69" y="1080"/>
      <point x="94" y="1068" type="curve"/>
      <point x="225" y="1123"/>
      <point x="293" y="1228"/>
      <point x="293" y="1357" type="curve" smooth="yes"/>
      <point x="293" y="1394"/>
      <point x="287" y="1437"/>
    </contour>
  </outline>
</glyph>
<glyph name="eng" format="2">
  <advance width="1090"/>
  <unicode hex="014B"/>
  <outline>
    <contour>
      <point x="244" y="986" type="curve" smooth="yes"/>
      <point x="192" y="986" type="line"/>
      <point x="180" y="974" type="line"/>
      <point x="180" y="0" type="line"/>
      <point x="198" y="-4"/>
      <point x="222" y="-6"/>
      <point x="250" y="-6" type="curve" smooth="yes"/>
      <point x="276" y="-6"/>
      <point x="300" y="-4"/>
      <point x="318" y="0" type="curve"/>
      <point x="318" y="890" type="line" smooth="yes"/>
      <point x="318" y="952"/>
      <point x="308" y="986"/>
    </contour>
    <contour>
      <point x="922" y="-80" type="curve" smooth="yes"/>
      <point x="922" y="688" type="line" smooth="yes"/>
      <point x="922" y="856"/>
      <point x="856" y="998"/>
      <point x="666" y="998" type="curve" smooth="yes"/>
      <point x="520" y="998"/>
      <point x="366" y="920"/>
      <point x="280" y="810" type="curve"/>
      <point x="280" y="660" type="line"/>
      <point x="346" y="776"/>
      <point x="508" y="872"/>
      <point x="634" y="872" type="curve" smooth="yes"/>
      <point x="752" y="872"/>
      <point x="784" y="804"/>
      <point x="784" y="642" type="curve" smooth="yes"/>
      <point x="784" y="-102" type="line" smooth="yes"/>
      <point x="784" y="-232"/>
      <point x="758" y="-290"/>
      <point x="648" y="-350" type="curve"/>
      <point x="658" y="-390"/>
      <point x="674" y="-418"/>
      <point x="692" y="-438" type="curve"/>
      <point x="855" y="-387"/>
      <point x="922" y="-314"/>
    </contour>
  </outline>
</glyph>
<glyph name="Tbar" format="2">
  <advance width="962"/>
  <unicode hex="0166"/>
  <anchor x="482" y="0" name="bottom"/>
  <anchor x="480" y="1464" name="top"/>
  <outline>
    <contour>
      <point x="156" y="616" type="curve"/>
      <point x="808" y="616" type="line"/>
      <point x="812" y="634"/>
      <point x="814" y="650"/>
      <point x="814" y="676" type="curve" smooth="yes"/>
      <point x="814" y="704"/>
      <point x="812" y="720"/>
      <point x="808" y="740" type="curve"/>
      <point x="156" y="740" type="line"/>
      <point x="152" y="720"/>
      <point x="150" y="704"/>
      <point x="150" y="676" type="curve" smooth="yes"/>
      <point x="150" y="650"/>
      <point x="152" y="634"/>
    </contour>
    <contour>
      <point x="44" y="1242" type="curve"/>
      <point x="302" y="1242" type="line" smooth="yes"/>
      <point x="328" y="1242"/>
      <point x="384" y="1244"/>
      <point x="410" y="1244" type="curve" smooth="yes"/>
      <point x="554" y="1244" type="line" smooth="yes"/>
      <point x="580" y="1244"/>
      <point x="638" y="1242"/>
      <point x="662" y="1242" type="curve" smooth="yes"/>
      <point x="840" y="1242" type="line" smooth="yes"/>
      <point x="900" y="1242"/>
      <point x="928" y="1260"/>
      <point x="928" y="1306" type="curve" smooth="yes"/>
      <point x="928" y="1326"/>
      <point x="924" y="1348"/>
      <point x="918" y="1366" type="curve"/>
      <point x="44" y="1366" type="line"/>
      <point x="40" y="1344"/>
      <point x="38" y="1324"/>
      <point x="38" y="1304" type="curve" smooth="yes"/>
      <point x="38" y="1284"/>
      <point x="40" y="1262"/>
    </contour>
    <contour>
      <point x="410" y="1096" type="curve" smooth="yes"/>
      <point x="410" y="0" type="line"/>
      <point x="430" y="-4"/>
      <point x="458" y="-6"/>
      <point x="482" y="-6" type="curve" smooth="yes"/>
      <point x="506" y="-6"/>
      <point x="534" y="-4"/>
      <point x="554" y="0" type="curve"/>
      <point x="554" y="1096" type="line" smooth="yes"/>
      <point x="554" y="1150"/>
      <point x="554" y="1188"/>
      <point x="554" y="1244" type="curve" smooth="yes"/>
      <point x="554" y="1304" type="line"/>
      <point x="410" y="1304" type="line"/>
      <point x="410" y="1244" type="line" smooth="yes"/>
      <point x="410" y="1188"/>
      <point x="410" y="1150"/>
    </contour>
  </outline>
</glyph>
<glyph name="Uogonek" format="2">
  <advance width="1332"/>
  <unicode hex="0172"/>
  <outline>
    <contour>
      <point x="184" y="464" type="line" smooth="yes"/>
      <point x="184" y="138"/>
      <point x="386" y="-24"/>
      <point x="664" y="-24" type="curve" smooth="yes"/>
      <point x="697" y="-24"/>
      <point x="738" y="-22"/>
      <point x="769" y="-16" type="curve"/>
      <point x="760" y="9" type="line"/>
      <point x="660" y="-58"/>
      <point x="600" y="-153"/>
      <point x="600" y="-254" type="curve" smooth="yes"/>
      <point x="600" y="-370"/>
      <point x="686" y="-434"/>
      <point x="800" y="-434" type="curve" smooth="yes"/>
      <point x="874" y="-434"/>
      <point x="952" y="-406"/>
      <point x="996" y="-370" type="curve"/>
      <point x="996" y="-336"/>
      <point x="980" y="-310"/>
      <point x="960" y="-294" type="curve"/>
      <point x="926" y="-312"/>
      <point x="880" y="-330"/>
      <point x="834" y="-330" type="curve" smooth="yes"/>
      <point x="770" y="-330"/>
      <point x="726" y="-296"/>
      <point x="726" y="-225" type="curve" smooth="yes"/>
      <point x="726" y="-102"/>
      <point x="850" y="-17"/>
      <point x="936" y="43" type="curve" smooth="yes"/>
      <point x="1105" y="162"/>
      <point x="1148" y="293"/>
      <point x="1148" y="486" type="curve" smooth="yes"/>
      <point x="1148" y="1366" type="line"/>
      <point x="1128" y="1370"/>
      <point x="1102" y="1372"/>
      <point x="1074" y="1372" type="curve" smooth="yes"/>
      <point x="1048" y="1372"/>
      <point x="1022" y="1370"/>
      <point x="1004" y="1366" type="curve"/>
      <point x="1004" y="466" type="line" smooth="yes"/>
      <point x="1004" y="224"/>
      <point x="878" y="96"/>
      <point x="666" y="96" type="curve" smooth="yes"/>
      <point x="454" y="96"/>
      <point x="328" y="224"/>
      <point x="328" y="466" type="curve" smooth="yes"/>
      <point x="328" y="1278" type="line" smooth="yes"/>
      <point x="328" y="1340"/>
      <point x="318" y="1372"/>
      <point x="254" y="1372" type="curve" smooth="yes"/>
      <point x="196" y="1372" type="line"/>
      <point x="184" y="1360" type="line"/>
    </contour>
  </outline>
</glyph>
<glyph name="longs" format="2">
  <advance width="686"/>
  <unicode hex="017F"/>
  <outline>
    <contour>
      <point x="294" y="978" type="line"/>
      <point x="58" y="982" type="line"/>
      <point x="54" y="962"/>
      <point x="52" y="940"/>
      <point x="52" y="920" type="curve" smooth="yes"/>
      <point x="52" y="900"/>
      <point x="54" y="878"/>
      <point x="58" y="860" type="curve"/>
      <point x="294" y="864" type="line"/>
    </contour>
    <contour>
      <point x="230" y="1138" type="curve" smooth="yes"/>
      <point x="230" y="0" type="line"/>
      <point x="250" y="-4"/>
      <point x="278" y="-6"/>
      <point x="300" y="-6" type="curve" smooth="yes"/>
      <point x="322" y="-6"/>
      <point x="350" y="-4"/>
      <point x="370" y="0" type="curve"/>
      <point x="370" y="1124" type="line" smooth="yes"/>
      <point x="370" y="1264"/>
      <point x="414" y="1368"/>
      <point x="554" y="1368" type="curve" smooth="yes"/>
      <point x="592" y="1368"/>
      <point x="656" y="1356"/>
      <point x="708" y="1334" type="curve"/>
      <point x="730" y="1358"/>
      <point x="742" y="1398"/>
      <point x="742" y="1432" type="curve"/>
      <point x="686" y="1458"/>
      <point x="606" y="1476"/>
      <point x="536" y="1476" type="curve" smooth="yes"/>
      <point x="344" y="1476"/>
      <point x="230" y="1344"/>
    </contour>
  </outline>
</glyph>
<glyph name="Schwa" format="2">
  <advance width="1266"/>
  <unicode hex="018F"/>
  <outline>
    <contour>
      <point x="1034" y="739" type="line"/>
      <point x="126" y="739" type="line"/>
      <point x="118" y="680"/>
      <point x="116" y="616"/>
      <point x="116" y="576" type="curve" smooth="yes"/>
      <point x="116" y="193"/>
      <point x="292" y="-24"/>
      <point x="602" y="-24" type="curve" smooth="yes"/>
      <point x="931" y="-24"/>
      <point x="1150" y="219"/>
      <point x="1150" y="682" type="curve" smooth="yes"/>
      <point x="1150" y="1142"/>
      <point x="935" y="1389"/>
      <point x="577" y="1389" type="curve" smooth="yes"/>
      <point x="421" y="1389"/>
      <point x="271" y="1342"/>
      <point x="145" y="1276" type="curve"/>
      <point x="146" y="1234"/>
      <point x="168" y="1183"/>
      <point x="207" y="1155" type="curve"/>
      <point x="324" y="1223"/>
      <point x="445" y="1261"/>
      <point x="565" y="1261" type="curve" smooth="yes"/>
      <point x="834" y="1261"/>
      <point x="996" y="1075"/>
      <point x="996" y="715" type="curve" smooth="yes"/>
      <point x="996" y="635" type="line" smooth="yes"/>
      <point x="996" y="299"/>
      <point x="843" y="97"/>
      <point x="605" y="97" type="curve" smooth="yes"/>
      <point x="392" y="97"/>
      <point x="270" y="259"/>
      <point x="270" y="528" type="curve" smooth="yes"/>
      <point x="270" y="615" type="line"/>
      <point x="1034" y="615" type="line"/>
    </contour>
  </outline>
</glyph>
<glyph name="Ohorn" format="2">
  <advance width="1304"/>
  <unicode hex="01A0"/>
  <anchor x="652" y="0" name="bottom"/>
  <anchor x="836" y="8" name="ogonek"/>
  <anchor x="652" y="1464" name="top"/>
  <outline>
    <contour>
      <point x="116" y="684" type="curve" smooth="yes"/>
      <point x="116" y="297"/>
      <point x="285" y="-24"/>
      <point x="652" y="-24" type="curve" smooth="yes"/>
      <point x="1017" y="-24"/>
      <point x="1188" y="294"/>
      <point x="1188" y="684" type="curve" smooth="yes"/>
      <point x="1188" y="915"/>
      <point x="1127" y="1122"/>
      <point x="1003" y="1248" type="curve"/>
      <point x="1130" y="1269"/>
      <point x="1210" y="1343"/>
      <point x="1210" y="1456" type="curve" smooth="yes"/>
      <point x="1210" y="1515"/>
      <point x="1187" y="1580"/>
      <point x="1162" y="1616" type="curve"/>
      <point x="1112" y="1618"/>
      <point x="1067" y="1598"/>
      <point x="1035" y="1564" type="curve"/>
      <point x="1053" y="1535"/>
      <point x="1070" y="1487"/>
      <point x="1070" y="1452" type="curve" smooth="yes"/>
      <point x="1070" y="1397"/>
      <point x="1028" y="1354"/>
      <point x="929" y="1354" type="curve" smooth="yes"/>
      <point x="838" y="1354"/>
      <point x="785" y="1390"/>
      <point x="659" y="1390" type="curve" smooth="yes"/>
      <point x="285" y="1390"/>
      <point x="116" y="1071"/>
    </contour>
    <contour>
      <point x="268" y="684" type="curve" smooth="yes"/>
      <point x="268" y="946"/>
      <point x="342" y="1268"/>
      <point x="652" y="1268" type="curve" smooth="yes"/>
      <point x="962" y="1268"/>
      <point x="1034" y="946"/>
      <point x="1034" y="684" type="curve" smooth="yes"/>
      <point x="1034" y="422"/>
      <point x="962" y="98"/>
      <point x="652" y="98" type="curve" smooth="yes"/>
      <point x="342" y="98"/>
      <point x="268" y="422"/>
    </contour>
  </outline>
</glyph>
<glyph name="ohorn" format="2">
  <advance width="1038"/>
  <unicode hex="01A1"/>
  <anchor x="518" y="0" name="bottom"/>
  <anchor x="662" y="0" name="ogonek"/>
  <anchor x="518" y="1084" name="top"/>
  <outline>
    <contour>
      <point x="106" y="490" type="curve" smooth="yes"/>
      <point x="106" y="197"/>
      <point x="244" y="-24"/>
      <point x="518" y="-24" type="curve" smooth="yes"/>
      <point x="791" y="-24"/>
      <point x="932" y="193"/>
      <point x="932" y="490" type="curve" smooth="yes"/>
      <point x="932" y="649"/>
      <point x="891" y="786"/>
      <point x="811" y="879" type="curve"/>
      <point x="927" y="904"/>
      <point x="979" y="980"/>
      <point x="979" y="1064" type="curve" smooth="yes"/>
      <point x="979" y="1124"/>
      <point x="951" y="1187"/>
      <point x="927" y="1214" type="curve"/>
      <point x="884" y="1215"/>
      <point x="844" y="1196"/>
      <point x="815" y="1164" type="curve"/>
      <point x="832" y="1137"/>
      <point x="850" y="1099"/>
      <point x="850" y="1065" type="curve" smooth="yes"/>
      <point x="850" y="1007"/>
      <point x="803" y="971"/>
      <point x="735" y="971" type="curve" smooth="yes"/>
      <point x="669" y="971"/>
      <point x="620" y="1004"/>
      <point x="517" y="1004" type="curve" smooth="yes"/>
      <point x="258" y="1004"/>
      <point x="106" y="798"/>
    </contour>
    <contour>
      <point x="250" y="489" type="curve" smooth="yes"/>
      <point x="250" y="688"/>
      <point x="316" y="896"/>
      <point x="519" y="896" type="curve" smooth="yes"/>
      <point x="722" y="896"/>
      <point x="788" y="688"/>
      <point x="788" y="489" type="curve" smooth="yes"/>
      <point x="788" y="290"/>
      <point x="722" y="86"/>
      <point x="519" y="86" type="curve" smooth="yes"/>
      <point x="316" y="86"/>
      <point x="250" y="290"/>
    </contour>
  </outline>
</glyph>
<glyph name="Oogonek" format="2">
  <advance width="1304"/>
  <unicode hex="01EA"/>
  <anchor x="652" y="-450" name="bottom"/>
  <anchor x="652" y="1464" name="top"/>
  <outline>
    <contour>
      <point x="116" y="682" type="curve" smooth="yes"/>
      <point x="116" y="297"/>
      <point x="285" y="-24"/>
      <point x="655" y="-24" type="curve" smooth="yes"/>
      <point x="662" y="-24"/>
      <point x="697" y="-24"/>
      <point x="718" y="-22" type="curve"/>
      <point x="702" y="9" type="line"/>
      <point x="587" y="-66"/>
      <point x="526" y="-157"/>
      <point x="526" y="-254" type="curve" smooth="yes"/>
      <point x="526" y="-370"/>
      <point x="612" y="-434"/>
      <point x="726" y="-434" type="curve" smooth="yes"/>
      <point x="800" y="-434"/>
      <point x="878" y="-406"/>
      <point x="922" y="-370" type="curve"/>
      <point x="922" y="-336"/>
      <point x="906" y="-310"/>
      <point x="886" y="-294" type="curve"/>
      <point x="852" y="-312"/>
      <point x="806" y="-330"/>
      <point x="760" y="-330" type="curve" smooth="yes"/>
      <point x="696" y="-330"/>
      <point x="652" y="-295"/>
      <point x="652" y="-226" type="curve" smooth="yes"/>
      <point x="652" y="-108"/>
      <point x="785" y="-32"/>
      <point x="875" y="26" type="curve" smooth="yes"/>
      <point x="1047" y="138"/>
      <point x="1188" y="301"/>
      <point x="1188" y="679" type="curve" smooth="yes"/>
      <point x="1188" y="1110"/>
      <point x="992" y="1390"/>
      <point x="651" y="1390" type="curve" smooth="yes"/>
      <point x="288" y="1390"/>
      <point x="116" y="1072"/>
    </contour>
    <contour>
      <point x="268" y="684" type="curve" smooth="yes"/>
      <point x="268" y="946"/>
      <point x="342" y="1268"/>
      <point x="652" y="1268" type="curve" smooth="yes"/>
      <point x="962" y="1268"/>
      <point x="1034" y="946"/>
      <point x="1034" y="684" type="curve" smooth="yes"/>
      <point x="1034" y="422"/>
      <point x="962" y="98"/>
      <point x="652" y="98" type="curve" smooth="yes"/>
      <point x="342" y="98"/>
      <point x="268" y="422"/>
    </contour>
  </outline>
</glyph>
<glyph name="jdotless" format="2">
  <advance width="522"/>
  <unicode hex="0237"/>
  <anchor x="246" y="-464" name="bottom"/>
  <anchor x="246" y="1084" name="top"/>
  <outline>
    <contour>
      <point x="346" y="-95" type="curve" smooth="yes"/>
      <point x="346" y="848" type="line" smooth="yes"/>
      <point x="346" y="934"/>
      <point x="300" y="986"/>
      <point x="224" y="986" type="curve" smooth="yes"/>
      <point x="208" y="986" type="line" smooth="yes"/>
      <point x="182" y="986"/>
      <point x="134" y="984"/>
      <point x="90" y="978" type="curve"/>
      <point x="86" y="958"/>
      <point x="84" y="944"/>
      <point x="84" y="926" type="curve" smooth="yes"/>
      <point x="84" y="908"/>
      <point x="86" y="892"/>
      <point x="90" y="874" type="curve"/>
      <point x="126" y="874" type="line" smooth="yes"/>
      <point x="188" y="874"/>
      <point x="208" y="852"/>
      <point x="208" y="778" type="curve" smooth="yes"/>
      <point x="208" y="-102" type="line" smooth="yes"/>
      <point x="208" y="-245"/>
      <point x="182" y="-290"/>
      <point x="72" y="-350" type="curve"/>
      <point x="82" y="-390"/>
      <point x="98" y="-418"/>
      <point x="116" y="-438" type="curve"/>
      <point x="285" y="-386"/>
      <point x="346" y="-300"/>
    </contour>
  </outline>
</glyph>
<glyph name="primemod" format="2">
  <advance width="442"/>
  <unicode hex="02B9"/>
  <outline>
    <contour>
      <point x="148" y="918" type="curve"/>
      <point x="431" y="1430" type="line"/>
      <point x="390" y="1469"/>
      <point x="325" y="1488"/>
      <point x="271" y="1488" type="curve"/>
      <point x="64" y="964" type="line"/>
      <point x="83" y="939"/>
      <point x="116" y="922"/>
    </contour>
  </outline>
</glyph>
<glyph name="doubleprimemod" format="2">
  <advance width="755"/>
  <unicode hex="02BA"/>
  <outline>
    <contour>
      <point x="461" y="918" type="curve"/>
      <point x="744" y="1430" type="line"/>
      <point x="703" y="1469"/>
      <point x="638" y="1488"/>
      <point x="584" y="1488" type="curve"/>
      <point x="377" y="964" type="line"/>
      <point x="396" y="939"/>
      <point x="429" y="922"/>
    </contour>
    <contour>
      <point x="148" y="918" type="curve"/>
      <point x="416" y="1430" type="line"/>
      <point x="375" y="1469"/>
      <point x="310" y="1488"/>
      <point x="256" y="1488" type="curve"/>
      <point x="64" y="964" type="line"/>
      <point x="83" y="939"/>
      <point x="116" y="922"/>
    </contour>
  </outline>
</glyph>
<glyph name="commaturnedmod" format="2">
  <advance width="319"/>
  <unicode hex="02BB"/>
  <outline>
    <contour>
      <point x="61" y="1085" type="curve"/>
      <point x="77" y="1073"/>
      <point x="123" y="1065"/>
      <point x="153" y="1065" type="curve" smooth="yes"/>
      <point x="185" y="1065"/>
      <point x="233" y="1075"/>
      <point x="249" y="1085" type="curve"/>
      <point x="259" y="1097"/>
      <point x="265" y="1139"/>
      <point x="265" y="1167" type="curve" smooth="yes"/>
      <point x="265" y="1193"/>
      <point x="257" y="1229"/>
      <point x="249" y="1243" type="curve"/>
      <point x="235" y="1253"/>
      <point x="197" y="1259"/>
      <point x="177" y="1261" type="curve"/>
      <point x="179" y="1325"/>
      <point x="227" y="1381"/>
      <point x="289" y="1415" type="curve"/>
      <point x="291" y="1441"/>
      <point x="273" y="1475"/>
      <point x="247" y="1487" type="curve"/>
      <point x="113" y="1431"/>
      <point x="43" y="1323"/>
      <point x="43" y="1191" type="curve" smooth="yes"/>
      <point x="43" y="1153"/>
      <point x="49" y="1109"/>
    </contour>
  </outline>
</glyph>
<glyph name="ringhalfright" format="2">
  <advance width="500"/>
  <unicode hex="02BE"/>
  <outline>
    <contour>
      <point x="84" y="1363" type="curve"/>
      <point x="108" y="1369"/>
      <point x="134" y="1371"/>
      <point x="150" y="1371" type="curve" smooth="yes"/>
      <point x="245" y="1371"/>
      <point x="319" y="1304"/>
      <point x="319" y="1196" type="curve" smooth="yes"/>
      <point x="319" y="1087"/>
      <point x="248" y="1009"/>
      <point x="131" y="1000" type="curve" smooth="yes"/>
      <point x="105" y="998"/>
      <point x="82" y="1000"/>
      <point x="65" y="1004" type="curve"/>
      <point x="49" y="981"/>
      <point x="41" y="936"/>
      <point x="47" y="899" type="curve"/>
      <point x="74" y="892"/>
      <point x="108" y="891"/>
      <point x="126" y="891" type="curve" smooth="yes"/>
      <point x="335" y="891"/>
      <point x="455" y="1030"/>
      <point x="455" y="1199" type="curve" smooth="yes"/>
      <point x="455" y="1366"/>
      <point x="337" y="1480"/>
      <point x="165" y="1480" type="curve" smooth="yes"/>
      <point x="126" y="1480"/>
      <point x="89" y="1474"/>
      <point x="63" y="1466" type="curve"/>
      <point x="57" y="1429"/>
      <point x="71" y="1382"/>
    </contour>
  </outline>
</glyph>
<glyph name="ringhalfleft" format="2">
  <advance width="500"/>
  <unicode hex="02BF"/>
  <outline>
    <contour>
      <point x="416" y="1008" type="curve"/>
      <point x="392" y="1002"/>
      <point x="366" y="1000"/>
      <point x="350" y="1000" type="curve" smooth="yes"/>
      <point x="255" y="1000"/>
      <point x="181" y="1067"/>
      <point x="181" y="1175" type="curve" smooth="yes"/>
      <point x="181" y="1284"/>
      <point x="252" y="1362"/>
      <point x="369" y="1371" type="curve" smooth="yes"/>
      <point x="395" y="1373"/>
      <point x="418" y="1371"/>
      <point x="435" y="1367" type="curve"/>
      <point x="451" y="1390"/>
      <point x="459" y="1435"/>
      <point x="453" y="1472" type="curve"/>
      <point x="426" y="1479"/>
      <point x="392" y="1480"/>
      <point x="374" y="1480" type="curve" smooth="yes"/>
      <point x="165" y="1480"/>
      <point x="45" y="1341"/>
      <point x="45" y="1172" type="curve" smooth="yes"/>
      <point x="45" y="1005"/>
      <point x="163" y="891"/>
      <point x="335" y="891" type="curve" smooth="yes"/>
      <point x="374" y="891"/>
      <point x="411" y="897"/>
      <point x="437" y="905" type="curve"/>
      <point x="443" y="942"/>
      <point x="429" y="989"/>
    </contour>
  </outline>
</glyph>
<glyph name="gravecomb" format="2">
  <unicode hex="0300"/>
  <anchor x="0" y="1084" name="_top"/>
  <anchor x="0" y="1458" name="top"/>
  <outline>
    <contour>
      <point x="-130" y="1438" type="curve"/>
      <point x="142" y="1132" type="line"/>
      <point x="130" y="1106"/>
      <point x="104" y="1080"/>
      <point x="76" y="1072" type="curve"/>
      <point x="-248" y="1330" type="line"/>
      <point x="-228" y="1376"/>
      <point x="-182" y="1422"/>
    </contour>
  </outline>
</glyph>
<glyph name="acutecomb" format="2">
  <unicode hex="0301"/>
  <anchor x="0" y="1084" name="_top"/>
  <anchor x="0" y="1458" name="top"/>
  <outline>
    <contour>
      <point x="146" y="1438" type="curve"/>
      <point x="-126" y="1132" type="line"/>
      <point x="-114" y="1106"/>
      <point x="-88" y="1080"/>
      <point x="-60" y="1072" type="curve"/>
      <point x="264" y="1330" type="line"/>
      <point x="244" y="1376"/>
      <point x="198" y="1422"/>
    </contour>
  </outline>
</glyph>
<glyph name="tildecomb" format="2">
  <unicode hex="0303"/>
  <anchor x="-1" y="1084" name="_top"/>
  <anchor x="-1" y="1427" name="top"/>
  <outline>
    <contour>
      <point x="-68" y="1195" type="curve" smooth="yes"/>
      <point x="22" y="1145" type="line" smooth="yes"/>
      <point x="49" y="1130"/>
      <point x="84" y="1117"/>
      <point x="123" y="1117" type="curve" smooth="yes"/>
      <point x="196" y="1117"/>
      <point x="262" y="1157"/>
      <point x="302" y="1244" type="curve" smooth="yes"/>
      <point x="320" y="1283" type="line"/>
      <point x="308" y="1307"/>
      <point x="279" y="1327"/>
      <point x="249" y="1329" type="curve"/>
      <point x="223" y="1297" type="line" smooth="yes"/>
      <point x="199" y="1268"/>
      <point x="178" y="1247"/>
      <point x="140" y="1247" type="curve" smooth="yes"/>
      <point x="111" y="1247"/>
      <point x="85" y="1260"/>
      <point x="67" y="1270" type="curve" smooth="yes"/>
      <point x="-24" y="1319" type="line" smooth="yes"/>
      <point x="-48" y="1332"/>
      <point x="-86" y="1347"/>
      <point x="-126" y="1347" type="curve" smooth="yes"/>
      <point x="-201" y="1347"/>
      <point x="-268" y="1298"/>
      <point x="-304" y="1220" type="curve" smooth="yes"/>
      <point x="-322" y="1181" type="line"/>
      <point x="-312" y="1155"/>
      <point x="-281" y="1137"/>
      <point x="-251" y="1135" type="curve"/>
      <point x="-225" y="1167" type="line" smooth="yes"/>
      <point x="-206" y="1190"/>
      <point x="-182" y="1217"/>
      <point x="-139" y="1217" type="curve" smooth="yes"/>
      <point x="-111" y="1217"/>
      <point x="-87" y="1206"/>
    </contour>
  </outline>
</glyph>
<glyph name="brevecomb" format="2">
  <unicode hex="0306"/>
  <anchor x="0" y="1084" name="_top"/>
  <anchor x="0" y="1427" name="top"/>
  <outline>
    <contour>
      <point x="298" y="1334" type="curve"/>
      <point x="280" y="1356"/>
      <point x="246" y="1366"/>
      <point x="216" y="1368" type="curve"/>
      <point x="182" y="1284"/>
      <point x="94" y="1238"/>
      <point x="0" y="1238" type="curve" smooth="yes"/>
      <point x="-94" y="1238"/>
      <point x="-182" y="1284"/>
      <point x="-216" y="1368" type="curve"/>
      <point x="-246" y="1366"/>
      <point x="-280" y="1356"/>
      <point x="-298" y="1334" type="curve"/>
      <point x="-256" y="1192"/>
      <point x="-144" y="1102"/>
      <point x="0" y="1102" type="curve" smooth="yes"/>
      <point x="144" y="1102"/>
      <point x="256" y="1192"/>
    </contour>
  </outline>
</glyph>
<glyph name="dotaccentcomb" format="2">
  <unicode hex="0307"/>
  <anchor x="0" y="1084" name="_top"/>
  <anchor x="0" y="1429" name="top"/>
  <outline>
    <contour>
      <point x="-100" y="1238" type="curve" smooth="yes"/>
      <point x="-100" y="1214"/>
      <point x="-94" y="1182"/>
      <point x="-86" y="1166" type="curve"/>
      <point x="-68" y="1154"/>
      <point x="-30" y="1146"/>
      <point x="0" y="1146" type="curve" smooth="yes"/>
      <point x="26" y="1146"/>
      <point x="72" y="1154"/>
      <point x="86" y="1166" type="curve"/>
      <point x="94" y="1182"/>
      <point x="100" y="1214"/>
      <point x="100" y="1238" type="curve" smooth="yes"/>
      <point x="100" y="1262"/>
      <point x="94" y="1294"/>
      <point x="86" y="1310" type="curve"/>
      <point x="70" y="1322"/>
      <point x="26" y="1330"/>
      <point x="0" y="1330" type="curve" smooth="yes"/>
      <point x="-30" y="1330"/>
      <point x="-68" y="1322"/>
      <point x="-86" y="1310" type="curve"/>
      <point x="-94" y="1294"/>
      <point x="-100" y="1262"/>
    </contour>
  </outline>
</glyph>
<glyph name="dieresiscomb" format="2">
  <unicode hex="0308"/>
  <anchor x="0" y="1084" name="_top"/>
  <anchor x="0" y="1371" name="top"/>
  <outline>
    <contour>
      <point x="-266" y="1215" type="curve" smooth="yes"/>
      <point x="-266" y="1191"/>
      <point x="-261" y="1164"/>
      <point x="-253" y="1148" type="curve"/>
      <point x="-237" y="1138"/>
      <point x="-200" y="1131"/>
      <point x="-176" y="1131" type="curve" smooth="yes"/>
      <point x="-152" y="1131"/>
      <point x="-115" y="1138"/>
      <point x="-99" y="1148" type="curve"/>
      <point x="-91" y="1164"/>
      <point x="-86" y="1191"/>
      <point x="-86" y="1215" type="curve" smooth="yes"/>
      <point x="-86" y="1239"/>
      <point x="-91" y="1266"/>
      <point x="-99" y="1282" type="curve"/>
      <point x="-115" y="1292"/>
      <point x="-152" y="1299"/>
      <point x="-176" y="1299" type="curve" smooth="yes"/>
      <point x="-200" y="1299"/>
      <point x="-237" y="1292"/>
      <point x="-253" y="1282" type="curve"/>
      <point x="-261" y="1266"/>
      <point x="-266" y="1239"/>
    </contour>
    <contour>
      <point x="86" y="1215" type="curve" smooth="yes"/>
      <point x="86" y="1191"/>
      <point x="91" y="1164"/>
      <point x="99" y="1148" type="curve"/>
      <point x="115" y="1138"/>
      <point x="152" y="1131"/>
      <point x="176" y="1131" type="curve" smooth="yes"/>
      <point x="200" y="1131"/>
      <point x="237" y="1138"/>
      <point x="253" y="1148" type="curve"/>
      <point x="261" y="1164"/>
      <point x="266" y="1191"/>
      <point x="266" y="1215" type="curve" smooth="yes"/>
      <point x="266" y="1239"/>
      <point x="261" y="1266"/>
      <point x="253" y="1282" type="curve"/>
      <point x="237" y="1292"/>
      <point x="200" y="1299"/>
      <point x="176" y="1299" type="curve" smooth="yes"/>
      <point x="152" y="1299"/>
      <point x="115" y="1292"/>
      <point x="99" y="1282" type="curve"/>
      <point x="91" y="1266"/>
      <point x="86" y="1239"/>
    </contour>
  </outline>
</glyph>
<glyph name="dblgravecomb" format="2">
  <unicode hex="030F"/>
  <anchor x="0" y="1084" name="_top"/>
  <anchor x="0" y="1493" name="top"/>
  <outline>
    <contour>
      <point x="-207" y="1438" type="line"/>
      <point x="-271" y="1438"/>
      <point x="-326" y="1405"/>
      <point x="-354" y="1367" type="curve"/>
      <point x="-121" y="1080" type="line"/>
      <point x="-91" y="1088"/>
      <point x="-63" y="1104"/>
      <point x="-49" y="1130" type="curve"/>
    </contour>
    <contour>
      <point x="90" y="1438" type="line"/>
      <point x="26" y="1441"/>
      <point x="-30" y="1411"/>
      <point x="-60" y="1375" type="curve"/>
      <point x="156" y="1080" type="line"/>
      <point x="186" y="1086"/>
      <point x="215" y="1101"/>
      <point x="230" y="1126" type="curve"/>
    </contour>
  </outline>
</glyph>
<glyph name="horncomb" format="2">
  <unicode hex="031B"/>
  <anchor x="0" y="980" name="_topright"/>
  <outline>
    <contour>
      <point x="-53" y="986" type="curve" smooth="yes"/>
      <point x="-138" y="986" type="line"/>
      <point x="-138" y="890" type="line"/>
      <point x="-53" y="890" type="line" smooth="yes"/>
      <point x="128" y="890"/>
      <point x="206" y="981"/>
      <point x="206" y="1084" type="curve" smooth="yes"/>
      <point x="206" y="1144"/>
      <point x="178" y="1207"/>
      <point x="154" y="1234" type="curve"/>
      <point x="111" y="1235"/>
      <point x="71" y="1216"/>
      <point x="42" y="1184" type="curve"/>
      <point x="59" y="1157"/>
      <point x="77" y="1119"/>
      <point x="77" y="1085" type="curve" smooth="yes"/>
      <point x="77" y="1027"/>
      <point x="30" y="986"/>
    </contour>
  </outline>
</glyph>
<glyph name="dieresisbelowcomb" format="2">
  <unicode hex="0324"/>
  <anchor x="0" y="0" name="_bottom"/>
  <anchor x="0" y="-380" name="bottom"/>
  <outline>
    <contour>
      <point x="-266" y="-206" type="curve" smooth="yes"/>
      <point x="-266" y="-230"/>
      <point x="-261" y="-257"/>
      <point x="-253" y="-273" type="curve"/>
      <point x="-237" y="-283"/>
      <point x="-200" y="-290"/>
      <point x="-176" y="-290" type="curve" smooth="yes"/>
      <point x="-152" y="-290"/>
      <point x="-115" y="-283"/>
      <point x="-99" y="-273" type="curve"/>
      <point x="-91" y="-257"/>
      <point x="-86" y="-230"/>
      <point x="-86" y="-206" type="curve" smooth="yes"/>
      <point x="-86" y="-182"/>
      <point x="-91" y="-155"/>
      <point x="-99" y="-139" type="curve"/>
      <point x="-115" y="-129"/>
      <point x="-152" y="-122"/>
      <point x="-176" y="-122" type="curve" smooth="yes"/>
      <point x="-200" y="-122"/>
      <point x="-237" y="-129"/>
      <point x="-253" y="-139" type="curve"/>
      <point x="-261" y="-155"/>
      <point x="-266" y="-182"/>
    </contour>
    <contour>
      <point x="86" y="-206" type="curve" smooth="yes"/>
      <point x="86" y="-230"/>
      <point x="91" y="-257"/>
      <point x="99" y="-273" type="curve"/>
      <point x="115" y="-283"/>
      <point x="152" y="-290"/>
      <point x="176" y="-290" type="curve" smooth="yes"/>
      <point x="200" y="-290"/>
      <point x="237" y="-283"/>
      <point x="253" y="-273" type="curve"/>
      <point x="261" y="-257"/>
      <point x="266" y="-230"/>
      <point x="266" y="-206" type="curve" smooth="yes"/>
      <point x="266" y="-182"/>
      <point x="261" y="-155"/>
      <point x="253" y="-139" type="curve"/>
      <point x="237" y="-129"/>
      <point x="200" y="-122"/>
      <point x="176" y="-122" type="curve" smooth="yes"/>
      <point x="152" y="-122"/>
      <point x="115" y="-129"/>
      <point x="99" y="-139" type="curve"/>
      <point x="91" y="-155"/>
      <point x="86" y="-182"/>
    </contour>
  </outline>
</glyph>
<glyph name="cedillacomb" format="2">
  <unicode hex="0327"/>
  <anchor x="0" y="0" name="_bottom"/>
  <anchor x="0" y="-451" name="bottom"/>
  <outline>
    <contour>
      <point x="-108" y="-144" type="curve"/>
      <point x="-104" y="-156"/>
      <point x="-92" y="-168"/>
      <point x="-78" y="-174" type="curve"/>
      <point x="-64" y="-168"/>
      <point x="-44" y="-164"/>
      <point x="-28" y="-164" type="curve" smooth="yes"/>
      <point x="40" y="-164"/>
      <point x="70" y="-204"/>
      <point x="70" y="-252" type="curve" smooth="yes"/>
      <point x="70" y="-298"/>
      <point x="42" y="-342"/>
      <point x="-30" y="-342" type="curve" smooth="yes"/>
      <point x="-66" y="-342"/>
      <point x="-108" y="-330"/>
      <point x="-134" y="-314" type="curve"/>
      <point x="-152" y="-338"/>
      <point x="-168" y="-366"/>
      <point x="-170" y="-400" type="curve"/>
      <point x="-138" y="-420"/>
      <point x="-82" y="-436"/>
      <point x="-22" y="-436" type="curve" smooth="yes"/>
      <point x="100" y="-436"/>
      <point x="194" y="-360"/>
      <point x="194" y="-254" type="curve" smooth="yes"/>
      <point x="194" y="-150"/>
      <point x="114" y="-89"/>
      <point x="19" y="-80" type="curve"/>
      <point x="28" y="-56"/>
      <point x="49" y="-7"/>
      <point x="61" y="13" type="curve"/>
      <point x="-43" y="13" type="line"/>
      <point x="-64" y="-27"/>
      <point x="-92" y="-97"/>
    </contour>
  </outline>
</glyph>
<glyph name="ogonekcomb" format="2">
  <unicode hex="0328"/>
  <anchor x="0" y="0" name="_ogonek"/>
  <anchor x="-72" y="-452" name="bottom"/>
  <outline>
    <contour>
      <point x="-86" y="-434" type="curve" smooth="yes"/>
      <point x="-12" y="-434"/>
      <point x="66" y="-406"/>
      <point x="110" y="-370" type="curve"/>
      <point x="110" y="-336"/>
      <point x="94" y="-310"/>
      <point x="74" y="-294" type="curve"/>
      <point x="40" y="-312"/>
      <point x="-6" y="-330"/>
      <point x="-54" y="-330" type="curve" smooth="yes"/>
      <point x="-116" y="-330"/>
      <point x="-160" y="-294"/>
      <point x="-160" y="-228" type="curve" smooth="yes"/>
      <point x="-160" y="-146"/>
      <point x="-98" y="-72"/>
      <point x="0" y="0" type="curve"/>
      <point x="-13" y="22"/>
      <point x="-40" y="46"/>
      <point x="-67" y="55" type="curve"/>
      <point x="-198" y="-29"/>
      <point x="-286" y="-138"/>
      <point x="-286" y="-254" type="curve" smooth="yes"/>
      <point x="-286" y="-370"/>
      <point x="-200" y="-434"/>
    </contour>
  </outline>
</glyph>
<glyph name="macronbelowcomb" format="2">
  <unicode hex="0331"/>
  <anchor x="0" y="0" name="_bottom"/>
  <anchor x="0" y="-404" name="bottom"/>
  <outline>
    <contour>
      <point x="264" y="-146" type="curve"/>
      <point x="-264" y="-146" type="line"/>
      <point x="-268" y="-164"/>
      <point x="-270" y="-182"/>
      <point x="-270" y="-208" type="curve" smooth="yes"/>
      <point x="-270" y="-236"/>
      <point x="-268" y="-254"/>
      <point x="-264" y="-274" type="curve"/>
      <point x="264" y="-274" type="line"/>
      <point x="268" y="-254"/>
      <point x="270" y="-236"/>
      <point x="270" y="-208" type="curve" smooth="yes"/>
      <point x="270" y="-182"/>
      <point x="268" y="-164"/>
    </contour>
  </outline>
</glyph>
<glyph name="strokeshortcomb" format="2">
  <unicode hex="0335"/>
  <anchor x="0" y="526" name="_center"/>
  <outline>
    <contour>
      <point x="305" y="580" type="curve"/>
      <point x="-305" y="580" type="line"/>
      <point x="-309" y="560"/>
      <point x="-311" y="546"/>
      <point x="-311" y="526" type="curve" smooth="yes"/>
      <point x="-311" y="506"/>
      <point x="-309" y="490"/>
      <point x="-305" y="472" type="curve"/>
      <point x="305" y="472" type="line"/>
      <point x="309" y="490"/>
      <point x="311" y="506"/>
      <point x="311" y="526" type="curve" smooth="yes"/>
      <point x="311" y="546"/>
      <point x="309" y="560"/>
    </contour>
  </outline>
</glyph>
<glyph name="Sacutedotaccent" format="2">
  <advance width="1110"/>
  <unicode hex="1E64"/>
  <anchor x="556" y="0" name="bottom"/>
  <outline>
    <contour>
      <point x="80" y="126" type="curve"/>
      <point x="204" y="36"/>
      <point x="374" y="-24"/>
      <point x="542" y="-24" type="curve" smooth="yes"/>
      <point x="860" y="-24"/>
      <point x="1010" y="138"/>
      <point x="1010" y="360" type="curve" smooth="yes"/>
      <point x="1010" y="544"/>
      <point x="868" y="655"/>
      <point x="712" y="720" type="curve" smooth="yes"/>
      <point x="478" y="818" type="line" smooth="yes"/>
      <point x="372" y="862"/>
      <point x="280" y="922"/>
      <point x="280" y="1034" type="curve" smooth="yes"/>
      <point x="280" y="1172"/>
      <point x="400" y="1266"/>
      <point x="570" y="1266" type="curve" smooth="yes"/>
      <point x="670" y="1266"/>
      <point x="794" y="1228"/>
      <point x="900" y="1174" type="curve"/>
      <point x="934" y="1202"/>
      <point x="958" y="1252"/>
      <point x="958" y="1294" type="curve"/>
      <point x="854" y="1344"/>
      <point x="716" y="1390"/>
      <point x="564" y="1390" type="curve" smooth="yes"/>
      <point x="298" y="1390"/>
      <point x="134" y="1220"/>
      <point x="134" y="1022" type="curve" smooth="yes"/>
      <point x="134" y="864"/>
      <point x="232" y="760"/>
      <point x="402" y="688" type="curve" smooth="yes"/>
      <point x="644" y="586" type="line" smooth="yes"/>
      <point x="764" y="535"/>
      <point x="862" y="454"/>
      <point x="862" y="328" type="curve" smooth="yes"/>
      <point x="862" y="188"/>
      <point x="738" y="104"/>
      <point x="548" y="104" type="curve" smooth="yes"/>
      <point x="414" y="104"/>
      <point x="266" y="160"/>
      <point x="148" y="242" type="curve"/>
      <point x="116" y="218"/>
      <point x="84" y="170"/>
    </contour>
    <contour>
      <point x="761" y="1758" type="curve"/>
      <point x="383" y="1538" type="line"/>
      <point x="387" y="1512"/>
      <point x="403" y="1476"/>
      <point x="429" y="1458" type="curve"/>
      <point x="835" y="1630" type="line"/>
      <point x="825" y="1682"/>
      <point x="797" y="1736"/>
    </contour>
    <contour>
      <point x="355" y="1842" type="curve" smooth="yes"/>
      <point x="355" y="1818"/>
      <point x="361" y="1786"/>
      <point x="369" y="1770" type="curve"/>
      <point x="387" y="1758"/>
      <point x="425" y="1750"/>
      <point x="455" y="1750" type="curve" smooth="yes"/>
      <point x="481" y="1750"/>
      <point x="527" y="1758"/>
      <point x="541" y="1770" type="curve"/>
      <point x="549" y="1786"/>
      <point x="555" y="1818"/>
      <point x="555" y="1842" type="curve" smooth="yes"/>
      <point x="555" y="1866"/>
      <point x="549" y="1898"/>
      <point x="541" y="1914" type="curve"/>
      <point x="525" y="1926"/>
      <point x="481" y="1934"/>
      <point x="455" y="1934" type="curve" smooth="yes"/>
      <point x="425" y="1934"/>
      <point x="387" y="1926"/>
      <point x="369" y="1914" type="curve"/>
      <point x="361" y="1898"/>
      <point x="355" y="1866"/>
    </contour>
  </outline>
</glyph>
<glyph name="endash" format="2">
  <advance width="1030"/>
  <unicode hex="2013"/>
  <outline>
    <contour>
      <point x="134" y="466" type="curve"/>
      <point x="896" y="466" type="line"/>
      <point x="900" y="484"/>
      <point x="902" y="500"/>
      <point x="902" y="526" type="curve" smooth="yes"/>
      <point x="902" y="554"/>
      <point x="900" y="570"/>
      <point x="896" y="590" type="curve"/>
      <point x="134" y="590" type="line"/>
      <point x="130" y="570"/>
      <point x="128" y="554"/>
      <point x="128" y="526" type="curve" smooth="yes"/>
      <point x="128" y="500"/>
      <point x="130" y="484"/>
    </contour>
  </outline>
</glyph>
<glyph name="horizontalbar" format="2">
  <advance width="1696"/>
  <unicode hex="2015"/>
  <outline>
    <contour>
      <point x="246" y="466" type="curve"/>
      <point x="1450" y="466" type="line"/>
      <point x="1454" y="484"/>
      <point x="1456" y="500"/>
      <point x="1456" y="526" type="curve" smooth="yes"/>
      <point x="1456" y="554"/>
      <point x="1454" y="570"/>
      <point x="1450" y="590" type="curve"/>
      <point x="246" y="590" type="line"/>
      <point x="242" y="570"/>
      <point x="240" y="554"/>
      <point x="240" y="526" type="curve" smooth="yes"/>
      <point x="240" y="500"/>
      <point x="242" y="484"/>
    </contour>
  </outline>
</glyph>
<glyph name="quoteleft" format="2">
  <advance width="404"/>
  <unicode hex="2018"/>
  <outline>
    <contour>
      <point x="110" y="1054" type="curve"/>
      <point x="126" y="1042"/>
      <point x="176" y="1034"/>
      <point x="208" y="1034" type="curve" smooth="yes"/>
      <point x="242" y="1034"/>
      <point x="294" y="1046"/>
      <point x="310" y="1054" type="curve"/>
      <point x="320" y="1068"/>
      <point x="326" y="1112"/>
      <point x="326" y="1142" type="curve" smooth="yes"/>
      <point x="326" y="1172"/>
      <point x="318" y="1210"/>
      <point x="310" y="1224" type="curve"/>
      <point x="294" y="1236"/>
      <point x="252" y="1242"/>
      <point x="230" y="1244" type="curve"/>
      <point x="232" y="1312"/>
      <point x="282" y="1376"/>
      <point x="350" y="1414" type="curve"/>
      <point x="352" y="1442"/>
      <point x="332" y="1476"/>
      <point x="306" y="1488" type="curve"/>
      <point x="164" y="1426"/>
      <point x="90" y="1312"/>
      <point x="90" y="1170" type="curve" smooth="yes"/>
      <point x="90" y="1128"/>
      <point x="98" y="1078"/>
    </contour>
  </outline>
</glyph>
<glyph name="quotesinglbase" format="2">
  <advance width="406"/>
  <unicode hex="201A"/>
  <outline>
    <contour>
      <point x="310" y="172" type="curve"/>
      <point x="294" y="184"/>
      <point x="244" y="192"/>
      <point x="212" y="192" type="curve" smooth="yes"/>
      <point x="178" y="192"/>
      <point x="126" y="180"/>
      <point x="110" y="172" type="curve"/>
      <point x="100" y="158"/>
      <point x="94" y="114"/>
      <point x="94" y="84" type="curve" smooth="yes"/>
      <point x="94" y="54"/>
      <point x="102" y="16"/>
      <point x="110" y="2" type="curve"/>
      <point x="126" y="-10"/>
      <point x="168" y="-16"/>
      <point x="190" y="-18" type="curve"/>
      <point x="188" y="-86"/>
      <point x="138" y="-150"/>
      <point x="70" y="-188" type="curve"/>
      <point x="68" y="-216"/>
      <point x="88" y="-250"/>
      <point x="114" y="-262" type="curve"/>
      <point x="256" y="-200"/>
      <point x="330" y="-86"/>
      <point x="330" y="56" type="curve" smooth="yes"/>
      <point x="330" y="98"/>
      <point x="322" y="148"/>
    </contour>
  </outline>
</glyph>
<glyph name="dagger" format="2">
  <advance width="706"/>
  <unicode hex="2020"/>
  <outline>
    <contour>
      <point x="276" y="550" type="curve" smooth="yes"/>
      <point x="296" y="-220" type="line"/>
      <point x="310" y="-224"/>
      <point x="332" y="-226"/>
      <point x="352" y="-226" type="curve" smooth="yes"/>
      <point x="372" y="-226"/>
      <point x="396" y="-224"/>
      <point x="408" y="-220" type="curve"/>
      <point x="428" y="548" type="line" smooth="yes"/>
      <point x="430" y="650"/>
      <point x="418" y="814"/>
      <point x="410" y="916" type="curve"/>
      <point x="412" y="1018"/>
      <point x="434" y="1190"/>
      <point x="428" y="1288" type="curve" smooth="yes"/>
      <point x="422" y="1366" type="line"/>
      <point x="398" y="1372"/>
      <point x="376" y="1374"/>
      <point x="350" y="1374" type="curve" smooth="yes"/>
      <point x="328" y="1374"/>
      <point x="304" y="1372"/>
      <point x="282" y="1366" type="curve"/>
      <point x="276" y="1290" type="line" smooth="yes"/>
      <point x="268" y="1188"/>
      <point x="292" y="1018"/>
      <point x="294" y="916" type="curve"/>
      <point x="288" y="816"/>
      <point x="274" y="656"/>
    </contour>
    <contour>
      <point x="600" y="846" type="curve" smooth="yes"/>
      <point x="660" y="848" type="line"/>
      <point x="664" y="866"/>
      <point x="666" y="886"/>
      <point x="666" y="912" type="curve" smooth="yes"/>
      <point x="666" y="940"/>
      <point x="664" y="960"/>
      <point x="660" y="980" type="curve"/>
      <point x="600" y="982" type="line" smooth="yes"/>
      <point x="552" y="984"/>
      <point x="402" y="966"/>
      <point x="354" y="966" type="curve" smooth="yes"/>
      <point x="302" y="966"/>
      <point x="154" y="984"/>
      <point x="106" y="982" type="curve" smooth="yes"/>
      <point x="46" y="980" type="line"/>
      <point x="42" y="960"/>
      <point x="40" y="940"/>
      <point x="40" y="912" type="curve" smooth="yes"/>
      <point x="40" y="886"/>
      <point x="42" y="866"/>
      <point x="46" y="848" type="curve"/>
      <point x="106" y="846" type="line" smooth="yes"/>
      <point x="160" y="844"/>
      <point x="306" y="862"/>
      <point x="354" y="862" type="curve" smooth="yes"/>
      <point x="404" y="862"/>
      <point x="556" y="844"/>
    </contour>
  </outline>
</glyph>
<glyph name="daggerdbl" format="2">
  <advance width="706"/>
  <unicode hex="2021"/>
  <outline>
    <contour>
      <point x="276" y="560" type="curve" smooth="yes"/>
      <point x="296" y="-220" type="line"/>
      <point x="310" y="-224"/>
      <point x="332" y="-226"/>
      <point x="352" y="-226" type="curve" smooth="yes"/>
      <point x="372" y="-226"/>
      <point x="396" y="-224"/>
      <point x="408" y="-220" type="curve"/>
      <point x="428" y="558" type="line" smooth="yes"/>
      <point x="430" y="660"/>
      <point x="418" y="824"/>
      <point x="410" y="926" type="curve"/>
      <point x="412" y="1028"/>
      <point x="434" y="1190"/>
      <point x="428" y="1288" type="curve" smooth="yes"/>
      <point x="422" y="1366" type="line"/>
      <point x="398" y="1372"/>
      <point x="376" y="1374"/>
      <point x="350" y="1374" type="curve" smooth="yes"/>
      <point x="328" y="1374"/>
      <point x="304" y="1372"/>
      <point x="282" y="1366" type="curve"/>
      <point x="276" y="1290" type="line" smooth="yes"/>
      <point x="268" y="1188"/>
      <point x="292" y="1028"/>
      <point x="294" y="926" type="curve"/>
      <point x="288" y="826"/>
      <point x="274" y="666"/>
    </contour>
    <contour>
      <point x="600" y="856" type="curve" smooth="yes"/>
      <point x="660" y="858" type="line"/>
      <point x="664" y="876"/>
      <point x="666" y="896"/>
      <point x="666" y="922" type="curve" smooth="yes"/>
      <point x="666" y="950"/>
      <point x="664" y="970"/>
      <point x="660" y="990" type="curve"/>
      <point x="600" y="992" type="line" smooth="yes"/>
      <point x="532" y="994"/>
      <point x="402" y="974"/>
      <point x="354" y="974" type="curve" smooth="yes"/>
      <point x="302" y="974"/>
      <point x="174" y="994"/>
      <point x="106" y="992" type="curve" smooth="yes"/>
      <point x="46" y="990" type="line"/>
      <point x="42" y="970"/>
      <point x="40" y="950"/>
      <point x="40" y="922" type="curve" smooth="yes"/>
      <point x="40" y="896"/>
      <point x="42" y="876"/>
      <point x="46" y="858" type="curve"/>
      <point x="106" y="856" type="line" smooth="yes"/>
      <point x="180" y="854"/>
      <point x="306" y="874"/>
      <point x="354" y="874" type="curve" smooth="yes"/>
      <point x="404" y="874"/>
      <point x="536" y="854"/>
    </contour>
    <contour>
      <point x="600" y="306" type="curve" smooth="yes"/>
      <point x="660" y="308" type="line"/>
      <point x="664" y="326"/>
      <point x="666" y="346"/>
      <point x="666" y="372" type="curve" smooth="yes"/>
      <point x="666" y="400"/>
      <point x="664" y="420"/>
      <point x="660" y="440" type="curve"/>
      <point x="600" y="442" type="line" smooth="yes"/>
      <point x="532" y="444"/>
      <point x="402" y="422"/>
      <point x="354" y="422" type="curve" smooth="yes"/>
      <point x="302" y="422"/>
      <point x="174" y="444"/>
      <point x="106" y="442" type="curve" smooth="yes"/>
      <point x="46" y="440" type="line"/>
      <point x="42" y="420"/>
      <point x="40" y="400"/>
      <point x="40" y="372" type="curve" smooth="yes"/>
      <point x="40" y="346"/>
      <point x="42" y="326"/>
      <point x="46" y="308" type="curve"/>
      <point x="106" y="306" type="line" smooth="yes"/>
      <point x="180" y="304"/>
      <point x="306" y="326"/>
      <point x="354" y="326" type="curve" smooth="yes"/>
      <point x="404" y="326"/>
      <point x="536" y="304"/>
    </contour>
  </outline>
</glyph>
<glyph name="minute" format="2">
  <advance width="386"/>
  <unicode hex="2032"/>
  <outline>
    <contour>
      <point x="188" y="1290" type="curve"/>
      <point x="117" y="792" type="line"/>
      <point x="140" y="775"/>
      <point x="184" y="766"/>
      <point x="214" y="771" type="curve"/>
      <point x="336" y="1257" type="line"/>
      <point x="303" y="1282"/>
      <point x="230" y="1296"/>
    </contour>
  </outline>
</glyph>
<glyph name="guilsinglleft" format="2">
  <advance width="640"/>
  <unicode hex="2039"/>
  <outline>
    <contour>
      <point x="250" y="512" type="line"/>
      <point x="548" y="846" type="line"/>
      <point x="534" y="878"/>
      <point x="500" y="910"/>
      <point x="466" y="924" type="curve"/>
      <point x="88" y="560" type="line"/>
      <point x="78" y="534"/>
      <point x="78" y="486"/>
      <point x="88" y="460" type="curve"/>
      <point x="478" y="88" type="line"/>
      <point x="512" y="102"/>
      <point x="546" y="134"/>
      <point x="560" y="166" type="curve"/>
    </contour>
  </outline>
</glyph>
<glyph name="guilsinglright" format="2">
  <advance width="640"/>
  <unicode hex="203A"/>
  <outline>
    <contour>
      <point x="390" y="500" type="line"/>
      <point x="92" y="166" type="line"/>
      <point x="106" y="134"/>
      <point x="140" y="102"/>
      <point x="174" y="88" type="curve"/>
      <point x="552" y="452" type="line"/>
      <point x="562" y="478"/>
      <point x="562" y="526"/>
      <point x="552" y="552" type="curve"/>
      <point x="162" y="924" type="line"/>
      <point x="128" y="910"/>
      <point x="94" y="878"/>
      <point x="80" y="846" type="curve"/>
    </contour>
  </outline>
</glyph>
<glyph name="fraction" format="2">
  <advance width="317"/>
  <unicode hex="2044"/>
  <outline>
    <contour>
      <point x="437" y="1266" type="curve"/>
      <point x="-260" y="0" type="line"/>
      <point x="-230" y="-14"/>
      <point x="-150" y="-14"/>
      <point x="-120" y="0" type="curve"/>
      <point x="577" y="1266" type="line"/>
      <point x="547" y="1280"/>
      <point x="467" y="1280"/>
    </contour>
  </outline>
</glyph>
<glyph name="sixsuperior" format="2">
  <advance width="840"/>
  <unicode hex="2076"/>
  <outline>
    <contour>
      <point x="488" y="1485" type="curve" smooth="yes"/>
      <point x="265" y="1485"/>
      <point x="144" y="1323"/>
      <point x="144" y="1046" type="curve" smooth="yes"/>
      <point x="144" y="902"/>
      <point x="177" y="791"/>
      <point x="239" y="721" type="curve" smooth="yes"/>
      <point x="288" y="666"/>
      <point x="353" y="638"/>
      <point x="432" y="638" type="curve" smooth="yes"/>
      <point x="597" y="638"/>
      <point x="719" y="759"/>
      <point x="719" y="941" type="curve" smooth="yes"/>
      <point x="719" y="1102"/>
      <point x="623" y="1200"/>
      <point x="480" y="1200" type="curve" smooth="yes"/>
      <point x="361" y="1200"/>
      <point x="264" y="1130"/>
      <point x="224" y="1052" type="curve"/>
      <point x="251" y="974" type="line"/>
      <point x="300" y="1049"/>
      <point x="378" y="1092"/>
      <point x="453" y="1092" type="curve" smooth="yes"/>
      <point x="534" y="1092"/>
      <point x="591" y="1043"/>
      <point x="591" y="929" type="curve" smooth="yes"/>
      <point x="591" y="818"/>
      <point x="539" y="742"/>
      <point x="440" y="742" type="curve" smooth="yes"/>
      <point x="391" y="742"/>
      <point x="352" y="760"/>
      <point x="323" y="798" type="curve" smooth="yes"/>
      <point x="288" y="844"/>
      <point x="272" y="917"/>
      <point x="272" y="1005" type="curve" smooth="yes"/>
      <point x="272" y="1110" type="line" smooth="yes"/>
      <point x="272" y="1266"/>
      <point x="342" y="1381"/>
      <point x="493" y="1381" type="curve" smooth="yes"/>
      <point x="543" y="1381"/>
      <point x="600" y="1367"/>
      <point x="631" y="1349" type="curve"/>
      <point x="656" y="1369"/>
      <point x="672" y="1413"/>
      <point x="673" y="1445" type="curve"/>
      <point x="629" y="1470"/>
      <point x="556" y="1485"/>
    </contour>
  </outline>
</glyph>
